<svg xmlns="http://www.w3.org/2000/svg" viewBox="0 0 50 50"><defs><style>.cls-1{font-size:8.72px;stroke:#000;stroke-miterlimit:10;font-family:AdornCondensedSans, Adorn Condensed Sans;}</style></defs><title>dnd</title><g id="logo-bot"><text class="cls-1" transform="translate(20.36 27.63)">20</text><path d="M0,0V50H50V0ZM42.22,13,37,16,26.16,2.71ZM13.86,19H34.71L24.29,37.1ZM22.4,37.09l-17-4.24,7.07-12.74Zm14.16-17,7.07,12.74-17,4.24Zm-1.85-2.83H13.86L24.29,3.12ZM22.89,2.71,12,16,6.83,13ZM5.42,14.44l5.66,4.25L4,31.43ZM5.29,34.89l18.53,5L25.23,47ZM26.65,47l-1.42-7.08,19.7-5ZM38,18.69l5.66-4.25,1.42,17Z"/></g></svg>