<svg xmlns="http://www.w3.org/2000/svg" viewBox="0 0 57.71 77.92"><defs><style>.cls-1{fill:#202020;}</style></defs><title>left-arrow</title><g id="left-arrow"><path class="cls-1" d="M52.4,76l-.19-.25S52.24,75.82,52.4,76Z"/><path class="cls-1" d="M52.17,76.44v0S52.19,76.44,52.17,76.44Z"/><path class="cls-1" d="M32.52,13.91a.4.4,0,0,0,.06-.27A.25.25,0,0,0,32.52,13.91Z"/><path class="cls-1" d="M23,31.36a.5.5,0,0,0,0-.13A.13.13,0,0,0,23,31.36Z"/><path class="cls-1" d="M50.12,73.15l.06.13C50.29,73.23,50.2,73.13,50.12,73.15Z"/><path class="cls-1" d="M35.84,11.3l-.07-.11A.52.52,0,0,0,35.84,11.3Z"/><path class="cls-1" d="M44.83,63a.34.34,0,0,1-.12-.06A.14.14,0,0,0,44.83,63Z"/><path class="cls-1" d="M16.05,23.88a.45.45,0,0,0,0,.18A.14.14,0,0,0,16.05,23.88Z"/><path class="cls-1" d="M16.47,25.11c.64-.65-.44-.63-.46-1.05-.16.18-.62.28-.32.48-.66-.57-1.08.85-1.73.39,0,.08.34.25.1.53-.44.23-.52-.14-.76-.24a.43.43,0,0,1-.14.21.93.93,0,0,1-.37.24c-.4.19-.74.3-.69.22-.55.34,1,.56.24,1.09-.3.65-1.27.38-1.87.65-1.05-.17.65-.4.91-.63l-2.19.68c-.91-.1-.09-.51.69-.6-1.21-.11-2.28.42-2.12.84a10.42,10.42,0,0,1-1.63.14c.29-.31-.54-.94.32-1.24,1.63-.27,0,.61,1.39.45l-.28-.42c.79.12,1-.27,1.57-.42.43,0,0,.16-.14.26,1.08-.25,2.08-.16,2.64-.85A12.3,12.3,0,0,0,9,26.23a5,5,0,0,1-2.16.18c-.87.38-1.67.76-2.41,1.12.27.17,1.62.26,1.19.67a7.24,7.24,0,0,0-3.36-.31c1.2.39-1,.7.26,1,0-.3,1,0,1.13,0-.91.2.65.44.2.55-1.66.17-.76-.2-2-.18a.48.48,0,0,0-.09.19L1.27,29a1.13,1.13,0,0,1,.71-1c-.45-.19-1,.21-1.94.07,1.12.12.44.48,1.16.49l-.41.18.49.77.23.38c0,.06.06.12.11.19l.19.25a21,21,0,0,1,1.31,1.88c-1.18-.45-2-2.61-3.12-2.66.54.83,1.08,1,1.28,1.56-.43.33.72,1.67,1.2,2.6l.11-.36a3.06,3.06,0,0,1,.69,1.4L3.1,34.7l.39.41c0,.06,0,.08-.06.07.58.44.81,1.57,1.61,2.38.47-.08-.56-.81-.7-1.22,0-.12-.16-.87.38-.52.54,1,1.58,1.57,2.31,2.58,0-.12-.09-.24-.12-.36.55.24.75.69,1.14,1.15.44,1-1.08-.4-.89.23-.66-.23-.75-1-1.39-1,0,.26-.07.54-.1.83.79.4.72,1.22,1.17,1.56l-.13-.52c.5-.13.51.38.62.6.12-.2.23-.4.36-.59-.39-.56-1.22-.73-1.18-1.28,1,.9,1.3.44,2.29,1.47-.18.19-.27-.15-.54-.16.2.47,1,.55,1.38,1.24-.45-.2-1.19-.63-1.05.06H9.3c.22.32,0,.35.07.47s.24.12.34,0,.25-.1.4.13.06.35-.08.37c.48.47.35.1,1,.33-.41-.37.09-.94.56-.63.54.6,1.23.6,1.23,1.44l.48,0c-.47.23.28.44.42.66-.26.45-.9-.75-1.44-.1.35.39,0,.45-.26.52.49.29.54-.34.95-.44-.13.16.7.65.16.79.35.33.75-.05,1,.25a2,2,0,0,0-.52.53c.14-.11.36.34.42.4,0-.13.4-.25,0-.38.34-.26.77.58,1,.29-.25.4.64.61.86,1,.63-.91-.88-.14-.45-1,.68,0,1.53,1.11,2.53,1.25.49.63-.25.34-.37.76-.68-.28-.62-.65-1.24-.87a3.23,3.23,0,0,0,2,1.16c.61.4,0,1.37.81,1.67.13-.35.2-.4.06-.67.26,0,.4.31.6.46.26-.09-.14-.46.26-.4.06.14.26.35.07.51h-.07c.86.26-.06,1,.92,1,.07-.17-.19-.1-.26-.29s.66-.33,1-.21c-.19.15.2.22.33.42-.14.42-.52-.27-.79-.13l.46.45-.06-.13.78.13c-.46-.2.14-.54.34-.44.32.37.65.74.31,1.05.34-.32.79.08,1.18.28-.25-.42.21-.33.41-.36l.24.8c-.65-.37-.15.41-.48.54s-.65-.25-.9-.55c0,1.14,1.1.34,1.35,1.07-.14.16-.34.31-.53.09,0,.18.72.07.9.55,0-.19.09-.68.54-.52l.1.78c.43.53.54-.27,1.12-.08l0-.51c.35-.31.57.5.92.13-.25-.24-.66-.08-.84-.43.22-.46.53.11.86.06a2.33,2.33,0,0,1,.47,1.24c-.5.58-1.33.08-1.9.91.64.38,1.58.92,1.74,1.46.64.27,1-.21,1.23-.6a.59.59,0,0,1,.36.47l-.39,0a6.08,6.08,0,0,1,1.89,1.11c.44.24.61-.22.78-.56l.44.31v-.13c.42-.27.65.18.89.44-.15.15-.34,0-.42.14a1,1,0,0,0,.8.68c-.15.15-.63.33-.79,0,0-.07.07-.11.08-.17l-.64-.24a.79.79,0,0,1,.26,1.35c.69.32-.05-.78.69-.32.11,1.49,1.71,1.34,1.13,2.77a4,4,0,0,1,1.94.86c.31-.29.5.28.82-.13-.13-.95-1.58-.52-1.46-1.5-.38-.12-.56.22-.83.26-.24-.2-.41-.44-.25-.65.69.33.87-.58,1.52.07.18-.33-.44-.78-.6-1.08a.49.49,0,0,0,.27-.57,9.43,9.43,0,0,1,1.4.11c-.21.06-.17.27-.31.29l1.11.29c0,.39-.15.67-.42.7.27.48,1.31.76.84,1.2.55.43.13-.42.22-.59l.06,0-.54-.51c.48-.56.44.73,1,.34,1.06-.82.4,1.05.89,1.29L39,63.3l.5.24c-.48,0-.94.45-1.54.39.45.54.9,1.48,1.34,1.7a1.35,1.35,0,0,1-.6.77c.92.11.48,1,.87,1.48.69.25-.06-.8.61-.76-.06.31.32.45.51.52-.27,0-.47-.77-.65-1.23.21.28.54-.06.76-.12l-.32-.51c.47-.36.52.52.92.54-.51.21-.46.29-1,.5a1.89,1.89,0,0,1,1,1.36c0,.33-.34,0-.54,0-.2.32.5.25.22.61-.3.15-.23-.22-.42-.29.29.41.55.83.83,1.24-.16.13-.45-.11-.53-.34.09.5.39.68,1.28.63.16.52.29,1.17-.06,1.23.25.1.3-.14.47-.28.33.61,1,.2,1.23.51l.11-.49c.1.77.61-.29.73.37a3.09,3.09,0,0,0-1,.85c.38-.18.33.34.48.53.23-.37.64.2.7-.37.62.26.35.82,1,.84-.07-.29.64.15.73-.22a.73.73,0,0,1-.22,1.19c-.1-.18-.14-.54-.4-.31l.69.78c0,.33.1.65-.25,1,.62-.06.27,1,.93.83-.53,0-.25-.59-.28-.74l.17.08a.34.34,0,0,1,0-.08l.92-.12c0-.54-.47.25-.82-.25.3-.88,1.64.29,1.7-.44-.08-.51-.62,0-1.07-.15l0,.09-.76-.49a.57.57,0,0,1,.5-.11c-.61-.82-.39-1.19-1-2.13,0,.13-.53.78-.93.47-.37-.16,0-.48-.16-.74.19.07.63-.07.54.3l.43-.36c1,.26,1.19-.42,2,.37.36-.2,1,.33,1.3.91l.12-.47c.94.11-.39.44.57.76-.39.71-.72,1.72-1.48,1.7.2.57.64.5.93.92-.3.61-.62.25-1.07.65.27.27.75.51.87.08l.21.73c-.09.09-.24-.12-.29-.21.06.3.6.57.88.57-.06,0-.24-.12-.21-.24.31.15.86.42,1,.36-.5-.19,0-.61-.55-.76.16-.06.47-.18.54.06.08-.51-.19-.79.05-1.15-.07.44.41.35.5.37a1.34,1.34,0,0,0-.74-.77c.53-.43-.74-.85,0-1-.23.09-.5-.24-.5-.51.25-.16.72.2,1.14.2.91.74-.43.28-.45.62l.54.67c0-.12.59,0,.23-.43.5,0,1.06.25,1,.8.23,0,0-.27,0-.36.22,0,1.13,0,.81-.64.09.18-.47-.1-.44.33-.23-.18-.44-1,0-1-.3-.22-.9-.59-1.13-.78.2-.25.25.13.45.16l-.73-.71-.11.43c-.24-.73-1.17-.63-1.72-1,.49-.26.81.1,1.26.25.31-.68-.41,0-.7-.54a.45.45,0,0,1,.28-.29l-.67-.1c0-.16.11-.16.17-.13-1-.32-.6.47-1.47-.27.19.7.65.23.95.71-.12.49-.95-.1-1.23-.09-.22-.5.38-1-.38-1.32.5.22.41-.3.84.24.46.14.07-.31.27-.56-.19-.09-.38.44-.62,0l.07,0-1-.3c-.24-.79-1.59-1-1.42-1.76l-.37.45a7.64,7.64,0,0,0-1.09-1.06c.31-.14.54.08.84.28a3,3,0,0,0-2-1.26,4.21,4.21,0,0,0,.07,1.1c-1,.08,0-.82-.81-1.13.41-.37.5-.13.8-.62-.48,0-.75-.42-1.22-.46.29-.49.85-.55,1.37,0,0,.74,1,.68,1,1.33l.09-.43c.49.33.63.65,1.14.86l-.08,0,.59-.16-.17-.21a2.45,2.45,0,0,1,1.21.18c-.58-.59-1.3-.08-1.92-.06-.44-.59.13-1.43-.55-1.5.18-.2.13-.69.53-.6s.29.66.6.45c-.28-.32,0-.34-.47-.8a3.13,3.13,0,0,1-1.73,0,1.92,1.92,0,0,1-1-1.07c.35.34,1,.4,1.22.07-.57.12-.32-1-.75-.42-.34-.47-1-1.17-.58-1.62.53.26.6.89,1,1.16a.22.22,0,0,1,.11-.34l.4.55c-.12-.57.1-.63-.38-1.08,0,.06,0,.19-.09.16s-.23-.29-.36-.4l.4-.38c-.52-.19-.63-1.36-1.54-1.76l.14,0c-.4-.61-1.25.09-1.88-.39.35,0,.45-.24.61-.45-.47-.1-.28-.56-.44-.94.08.55-.63.17-.54.54-.39.39-.93-.19-1.17-.53.35-.67,1.16.65,1.27-.3-.24-.35-.61-.13-.5.16A2.81,2.81,0,0,1,40,56.17c-.81-.06-.77-.45-1.54-.23.25.21.62-.13.71.36l-.68,0c-.44-.4-.46-1.05-.7-1.38l.47.14-.08,0c.28,0,.58.44.82.12-.63.07-.51-.48-1.12-.6l.07,0c-.92-.35-.55-1.68-1.67-1.34.13.1.1.61-.11.68,0-.32-.44-.64-.22-.84l.2.06c-.32-.41-.51-.66-.71-.72-.35.16-.43.46-.83.35-.5-.78.83-.35.6-1l-.87-.3.08-.36c-.71-1.08-2.13-.95-3.13-1.81.34-.43,1.22,0,1.49.22,0-.63-.87-.52-1.06-1.15a.7.7,0,0,0-1.09,0c-.61-.27-.13-.54-.13-.67-.55.33-1-.35-1.49-.58l.2-.27-.88-.19c.13.16-.21.27-.34.44L27.86,47c0,1.21,1.76.63,1.68,2-.27-.06-.13.29-.41.23-.13-.16-.13-.22-.06-.33-.27.13-.68.11-.34.37-.48.53-1-.15-1.62-.34-.06-.65.81-.21,1.22-.32-.2-.1-.54,0-.67-.33l.4-.36c-.8-.29-.47.22-.94.5s-.54-.49-.74-.59l.27.05c-.34-.57-.81-.21-1.22-.6l.06-.5c.21.86,1.15,0,1.29.43-.48-1,.88-.71,1.42-.85a1.09,1.09,0,0,1-.69-.9c-1,.13-.91-1.07-1.92-.82-.22-.29.47-.1.19-.34a4.15,4.15,0,0,0-1.87-1c-.29-.24-.09-.4,0-.64-1.21-1.33-2.53-.7-3.81-2.06l.39-.07c-.26-.29-.46-.56-.85-.37.19-1-1.63-.54-1.46-1.69-.49-.62-1,0-1.58-.31.14-.16.53-.34.36-.62-.43-.25-.81-.51-1.19-.78a1.8,1.8,0,0,0-.56-.35,4.13,4.13,0,0,1-.72-.47.83.83,0,0,1,.24,0c0-.13-.4-.24-.77-.44s-.71-.46-.57-.57a4.59,4.59,0,0,0-1.24-.6,4.27,4.27,0,0,1-1.28-.31c-.45-.4-.29-.43.15-.27s.82.28.88.2c1.24.46.57.35,1.64.76a2.46,2.46,0,0,1-.33-.3l0-.06c.53.12.21-.21.82,0-.18-.05.62.39.17.21L14,34.41c-.35,0,.29.27.36.41-.13-.15-.07-.33.26-.25-.56-.36-.09-.19-.33-.45l.06,0a.45.45,0,0,1-.19-.39l.57.49c0-.09-.28-.24-.25-.33s.59-.36.89.22c.05,0,.06-.15.07-.24a.37.37,0,0,1,0-.12s0,0,0,0l.18,0c0,.16-.1.26-.09.35a25.61,25.61,0,0,1,3.48-.86,5,5,0,0,0,1.77-1.43c-.2.13-.88.24-.63-.24.12-.33.49-.37.77-.6.06.34.94-.08.39.42.44.58,1.34-.77,1.62-.13.06-.26,1-.58,1.22-1.08.21.24-.41.42-.31.61l.38-.28.09.18c.9-.2.64-1.08,1-1.44l0,.08.26-.27-.11.71c.47-.35.48-.93,1-1.33l.14.12.23-.35a.12.12,0,0,0,.05.17c0-.64.86-.84.9-1.42.25-.07.78.39.82-.17l.29.6c-.66.51-.5-.24-1.12.44,1,.4,2.5-.67,3.5-1.38.55-.94,2.29-1.31,2-2.36l.16.39a16.67,16.67,0,0,0,1.53-.75c1-1,2.34-1.69,2.73-2.86l.45.05a4.36,4.36,0,0,1,1.17-2.24c.51-.75,1-1.48.71-2.21.65-.23.25.49.39.71.4-.26.26-1.42,1-1.32.15.14-.3.6,0,.48.52,0,0-.61.6-.61-.41-.14-.28-1,0-1.51-.08.07-.08.07-.14.07-.29-.14,0-.41.13-.61a.16.16,0,0,1,0,.13A63,63,0,0,1,47.08,6.2c0,.21,0,.41,0,.61a2.49,2.49,0,0,1,.72-1.23v.07c.94-.39-.12-1.08.82-1.27v.14a3.51,3.51,0,0,1,.85-1A1.78,1.78,0,0,0,50,2.43c.53-.57.79-.36,1.28-.72a.74.74,0,0,0-.18-.8L51,1.09c-.44.06-.1-.54-.12-.88-.63,0-1.43-.48-2.33,0-.07.64-1.1.16-1.3.81.54.69-.91.64-.58,1.49-.32-.53-.61.51-.87-.23-.5,0-.22,1.36-.9,1.54-.06-.13-.18-.17-.18-.3,0,.73-.55.21-.78.64l.49.26c.06.26-.3.12-.31.31.14-.08.49-.2.61,0a1.26,1.26,0,0,1-.08.73.44.44,0,0,1-.17-.43s-.33.43-.57.32c-.05-.25.08-.46-.1-.76-.51.5-.18,0-.74,0,.61.26-.08.65-.16,1.05-.24-.11.07-.27,0-.45-1.35,0-.41,1-1.11,1.65a.39.39,0,0,1,0-.26c-.08.47-.77.36-.62.8-.34.26-.65-.36-1,.15.65.25-.54.52,0,1l-.62.14c.06.58,1,.64.57,1.36-.7.43-.87-.79-1.45-.68l.19.39-.46.11V9.84c0,.25-.38.49-.55.35s0-.31-.05-.44c0,.51-1.66.46-1.09,1.46-.28,0-.59.36-.8.09.21.46-.77.6-.75,1a.32.32,0,0,0-.52.12c.32-.08.33.17.38.5-.42-.06-.7.69-1.2.35-.07.49.32.69.54,1-.43-.07-1,.54-1.33,0,.22-.09.67-.33.3-.58-.47.11,0,.25-.22.53-.06-.1-.44-.13-.52-.32a1.12,1.12,0,0,1-.6.49c.53-.08.1.54.47.55V14.3c.36-.38.32.19.58.18-.59.72,0,1.09-.45,1.93a4.18,4.18,0,0,0-.63.12c.2-.21-.23-.63-.44-.61-.05.69-.88.3-1.26.47.36-.11.47.31.46.5-.42.81-.4,0-.85.05-.94.89-2.11.67-2.68,1.62l.71.17-.17-.52c.55.1.63,1,.65,1.4-.15-.12-.62.34-.58-.05l-.38.56c.2.13.48-.19.38.19-.26,0-.86.25-.69-.23-.29.16-.55.54-.32.76-.44.31-.32-.59-.24-.89-.37.19-.57-.22-.55-.41l-.45.37c0-.19-.09-.37-.06-.56-.42,0-.34.67-.84.47l.11.45a6.2,6.2,0,0,0-1.88.57l.31.2c-.36.87-.73-.19-1.47.49-.4.44-.65.75-.35,1.18-.2.32-.41.07-.63,0-.09.36-.36,1.08-.86,1a3.68,3.68,0,0,1,.51-.66c-.29-.44-.83.27-1.31.22-.15.34-.75,1.34-1.08,1.93a1.18,1.18,0,0,1,.24,1.48c-.05-.33-.74-.06-1.13-.15,0-.35-1-.45-.36-.82.25.07.49.45.7.2A3.23,3.23,0,0,0,16,25.29a.58.58,0,0,1,.34-.54C16.3,24.93,16.4,25,16.47,25.11Z"/><path class="cls-1" d="M50.12,73.15l0-.08,0,.15S50.09,73.15,50.12,73.15Z"/><path class="cls-1" d="M3.16,35a.5.5,0,0,0,.27.16A.84.84,0,0,0,3.16,35Z"/><path class="cls-1" d="M13.47,46.11a.75.75,0,0,1,.07-.12A.19.19,0,0,0,13.47,46.11Z"/><path class="cls-1" d="M47.57,75.89l-.2-.09C47.41,75.86,47.48,75.85,47.57,75.89Z"/><path class="cls-1" d="M6.85,36.13l.13,0S6.93,36.08,6.85,36.13Z"/><path class="cls-1" d="M6.73,35.67h0Z"/><path class="cls-1" d="M48.54,36.25a.32.32,0,0,0,.13-.15A.18.18,0,0,0,48.54,36.25Z"/><path class="cls-1" d="M39.87,44.8l0-.14A.52.52,0,0,0,39.87,44.8Z"/><path class="cls-1" d="M8.32,35.92l-.06,0C8.25,36,8.3,36,8.32,35.92Z"/><path class="cls-1" d="M50.5,37s0-.07,0-.12Z"/><path class="cls-1" d="M12.58,38.44l.05,0S12.6,38.41,12.58,38.44Z"/><path class="cls-1" d="M39.21,35.09a.27.27,0,0,0-.07.14S39.2,35.16,39.21,35.09Z"/><path class="cls-1" d="M39.06,36.38c.43-.34,0-.76.08-1.15-.11.1-.33,0-.25.32-.14-.82-.67.38-.84-.28,0,.08.09.35-.09.54s-.18-.32-.26-.49c-.09.22-.46.35-.42.24-.17.18.09.8-.15,1.12-.2.52-.36,0-.54.18-.18-.4.23-.24.33-.41l-.61.18c-.14-.29.13-.51.3-.43-.21-.36-.54-.08-.65.35-.13-.11-.22,0-.34-.21.16-.23.23-1,.45-1.1.35.08-.18.57.11.71l.06-.45c.11.27.24-.06.39-.08s0,.16-.09.22c.25,0,.43.25.66-.25-.29-.45-.86.07-1-.46l-.71.57c0,.21.17.57,0,.86,0-.54-.2-.8-.43-.92,0,.59-.44.48-.37,1,.14-.28.15.21.16.26-.24,0-.09.53-.22.55-.42-.17,0-.37-.35-.62a3.79,3.79,0,0,1,.67-1c0-.26-.24,0-.3-.3.1.33-.16.54-.06.69-.36.2-.82.76-1.24.84.18-.85.75-.57.75-1.6-.21.1-.26.52-.4.44-.06-.53-.44-.12-.69-.14l.07.27c-.12.2-.27,0-.37-.06l0-.11-.13.15a.25.25,0,0,1,0-.09c-.16.25-.41-.06-.65.05-.08.42.21.06.31.13s.18.31,0,.58c-.28,0-.57.41-.89.33l.08.14c-.17.27-.27.09-.43.08-.19-.35.34-.53.23-.8.19-.35.27.11.42-.41l0-.61c-.21.32-.22-.24-.32-.18l0,.28c-.13.44-.14.08-.16,0l-.11.66c.12.15.35-.4.37,0-.31.15-.38.69-.71.62.06-.26.09-.08.17-.26s-.31.29-.42,0a.84.84,0,0,0,.35-.71l-.23.46c0-.1,0-.28,0-.3s-.13.5-.26.33a.76.76,0,0,1,.05-.33c-.18-.08-.14.13-.4.29.16.06-.08.79-.29.8-.23-.17-.57.15-.5-.51l-.25.25c.26-.4-.1-.22-.15-.33.18-.49.39.18.71-.6-.13-.14,0-.35.18-.54-.2,0-.3.52-.51.81.08-.2-.28-.2,0-.57-.14-.1-.39.38-.47.24a5,5,0,0,0,.34-.66c-.09.15-.14-.12-.16-.14s-.25.37-.05.3c-.2.36-.33-.14-.47.17.19-.43-.27-.24-.35-.49-.47,1,.48-.24.13.6-.37.24-.72-.31-1.3,0-.23-.35.18-.38.3-.78.37,0,.3.31.63.25a.83.83,0,0,0-1.05-.22c-.33-.1.12-1.16-.4-1.09-.09.34-.14.42-.07.59-.16.07-.23-.1-.34-.15-.16.17.06.33-.18.44a.38.38,0,0,1,0-.41l0,0c-.5.14.07-.91-.53-.42,0,.18.12,0,.16.14a1,1,0,0,1-.6.6c.12-.22-.11-.1-.18-.22.08-.41.3,0,.46-.23l-.26-.18,0,.08-.46.24c.27,0-.08.51-.2.52a.54.54,0,0,1-.18-.74c-.19.41-.45.3-.68.32.15.23-.11.37-.22.49L23,34c.37,0,.07-.41.25-.68s.38-.1.54,0c-.06-.92-.65.24-.81-.24.07-.2.18-.43.3-.33,0-.16-.41.29-.54,0,0,.15,0,.59-.28.69l-.1-.58c-.27-.21-.28.49-.61.64l.06.39c-.17.43-.34-.11-.5.37.14.06.35-.28.47-.08-.1.48-.29.17-.46.39-.27-.31-.2-.3-.33-.75.21-.73.7-.77.95-1.74-.38,0-.95.11-1.09-.24-.38.13-.51.72-.59,1.15-.14,0-.19,0-.24-.16l.21-.2c-.44.13-.72.33-1.1.21-.26.07-.28.54-.32.9l-.25,0v.1c-.17.46-.33.26-.49.2,0-.2.16-.23.18-.36s-.32-.21-.48,0c.05-.2.25-.64.39-.46s0,.13,0,.18l.35-.2c-.39.18-.46-.39-.34-.88-.38.17.15.57-.28.66-.3-1.08-1,.07-1-1.38-.3.24-.68.67-1.06.63-.08.42-.28.12-.34.64.25.6.82-.68,1,.14.2-.16.22-.53.33-.73.15,0,.28.07.24.33-.38.19-.29,1-.71.92,0,.36.34.3.47.42a.83.83,0,0,0,0,.6c-.17.31-.46.55-.63.82.08-.19,0-.32.08-.42l-.52.51a1.14,1.14,0,0,1,0-.8c-.21-.17-.69.32-.58-.3-.32,0,0,.38,0,.57l0,0h.32c-.1.73-.32-.24-.49.44-.28,1.3-.37-.49-.62-.31l.4-.91-.25.17A11.35,11.35,0,0,1,15,33c-.31-.08-.72-.44-.95-.29a2.86,2.86,0,0,1,.06-1c-.41.56-.46-.37-.75-.42-.34.32.24.52,0,1-.05-.25-.24-.08-.33,0,.11-.17.38.2.57.38-.15,0-.2.44-.27.63l.25.13c-.09.58-.33,0-.49.28.15-.51.11-.53.25-1a.48.48,0,0,1-.76-.2c-.09-.23.13-.25.21-.39,0-.37-.26.19-.25-.26s.14,0,.24-.1l-.67-.23c0-.21.2-.26.3-.17-.19-.26-.36-.17-.67.52-.21-.23-.46-.56-.35-.86-.12.12-.07.32-.08.53-.31-.14-.41.61-.59.61l.11.4c-.27-.42-.12.65-.36.32a6.31,6.31,0,0,0,.07-1.32c-.07.41-.22,0-.34,0,.05.41-.27.36-.11.77-.28.32-.38-.24-.6.27.12.14-.25.42-.15.71-.26,0-.42-.47-.33-.91.09,0,.22.22.23-.12l-.48.06a1.25,1.25,0,0,1-.27-.78c-.16.54-.45-.38-.57.25.16-.4.28.15.34.22l-.07.09,0,0L8,33c.19.32,0-.54.32-.52.22.77-.55,1.15-.31,1.62.19.25.17-.48.34-.76l-.05,0L8.68,33a1,1,0,0,1-.11.48c.45,0,.51.42,1,.54,0-.1-.09-.9.13-1s.17.29.29.34c-.08.1-.17.53-.26.24l0,.55c-.39.65-.23,1.2-.71,1.37,0,.41-.39.6-.64.48l.12.37c-.28.7,0-.57-.39,0a5.31,5.31,0,0,1-.18-2.2c-.25-.18-.33.21-.56.21-.13-.6.07-.65,0-1.25a.52.52,0,0,0-.24.67l-.32-.24c0-.13.1-.13.15-.12-.13-.13-.36.17-.42.4,0,0,.1-.13.14,0a1.85,1.85,0,0,0-.37.62c.18-.31.22.37.4,0,0,.16,0,.49-.14.41.17.35.32.29.4.69-.14-.3-.22.14-.25.21s.36,0,.44-.18c0,.68.46-.12.3.58,0-.25.2-.26.29-.09s-.24.45-.33.79c-.45.34,0-.5-.1-.71l-.35,0c0,.1-.13.48.09.44-.1.43-.31.72-.49.4,0,.2.09.16.13.18,0,.19-.23.91,0,1-.08,0,.12-.33,0-.55.11-.08.41.2.3.58.13-.11.37-.4.48-.48,0,.31-.09.13-.14.28l.38-.18-.11-.34c.28.25.47-.57.71-.81,0,.54-.23.59-.39.86.14.65.1-.34.34-.24a1.18,1.18,0,0,1,0,.39l.2-.47a.22.22,0,0,1,0,.21c.34-.58,0-.76.47-1-.26-.29-.25.36-.47.31-.12-.39.28-.7.36-.92.21.14.2,1,.5.53-.21.25,0,.5-.31.51-.16.27.08.24.09.55.08-.09,0-.57.18-.48l0,.08.36-.57c.29.3.75-.6.92,0v-.57a1.77,1.77,0,0,0,.63-.13c-.06.32-.19.34-.34.44.34.13.68-.18,1-.61a2.56,2.56,0,0,0-.31-.68c.32-.77.23.51.58.15a4.36,4.36,0,0,0-.13,1c.16-.36.36-.26.54-.56,0,.55-.17,1-.48,1-.18-.5-.51.3-.66-.17l.08.36c-.24.14-.37,0-.58.27v-.08l-.14.54h.11a2.41,2.41,0,0,1-.42.8c.32-.06.42-.93.61-1.41.29.07.31,1,.54.6,0,.26.12.55,0,.78s-.24-.22-.3.15c.17,0,.08.22.34.18a4,4,0,0,1,.56-1.3.38.38,0,0,1,.61,0c-.2,0-.45.47-.45.83.18-.49.32.45.35-.25.22.07.59.1.53.7-.24.19-.39-.19-.58-.09,0,0,.08.18,0,.32l-.25-.1c.16.32.09.5.35.47,0-.05,0-.15,0-.18s.13,0,.2,0l-.07.55c.22-.23.46.52.85.17l0,.11c.24.15.44-.93.76-1a1.84,1.84,0,0,0-.16.73c.19-.25.18.22.3.39-.11-.35.22-.56.13-.76.09-.54.4-.49.54-.4,0,.72-.55.3-.46,1.06.14.09.25-.3.17-.45a.84.84,0,0,1,.49.72c.33-.48.36-.18.66-.83-.13,0-.25.5-.34.19l.28-.47c.23,0,.3.49.44.6l-.21.18,0-.08c-.11.21-.28,0-.34.43.25-.45.25,0,.52-.25l0,.08c.42-.32.37.91.82,0-.06,0-.08-.4,0-.58,0,.25.24.22.16.51l-.09.08c.16.12.26.2.35.12.14-.33.16-.61.35-.76.27.31-.35.76-.21,1.12l.4-.28,0,.33c.34.45,1-.49,1.48-.33a.84.84,0,0,1-.7.64c0,.5.41-.07.49.32.15.14.44-.28.51-.58.29-.11,0,.36,0,.46.27-.55.48-.24.7-.3l-.11.32.42-.29c-.06-.06.12-.32.19-.52l.06,0c.05-1-.83.38-.77-.71.13-.09.07-.3.2-.39s.07.1,0,.23c.14-.25.34-.44.18-.47.24-.68.5-.39.81-.54,0,.49-.42.58-.63.86.1,0,.28-.28.33-.07l-.21.5c.39-.17.24-.41.49-.88s.27.13.36.12l-.13.09c.15.29.41-.21.6-.08l-.06.43c-.06-.6-.6.57-.64.25.18.62-.49,1-.76,1.39.19,0,.31.08.28.39.48-.56.36.42.89-.26.08.14-.25.31-.13.37a.74.74,0,0,0,.84,0c.11.07,0,.28-.08.5.44.57,1.26-.46,1.9.2l-.24.21c.13.13.23.29.49,0-.18,1,1-.16.9.88.35.35.68-.38,1.07-.39-.08.2-.33.53-.18.69,1.26.14,2.37.37,3.61.44a.32.32,0,0,1-.14.16c.79.24,1.66-.54,2.22-.17.13-.11.49-.25.43-.64-.13-.06-.09-.53,0-.82.56-.35.17.71.53.62,0,.72-.27.44-.35,1.07l.56-.39c.26.25.58-.12.79.24-.1-.09-.09.53-.24.24,0,0,0-.08,0-.11-.4-.11-.26.32-.65.44a1.32,1.32,0,0,1,1.08-.11c0-.49.25-.19.36-.49v0a.67.67,0,0,1,.27-.4v.63c.13-.08,0-.32.12-.39a.52.52,0,0,1,.79.52c.21,0,.3-.38.51-.28,0,.16-.09.22-.1.3.44.17,1,0,1.42.42a1.5,1.5,0,0,0,.94-.6c-.1,0-.36-.13-.15-.47s.25-.14.41-.24c-.07.32.34.34,0,.54,0,.72.64-.08.57.62.09-.2.5,0,.69-.4,0,.31-.25.19-.27.4l.2-.08,0,.21c.35.21.5-.64.72-.75v.08l.16-.1-.23.55c.24-.06.41-.55.68-.64v.18l.17-.18a.21.21,0,0,0,0,.16c.2-.52.51-.28.69-.72.1.09.12.76.3.32l-.09.66c-.35,0-.08-.48-.47-.27.19.88,1,.86,1.46.84.44-.4,1,.37,1.31-.6l-.08.4.65.4c.59-.11,1.16.25,1.65-.25l.09.35c.56-1.1,1.59-.33,2-1.67.23.33-.12.52-.17.76.18.13.58-.74.7-.1,0,.21-.28.17-.17.31.1.4.23-.37.35.08a1,1,0,0,1,.57-.91s0,0-.06-.07c0-.32.16-.23.26-.27a.24.24,0,0,1,0,.11,5.63,5.63,0,0,1,3.86,0l-.26.27c.21-.2.51,0,.61.08l0,0c.28.66.44-.58.63.17l-.06.06c.41,0,.58.72,1,.4.29.27.23.6.41.91.19,0,.31-.38.33-.46l-.09,0c-.06-.38.22-.29.37-.44a6,6,0,0,0-.21-2.13c-.29.17-.17-1-.49-.9-.24.76-.37-.62-.71,0,.19-.52-.3-.32,0-.88-.07-.44-.63.4-.8-.13,0-.11,0-.24.11-.3-.33.28-.17-.39-.4-.41l0,.55c-.1.17-.09-.22-.18-.13a.65.65,0,0,1,.07.56c-.11.12-.22.29-.33.28a.52.52,0,0,1,.17-.36.35.35,0,0,1-.24-.33c.11-.17.22-.16.33-.46-.31-.19,0-.18-.13-.63,0,.65-.3.25-.49.38,0-.26.13-.07.19-.26-.22-1.17-.51.15-.91-.14a.38.38,0,0,1,.11-.17c-.22.16-.3-.45-.46-.09-.18-.13,0-.73-.26-.74,0,.67-.34-.16-.41.55l-.19-.44c-.23.37-.06,1.2-.45,1.23-.33-.29.14-1.16,0-1.55l-.12.38-.15-.29,0,0c-.12.12-.3,0-.28-.22s.15-.15.18-.31c-.21.34-.59-1-.87,0-.09-.2-.3-.21-.24-.55-.13.46-.44-.19-.61.1,0-.16-.07-.43-.19-.32.13.2,0,.37-.1.62-.09-.35-.46-.1-.46-.67a2.71,2.71,0,0,0-.26,1.11c-.09-.35-.49-.32-.36-1,.1.09.32.24.32-.2-.18-.26-.11.17-.28.22,0-.11-.07-.41,0-.59a.31.31,0,0,1-.37-.08c.19.31-.18.44-.07.71l.25-.45c.25,0,0,.36.1.53-.46.09-.43.77-.87,1a1.75,1.75,0,0,0-.23-.34c.14,0,.17-.62.1-.74-.28.48-.38-.36-.56-.49.15.16,0,.54,0,.68-.43.32-.13-.24-.28-.53-.62,0-.93-.81-1.46-.45l.18.58.12-.52a2.61,2.61,0,0,1-.28,1.5c0-.18-.32-.11-.17-.39l-.31.2c0,.23.22.15.06.38-.08-.17-.37-.31-.15-.6-.16,0-.37.13-.37.44-.25,0,.09-.67.22-.87-.19-.05-.12-.5,0-.64l-.28,0c.07-.14.09-.35.16-.49-.16-.21-.34.36-.46-.09l-.11.43c-.46-.4-.41-.46-.87-.56l.05.34c-.41.55-.21-.55-.71-.35a.81.81,0,0,0-.48.83c-.18.18-.18-.14-.23-.34-.15.28-.46.8-.62.45a1.66,1.66,0,0,1,.39-.34c0-.52-.4-.15-.58-.41-.16.23-.67.82-1,1.25a2.26,2.26,0,0,1-.29,1.45c.06-.32-.28-.35-.41-.6.11-.29-.27-.79.07-.89.08.17.08.62.22.47a3,3,0,0,0-.4-1c0-.16.16-.36.27-.35A.69.69,0,0,0,39.06,36.38Z"/><path class="cls-1" d="M8.32,35.92l0,0,0-.12A.12.12,0,0,1,8.32,35.92Z"/><path class="cls-1" d="M32.68,35.5a.53.53,0,0,0-.07.15A.35.35,0,0,0,32.68,35.5Z"/><path class="cls-1" d="M29.17,34.8l-.05.13A.59.59,0,0,0,29.17,34.8Z"/><path class="cls-1" d="M8.08,32.23l.09-.1S8.12,32.18,8.08,32.23Z"/></g></svg>