<svg xmlns="http://www.w3.org/2000/svg" viewBox="0 0 78.22 14.07"><defs><style>.a{fill:#231f20;stroke:#231f20;stroke-linejoin:round;stroke-width:0.25px;}</style></defs><title>icons</title><path class="a" d="M1.81,5.54l-.36.17-.37.15A1.12,1.12,0,0,1,.86,6,.32.32,0,0,1,.73,6S.62,6,.62,5.94s.05-.05.11-.08a.21.21,0,0,1,.09-.05A.28.28,0,0,0,1,5.72a1.85,1.85,0,0,1,.32-.16l.53-.23c.1,0,.12,0,.22-.09A8.21,8.21,0,0,1,3,4.79a1.89,1.89,0,0,1,.54-.17.5.5,0,0,1,.29.09A.31.31,0,0,1,4,5a.83.83,0,0,1-.09.3,1.55,1.55,0,0,1-.08.23c0,.06-.05.23-.11.34s-.13.17-.17.27a2.89,2.89,0,0,1-.22.59.47.47,0,0,0-.07.12l.3-.13L4,6.52l.07,0h0s0,0,.07-.06a6.27,6.27,0,0,0,.71-.28s.1,0,.21-.09l.1,0a1,1,0,0,0,.19-.11.5.5,0,0,1,.13,0,.09.09,0,0,1,.06,0l0,0s0,.06,0,.06l-.25.13-.18.08a1.8,1.8,0,0,1-.34.16,2.44,2.44,0,0,0-.3.11l-.19.08a1,1,0,0,1-.23.08c-.16.07-.37.14-.53.22a2.42,2.42,0,0,1-.46.18,3.26,3.26,0,0,1-.29.57c-.1.08,0,.09-.12.2s-.07.22-.29.44-.28.34-.36.42-.05.08-.14.1-.15.14-.17.17a3.58,3.58,0,0,1-.39.29.87.87,0,0,1-.44.11.93.93,0,0,1-.41-.08C.42,9.23.25,9.1.25,9s.28-.47.39-.54a.85.85,0,0,0,.15-.18,2.11,2.11,0,0,1,.43-.34,1.7,1.7,0,0,0,.24-.14,1.54,1.54,0,0,1,.31-.22,1.13,1.13,0,0,0,.29-.15c.15-.08.3-.13.49-.23s.25-.6.3-.71A2.36,2.36,0,0,1,3,6.13S3,6,3.1,5.94s0-.15.09-.31c0,0,0,0,0,0a1.94,1.94,0,0,0,.12-.43C3.32,5,3.26,5,3.19,5a1.79,1.79,0,0,0-.87.29C2.22,5.34,1.89,5.48,1.81,5.54Zm.6,1.84-.26.13c-.11.07-.2.11-.32.2a1.44,1.44,0,0,0-.34.21c-.08.06-.18.09-.2.18s-.17.07-.25.15-.11.1-.12.15-.06.15-.2.27A.45.45,0,0,0,.57,9a.13.13,0,0,0,0,.08.13.13,0,0,0,.12,0H.85c.17,0,.22-.12.3-.16s.22-.17.27-.21l.25-.27c.06-.07.1-.15.16-.16s.06-.07.09-.15.06-.09.14-.22a3,3,0,0,1,.17-.26S2.35,7.44,2.41,7.38ZM4.15,2.92A.45.45,0,0,1,4.44,3a.59.59,0,0,1,.14.22s0,0,0,0a.24.24,0,0,1-.21.24l-.21,0c-.1,0-.27-.06-.27-.17S4,3.15,4,3.08A.17.17,0,0,1,4.15,2.92Z"/><path class="a" d="M12,6.16a2,2,0,0,1,.24-.11l.26-.13a.25.25,0,0,1,.12,0l.07,0a.07.07,0,0,1,0,.06s-.06.06-.07.07l-.31.15a3.47,3.47,0,0,0-.36.15c-.07,0-.3,0-.32.09a1.1,1.1,0,0,1-.4.07l-.34,0a2.7,2.7,0,0,1-.41,0c-.08,0-.18-.11-.26-.15A1.11,1.11,0,0,1,10,6a1.78,1.78,0,0,1-.09-.31s0,0,0,0a.36.36,0,0,0-.14.09c-.09.07-.15.18-.26.23a.53.53,0,0,0-.21.11c-.12.07-.16.19-.3.29a2.19,2.19,0,0,1-.35.24c-.13.07-.33.08-.49.15L8,6.83a1.16,1.16,0,0,1-.28,0c-.13,0-.28-.17-.28-.29a1.16,1.16,0,0,1,.09-.41c.08-.08.09-.25.16-.34a3.47,3.47,0,0,0,.21-.37A.87.87,0,0,0,8,5.13c0-.07,0-.09-.12-.09a3.05,3.05,0,0,0-.71.25c-.09.06-.43.19-.52.25a3.67,3.67,0,0,1-.36.17L5.66,6A.32.32,0,0,1,5.53,6a.12.12,0,0,1-.11-.08s0-.05.11-.08a.16.16,0,0,1,.09-.05.34.34,0,0,0,.2-.09,1.85,1.85,0,0,1,.32-.16l.25-.12a1.83,1.83,0,0,0,.26-.11c.11-.06.14,0,.22-.09s.84-.41,1-.47a1.83,1.83,0,0,1,.45-.15.44.44,0,0,1,.31.09.21.21,0,0,1,.1.19.23.23,0,0,1,0,.14,1.42,1.42,0,0,1-.15.34c-.07.1-.12.31-.17.39a1.11,1.11,0,0,0-.15.34.94.94,0,0,0-.09.31.14.14,0,0,0,.15.13l.09,0a2.26,2.26,0,0,0,.26-.17A4.47,4.47,0,0,0,9,6c.11-.08.13-.14.2-.14s.09-.07.14-.13.11-.07.18-.14.15-.12.25-.22.17-.17.24-.26.19-.16.25-.23a.24.24,0,0,1,.2-.09h.06c.1,0,.18.06.18.13a.43.43,0,0,1-.08.28.76.76,0,0,0-.07.33c0,.07,0,.17,0,.31a.46.46,0,0,0,.14.25.62.62,0,0,0,.3.11,1.46,1.46,0,0,0,.34,0,2.3,2.3,0,0,0,.4-.08C11.88,6.18,11.94,6.2,12,6.16Z"/><path class="a" d="M14.93,6.75a1.34,1.34,0,0,1-.35.31.48.48,0,0,1-.27.15,1,1,0,0,1-.37,0,.78.78,0,0,1-.33-.07c-.15-.08-.19-.07-.23-.21a.44.44,0,0,1,0-.15.12.12,0,0,1,.05-.1.71.71,0,0,1,.29-.14,3.62,3.62,0,0,1,.41-.09l.28,0,.13,0a1.53,1.53,0,0,1,0-.39.68.68,0,0,0,0-.21,4.73,4.73,0,0,1-.07-.52s0-.11,0-.17l-.19.12c-.09.06-.43.19-.51.25a3.73,3.73,0,0,1-.37.17L12.71,6a.26.26,0,0,1-.13.06.13.13,0,0,1-.11-.08s0-.05.11-.08a.16.16,0,0,1,.09-.05c.09,0,.2-.06.2-.09a1.85,1.85,0,0,1,.32-.16l.26-.12a1.74,1.74,0,0,0,.25-.11c.11-.06.14,0,.23-.09s.23-.14.41-.25a2.5,2.5,0,0,1,0-.25.47.47,0,0,1,0-.16c0-.11.11-.23.11-.27s.07-.23.23-.38a1.18,1.18,0,0,1,.61-.23c.09,0,.18.11.2.15a.4.4,0,0,1,.07.19.39.39,0,0,1,0,.14.47.47,0,0,1-.12.18c-.06.07-.09.16-.14.21a1.24,1.24,0,0,0-.26.19.36.36,0,0,1-.09.08,1.84,1.84,0,0,0,.09.61c.05.09.05.17.05.61a1.23,1.23,0,0,1,0,.33h.17l.29,0c.1,0,.2,0,.3-.06s.31,0,.36-.08.17,0,.23-.07a.71.71,0,0,0,.19-.06L16.79,6s.09,0,.12-.07a.42.42,0,0,1,.12,0,.09.09,0,0,1,.07,0s0,0,0,0a.06.06,0,0,1-.05.06l-.17.09s-.15,0-.19.06a1.31,1.31,0,0,1-.5.18l-.26,0a.77.77,0,0,0-.22.06,2.94,2.94,0,0,1-.76.13A.8.8,0,0,1,14.93,6.75Zm-.47-.09a2.38,2.38,0,0,0-.84.16.13.13,0,0,0,0,.07s0,0,0,.07A1,1,0,0,0,14,7a.45.45,0,0,0,.33-.14A1,1,0,0,0,14.46,6.66Zm.45-2.08c.13-.11.24-.22.27-.25A.53.53,0,0,0,15.32,4s0,0-.05,0a.27.27,0,0,0-.14,0,.81.81,0,0,0-.2.32A1,1,0,0,0,14.91,4.58Z"/><path class="a" d="M17.75,5.71,17.17,6A.37.37,0,0,1,17,6a.13.13,0,0,1-.11-.08s0-.05.11-.08a.16.16,0,0,1,.09-.05.34.34,0,0,0,.21-.09,1.3,1.3,0,0,1,.32-.16l.25-.12a.91.91,0,0,0,.25-.11c.12,0,.14,0,.23-.09l.34-.18,0-.08a2.61,2.61,0,0,0,.2-.3c.05-.1.14-.18.18-.25a1.71,1.71,0,0,1,.14-.26l-.16,0H19a.33.33,0,0,0-.22.08.46.46,0,0,1-.23,0c-.07,0-.2,0-.2-.12s.19-.23.3-.23.21,0,.35,0h.4s.06-.11.1-.15a1.2,1.2,0,0,0,.24-.28,1.14,1.14,0,0,1,.19-.23,1,1,0,0,1,.35-.21A.87.87,0,0,1,20.5,3h.05c.09,0,.17.06.17.12a.22.22,0,0,1-.14.17,1.07,1.07,0,0,0-.26.26c-.08.11-.14.19-.21.27s-.05.07-.07.15c.25-.05.46-.11.53-.11h.36a0,0,0,0,1,.05,0,.14.14,0,0,1-.06.11L20.8,4h-.1a.38.38,0,0,0-.18,0l-.6.08c0,.07,0,.1-.14.2a1.23,1.23,0,0,0-.21.33c-.06.11-.26.52-.35.64s-.15.45-.23.57a.94.94,0,0,0-.12.43.49.49,0,0,0,0,.11c0,.08.11.16.23.16s.23,0,.33,0a2.83,2.83,0,0,0,.3-.08c.09,0,.21,0,.3-.08s.3-.11.34-.14a1.72,1.72,0,0,1,.21-.07.88.88,0,0,1,.14-.08L21,5.92a.25.25,0,0,1,.12,0,.11.11,0,0,1,.1.08.06.06,0,0,1,0,.06,1.46,1.46,0,0,1-.18.09l-.12.09c-.11.08-.25.07-.38.15a1.13,1.13,0,0,1-.2.09L20,6.5c-.06.08-.34.11-.44.16a3.3,3.3,0,0,1-.45.11c-.11,0-.16.1-.36.11a.76.76,0,0,1-.46-.15.53.53,0,0,1-.07-.32,1.3,1.3,0,0,1,.11-.47,1.18,1.18,0,0,0,.11-.27,2.52,2.52,0,0,0,.14-.38c-.09.06-.43.19-.51.25Z"/><path class="a" d="M27,7a1.46,1.46,0,0,1-.39.16,2.14,2.14,0,0,1-.47.07.47.47,0,0,1-.47-.53,3,3,0,0,1,.11-.61,3.18,3.18,0,0,1,.28-.6L26,5.51a1.76,1.76,0,0,1-.35.16l-.37.16a1.12,1.12,0,0,1-.22.09A.5.5,0,0,1,25,6a.13.13,0,0,1-.12-.06s.05-.06.12-.09A.12.12,0,0,1,25,5.77a.59.59,0,0,0,.22-.09l.32-.16.25-.11a2.78,2.78,0,0,0,.26-.12.35.35,0,0,0,.14-.06,3.38,3.38,0,0,1,.44-.78A4.4,4.4,0,0,1,27,4a4,4,0,0,1,.32-.43,1.33,1.33,0,0,1,.31-.26c.09,0,.16-.27.32-.38s.25-.27.37-.31.24-.22.41-.33a1.16,1.16,0,0,1,.56-.22c.15,0,.32.06.32.19a.56.56,0,0,1,0,.23,1.32,1.32,0,0,1-.15.29l-.18.26-.2.23c-.07.07-.11.16-.22.22s-.11.13-.19.18-.25.27-.34.34a1.74,1.74,0,0,1-.22.19,2.23,2.23,0,0,1-.22.21,1.16,1.16,0,0,0-.24.18,3.11,3.11,0,0,1-.4.26L27,5c-.11.19-.23.39-.29.51a4.74,4.74,0,0,0-.18.52,1.09,1.09,0,0,1-.09.33.65.65,0,0,0-.07.36c0,.07.06.14.23.14a1.47,1.47,0,0,0,.26,0l.33-.09c.11,0,.23-.16.35-.17a.63.63,0,0,0,.26-.12,2,2,0,0,0,.29-.12c.05,0,.3-.1.35-.13a1.89,1.89,0,0,1,.21-.09L28.74,6A1.41,1.41,0,0,0,29,5.89a.14.14,0,0,1,.11,0s.1,0,.1.06a.13.13,0,0,1,0,.07c-.07.09-.21.09-.3.16s-.24.09-.37.18a.6.6,0,0,1-.21.08c-.11,0-.2,0-.22.08a1.57,1.57,0,0,1-.39.18C27.57,6.71,27.15,6.89,27,7Zm.31-2.37a2.79,2.79,0,0,0,.25-.17.87.87,0,0,1,.24-.23c.07-.05.21-.18.25-.2s.06-.07.16-.19.21-.2.31-.31.12-.18.2-.22.12-.14.17-.2a2.13,2.13,0,0,0,.22-.27.4.4,0,0,0,.08-.2s0-.07-.1-.07-.18.1-.26.18-.17.21-.22.21-.12.11-.19.17a.88.88,0,0,1-.21.23c-.1.08-.25.3-.33.36a3.38,3.38,0,0,1-.31.34,1.32,1.32,0,0,0-.26.35c0,.06-.11.19-.23.37A1.15,1.15,0,0,0,27.35,4.59Z"/><path class="a" d="M32,6.79c-.05.06-.17,0-.27.08h-.17l-.3,0a.66.66,0,0,1-.3-.2.56.56,0,0,1-.13-.3c0-.06,0-.11,0-.16a.42.42,0,0,1,0-.2c.06-.09.14-.33.21-.36a.67.67,0,0,0,.12-.16s.1-.14.14-.21a.27.27,0,0,0,.06-.14.08.08,0,0,0-.08-.08,1.06,1.06,0,0,0-.34.1c-.12.06-.26.1-.34.14s-.43.19-.51.25-.3.15-.37.17L29.19,6a.32.32,0,0,1-.13.06A.13.13,0,0,1,29,5.94s0-.05.11-.08a.16.16,0,0,1,.09-.05.34.34,0,0,0,.2-.09,1.85,1.85,0,0,1,.32-.16,5.54,5.54,0,0,0,.51-.23c.11-.06.14,0,.23-.09s.24-.15.45-.25l.47-.22a.9.9,0,0,1,.47-.15.48.48,0,0,1,.29.09.29.29,0,0,1,.12.26c0,.18-.24.36-.24.44s-.07.14-.15.23a.86.86,0,0,0-.2.27,1.44,1.44,0,0,0-.14.55c0,.1.14.16.21.16h.18a.33.33,0,0,0,.15,0,2,2,0,0,0,.29-.1,1.12,1.12,0,0,0,.31-.08c.09,0,.2,0,.29-.08s.3-.11.35-.14a1.29,1.29,0,0,1,.21-.07l.13-.08c.06,0,.13-.08.23-.13a.65.65,0,0,1,.13,0,.09.09,0,0,1,.09.08S34,6,34,6l-.3.18c-.11.09-.24.07-.38.15a1,1,0,0,1-.21.09c-.11,0-.2,0-.22.06s-.33.11-.43.16S32.07,6.74,32,6.79ZM33.08,3a.21.21,0,0,1-.07.19l-.22.08a.65.65,0,0,1-.19,0c-.08,0-.2-.07-.21-.12A.42.42,0,0,1,32.45,3s0-.09.1-.1.2-.11.31-.11A.2.2,0,0,1,33.08,3Z"/><path class="a" d="M35.58,4.91a1.17,1.17,0,0,1,.2-.38A3.12,3.12,0,0,0,36.1,4a2.65,2.65,0,0,1,.24-.35.76.76,0,0,1,.16-.23c.06,0,.14-.19.2-.28l.18-.19A.24.24,0,0,0,37,2.75a3.23,3.23,0,0,1,.49-.43c.14-.12.31-.15.51-.3a.71.71,0,0,1,.33-.09.75.75,0,0,1,.24,0,.55.55,0,0,1,.09.29,1.15,1.15,0,0,1-.12.32c-.06.09-.11.23-.19.39a1.51,1.51,0,0,1-.18.28c0,.06-.21.22-.23.26s-.11.16-.15.17a.61.61,0,0,0-.18.2,2.09,2.09,0,0,1-.3.29L37,4.4a2.39,2.39,0,0,1-.36.29,3.28,3.28,0,0,1-.51.3c-.16.35-.2.44-.26.55a1.36,1.36,0,0,0-.22.6s0,0,0,0a.32.32,0,0,0,.13-.07C36,6,36,6.06,36.05,6s.13-.14.19-.16.08-.06.15-.13.21-.19.3-.27.19-.18.26-.24.22-.11.31-.21a.41.41,0,0,1,.2-.21,3,3,0,0,0,.37-.22.47.47,0,0,1,.27-.06.45.45,0,0,1,.37.41.94.94,0,0,1-.2.4.72.72,0,0,1-.28.19.51.51,0,0,1-.24.17c-.13,0-.24.12-.36.15s-.22.07-.22.13.1.14.17.18a1.38,1.38,0,0,0,.28.1s0,0,.14,0,.15,0,.26,0h.09l.23,0,.29,0a.54.54,0,0,0,.22-.05l.1,0,.4-.14a1,1,0,0,0,.19-.11.5.5,0,0,1,.13,0s.06,0,.06.08-.06.06-.12.1h0a3.22,3.22,0,0,1-.53.26l-.61.17c-.1,0-.3,0-.56,0s-.38,0-.47,0-.14-.07-.25-.1a1.11,1.11,0,0,1-.38-.19c-.08-.06-.11-.1-.11-.17a.3.3,0,0,1,0-.14c.09-.16.21-.09.32-.14a1.34,1.34,0,0,0,.24-.12c.06,0,.09-.11.16-.15s.13-.11.21-.15,0-.1.14-.22a.36.36,0,0,0,.1-.21.13.13,0,0,0-.12-.13.35.35,0,0,0-.16.07c-.11.09-.17.15-.26.21l-.27.2c-.07,0-.14.07-.15.13a.56.56,0,0,1-.22.23c-.08.06-.15.18-.23.2s0,.08-.15.17-.41.33-.42.36-.23.17-.31.25-.22.22-.3.22a.26.26,0,0,1-.2-.08A.88.88,0,0,1,35,6.46a1.7,1.7,0,0,1,.2-.57c.05-.16.12-.42.14-.51L35,5.54l-.35.17-.37.15-.22.1A.52.52,0,0,1,34,6a.14.14,0,0,1-.12-.08s.06-.05.12-.08a.16.16,0,0,1,.09-.05.41.41,0,0,0,.21-.09,1.66,1.66,0,0,1,.38-.18c.26-.11.35-.17.44-.21s.3-.12.38-.18A1.72,1.72,0,0,0,35.58,4.91Zm1-.37a2.31,2.31,0,0,1,.29-.24c.13-.09.22-.19.31-.26s.18-.18.26-.26a5,5,0,0,1,.33-.41A2,2,0,0,0,38,3.08c.07-.09.09-.16.14-.2a1.94,1.94,0,0,0,.1-.24,1.77,1.77,0,0,0,.08-.25.19.19,0,0,0-.08-.12s-.13.07-.18.11-.15.18-.24.2-.05.12-.19.23a3.85,3.85,0,0,0-.4.43,1.37,1.37,0,0,0-.22.22s0,.1,0,.11a1.33,1.33,0,0,0-.16.26c0,.08-.13.17-.18.27a5.59,5.59,0,0,1-.37.66A1.08,1.08,0,0,0,36.56,4.54Z"/><path class="a" d="M42.21,6.87h-.1a2.41,2.41,0,0,1-.5-.07.64.64,0,0,1-.31-.21c-.07-.1-.21-.24-.21-.35s0-.25,0-.34,0-.1,0-.23a.89.89,0,0,1,.23-.44c-.2.11-.53.24-.62.3l-.35.17c-.09,0-.26.1-.37.16L39.79,6a.84.84,0,0,1-.14.06c-.06,0-.11,0-.11-.08s.05-.05.11-.08.06,0,.1-.05a.41.41,0,0,0,.2-.09,2.22,2.22,0,0,1,.32-.16,1.13,1.13,0,0,0,.25-.12c.06,0,.17-.07.25-.11s.13,0,.23-.09.64-.35.85-.45a6.4,6.4,0,0,1,.6-.27.71.71,0,0,1,.26,0,.73.73,0,0,1,.22,0,.3.3,0,0,1,.14.28.49.49,0,0,1-.14.3,1.85,1.85,0,0,1-.41.38,3.82,3.82,0,0,1-.48.29,1.42,1.42,0,0,1-.34.15s0,.1,0,.16a1,1,0,0,0,.16.36c.07.07.16.08.2.11a1,1,0,0,0,.29,0,1.35,1.35,0,0,0,.48,0,1.9,1.9,0,0,0,.32-.09c.1,0,.21,0,.3-.08a2.83,2.83,0,0,1,.35-.14A1,1,0,0,1,44,6.13l.13-.08L44.29,6l.11-.08a.35.35,0,0,1,.11,0,.13.13,0,0,1,.08,0,.06.06,0,0,1,0,0s0,.06,0,.06l-.18.09s-.1.06-.12.09-.24.07-.37.15a1.28,1.28,0,0,1-.22.09l-.22.06c0,.08-.32.15-.43.18A3.14,3.14,0,0,1,42.21,6.87Zm-.48-1.15a1.69,1.69,0,0,0,.3-.13,2.89,2.89,0,0,1,.31-.22l.29-.32a.4.4,0,0,0,.07-.21.08.08,0,0,0-.09-.07.31.31,0,0,0-.13.05,3.34,3.34,0,0,0-.29.24,1.61,1.61,0,0,0-.42.56A.34.34,0,0,0,41.73,5.72Z"/><path class="a" d="M56.48,6.05A.53.53,0,0,0,56.61,6a.28.28,0,0,0,.11-.07.33.33,0,0,1,.13,0,.11.11,0,0,1,.07,0,.09.09,0,0,1,0,0,.06.06,0,0,1,0,.06l-.38.21a4,4,0,0,1-.53.19,2.06,2.06,0,0,1-.82.13l-.22,0a1.59,1.59,0,0,1-.43-.16.75.75,0,0,1-.3-.28.88.88,0,0,1-.07-.38c0-.06,0-.15,0-.23a.34.34,0,0,0,0-.15c0-.06,0-.09-.08-.09s-.11,0-.17.09a1.66,1.66,0,0,0-.23.16,2,2,0,0,1-.24.19,2.13,2.13,0,0,1-.27.22c-.08.05,0,.05-.17.16s-.1.19-.2.29a.52.52,0,0,1-.29.14c-.07,0-.25,0-.25-.15A1.39,1.39,0,0,1,52.34,6a1.55,1.55,0,0,1,.14-.32,3.24,3.24,0,0,1,.19-.52.19.19,0,0,0,0-.09.14.14,0,0,0-.05-.11h0a.26.26,0,0,0-.15.06.92.92,0,0,0-.2.14c-.1.09-.19.09-.27.19a.67.67,0,0,1-.15.14.57.57,0,0,0-.21.2c-.09.09-.18.11-.26.2l-.29.25c-.09.09-.29.2-.36.28s-.19.17-.25.23-.13.14-.19.14-.24,0-.28-.08A.23.23,0,0,1,50,6.53a.09.09,0,0,1,0,0c0-.09,0-.17.15-.26s.14-.28.19-.34.15-.15.16-.23.25-.28.25-.53c0-.06-.06-.1-.17-.1a1,1,0,0,0-.35.14c-.18.11-.27.13-.31.16s-.42.16-.51.22a3.67,3.67,0,0,1-.36.17l-.36.16L48.43,6A.22.22,0,0,1,48.3,6a.12.12,0,0,1-.11-.08s0,0,.11-.08.06-.05.09-.05a.52.52,0,0,0,.2-.09,3.06,3.06,0,0,1,.32-.16,1.47,1.47,0,0,0,.25-.12,1.56,1.56,0,0,0,.26-.11c.11-.06.13,0,.22-.09s.49-.29.69-.38a1.71,1.71,0,0,1,.61-.22.48.48,0,0,1,.26.07.32.32,0,0,1,.15.28,1.47,1.47,0,0,1-.15.55.84.84,0,0,0-.08.21h0a.25.25,0,0,0,.16-.07,2.06,2.06,0,0,1,.25-.26c.06,0,.14-.16.19-.17A.83.83,0,0,0,52,5.12c.06-.06.24-.17.29-.22s.23-.18.29-.24a.71.71,0,0,1,.3-.1.51.51,0,0,1,.37.23.57.57,0,0,1,.06.24.38.38,0,0,1,0,.17c-.08.16,0,.18-.14.32a.58.58,0,0,0-.05.17l.18-.1a1.57,1.57,0,0,1,.25-.2c.1-.08.17-.16.23-.16s0-.05.11-.09a.93.93,0,0,1,.44-.2.47.47,0,0,1,.35.12.63.63,0,0,1,.18.37c0,.05,0,.29.06.39s.07.23.13.26.13.12.2.15a1,1,0,0,0,.31.08A1.55,1.55,0,0,0,56,6.23l.19-.05C56.24,6.14,56.38,6.11,56.48,6.05Z"/><path class="a" d="M57,6,56.85,6c-.06,0-.12,0-.12-.08s.06-.05.12-.08.06,0,.09-.05a.37.37,0,0,0,.2-.09,1.55,1.55,0,0,1,.36-.18c.28-.11.38-.17.47-.21s.13,0,.22-.09a2.09,2.09,0,0,0,.27-.1L58.71,5c.39-.18.59-.24.77-.31s.26-.15.41-.15.17-.09.28-.09h.14l0,0s.14,0,.25,0a.51.51,0,0,1,.32.14.54.54,0,0,1,.18.36.4.4,0,0,1-.07.29c0,.08-.13.17-.22.17s-.08-.06-.08-.11A.65.65,0,0,1,60.88,5a.12.12,0,0,0,0-.07.25.25,0,0,0-.09-.21.34.34,0,0,0-.24-.09h-.08a1.84,1.84,0,0,0-.43.16c-.21.1-.33.23-.51.3a2.16,2.16,0,0,0-.52.43,1.5,1.5,0,0,0-.26.36,1.13,1.13,0,0,0-.2.44s0,0,0,.06.06.14.14.14a1.22,1.22,0,0,0,.4-.22c.11-.1.26-.2.39-.32a3,3,0,0,0,.19-.26.56.56,0,0,1,.38-.23.66.66,0,0,1,.22-.08.12.12,0,0,1,.12.12.09.09,0,0,1,0,.05.34.34,0,0,0,0,.09c0,.06,0,.11,0,.16a1,1,0,0,0,.15.44,1.1,1.1,0,0,0,.23.13,1.62,1.62,0,0,0,.4,0,.93.93,0,0,0,.37,0c.1-.06.2,0,.29-.08a2.55,2.55,0,0,1,.35-.14,1,1,0,0,1,.22-.09L62.63,6s.1-.06.14-.09a.31.31,0,0,1,.12,0,.07.07,0,0,1,.06,0A.05.05,0,0,1,63,6L62.91,6a2.44,2.44,0,0,1-.28.14c-.11.06-.23.08-.38.17a.5.5,0,0,1-.2.08c-.12.05-.19.05-.22.07s-.33.11-.43.16a3.3,3.3,0,0,1-.6.07h-.14a1.66,1.66,0,0,1-.47-.07.55.55,0,0,1-.32-.19,3.12,3.12,0,0,0-.21-.26s-.15.1-.28.14a3.2,3.2,0,0,0-.45.3,2.45,2.45,0,0,1-.46.18l-.16,0a.49.49,0,0,1-.18,0,.3.3,0,0,1-.28-.31A1.09,1.09,0,0,1,58,6.07a1.92,1.92,0,0,1,.26-.32.71.71,0,0,0,.19-.23,1.33,1.33,0,0,1,.34-.32,8.78,8.78,0,0,0-.84.34l-.38.18Z"/><path class="a" d="M66.08,7.1c0,.09-.14.2-.17.28s-.09.29-.14.44a3.26,3.26,0,0,1-.2.43,3.35,3.35,0,0,1-.31.44c-.11.1-.17.33-.24.37a.64.64,0,0,0-.29.25,1.87,1.87,0,0,1-.41.4,4.59,4.59,0,0,0-.44.21.83.83,0,0,1-.34.05,1.41,1.41,0,0,1-.45-.17.3.3,0,0,1-.15-.29.81.81,0,0,1,.19-.45c.1-.15.2-.24.29-.36s.35-.33.4-.39a1,1,0,0,1,.26-.23.83.83,0,0,0,.26-.19,1.84,1.84,0,0,1,.44-.35c.19-.1.36-.24.53-.35s.18-.21.27-.37.14-.43.18-.59a.85.85,0,0,0,0-.21.08.08,0,0,0-.07-.08c-.08,0-.13.11-.2.11s-.25.12-.28.18a.76.76,0,0,1-.27.22.82.82,0,0,0-.24.2,1.21,1.21,0,0,1-.59.23c-.19,0-.42-.11-.42-.27a1.24,1.24,0,0,1,.08-.41c0-.12.1-.18.13-.29a1.71,1.71,0,0,1,.26-.34l.25-.28c-.1.07-.42.19-.5.25l-.36.17a1.91,1.91,0,0,1-.37.15L63,6a.37.37,0,0,1-.14.06.13.13,0,0,1-.11-.08s0-.05.11-.08A.16.16,0,0,1,63,5.81a.34.34,0,0,0,.21-.09,1.13,1.13,0,0,1,.32-.16,4.79,4.79,0,0,0,.5-.23c.35-.16.65-.37,1-.53l.22-.06c.14-.06.12-.08.29-.16a1.32,1.32,0,0,1,.74-.22c.21,0,.5.16.5.33a.8.8,0,0,1-.05.23c0,.09-.18.22-.24.22s-.12,0-.12-.13.07-.16.07-.21-.07-.2-.14-.2a.65.65,0,0,0-.32.06,1.5,1.5,0,0,0-.33.23c-.14.08-.18.2-.24.23l-.25.2a2.91,2.91,0,0,0-.43.43,1,1,0,0,0-.26.56c0,.08,0,.14.08.14a2.05,2.05,0,0,0,.36-.22c.13-.06.27-.18.34-.18s.18-.14.25-.19a1.1,1.1,0,0,1,.3-.19.78.78,0,0,1,.33-.12c.09,0,.18.12.24.17a.16.16,0,0,1,.05.14s0,.06,0,.1-.12.46-.12.63,0,.14.11.14a2.48,2.48,0,0,0,.54-.25,1.6,1.6,0,0,0,.3-.13s.29-.13.5-.22,0,0,.13-.08A1.34,1.34,0,0,0,68,6a.4.4,0,0,0,.12-.07.42.42,0,0,1,.12,0,.11.11,0,0,1,.1.08.06.06,0,0,1,0,.06,1.14,1.14,0,0,0-.3.18c-.12.08-.17.07-.31.15a1.13,1.13,0,0,1-.2.09,2,2,0,0,0-.46.21l-.59.25C66.3,7,66.12,7,66.08,7.1Zm-1.2.62c-.12,0-.12.12-.24.18a2.85,2.85,0,0,0-.28.22,2.64,2.64,0,0,0-.66.66.62.62,0,0,0-.2.25,1.35,1.35,0,0,0-.14.3.45.45,0,0,0,0,.16.14.14,0,0,0,0,.11.2.2,0,0,0,.14,0,.31.31,0,0,0,.17,0A1.22,1.22,0,0,0,64,9.4a1.56,1.56,0,0,0,.3-.28,1.33,1.33,0,0,1,.21-.27,1.13,1.13,0,0,0,.22-.32,5.33,5.33,0,0,0,.56-1A2.68,2.68,0,0,0,64.88,7.72Z"/><path class="a" d="M71.16,6.79c0,.06-.16,0-.26.08h-.17l-.31,0a.66.66,0,0,1-.3-.2.56.56,0,0,1-.13-.3V6.2A.42.42,0,0,1,70,6c.06-.09.14-.33.21-.36a1.12,1.12,0,0,0,.13-.16,2.06,2.06,0,0,1,.13-.21.27.27,0,0,0,.06-.14.08.08,0,0,0-.08-.08,1.06,1.06,0,0,0-.34.1c-.12.06-.25.1-.34.14s-.43.19-.51.25l-.36.17L68.33,6A.26.26,0,0,1,68.2,6a.13.13,0,0,1-.11-.08s0-.05.11-.08a.16.16,0,0,1,.09-.05c.09,0,.2-.06.2-.09a1.85,1.85,0,0,1,.32-.16,4.4,4.4,0,0,0,.51-.23c.11-.06.14,0,.23-.09s.24-.15.45-.25l.47-.22A.91.91,0,0,1,71,4.62a.47.47,0,0,1,.28.09.27.27,0,0,1,.12.26c0,.18-.24.36-.24.44s-.07.14-.15.23a1.05,1.05,0,0,0-.2.27,1.43,1.43,0,0,0-.13.55c0,.1.13.16.2.16H71a.33.33,0,0,0,.15,0,2,2,0,0,0,.29-.1,1,1,0,0,0,.31-.08c.09,0,.2,0,.29-.08s.3-.11.35-.14a1.29,1.29,0,0,1,.21-.07l.13-.08c.06,0,.13-.08.24-.13a.42.42,0,0,1,.12,0,.09.09,0,0,1,.09.08s0,.06,0,.06-.2.11-.29.18-.25.07-.38.15a1.65,1.65,0,0,1-.21.09c-.11,0-.21,0-.23.06s-.33.11-.43.16S71.21,6.74,71.16,6.79ZM72.23,3a.21.21,0,0,1-.08.19l-.22.08a.65.65,0,0,1-.19,0c-.08,0-.2-.07-.2-.12a.41.41,0,0,1,0-.19s0-.09.11-.1.19-.11.3-.11A.21.21,0,0,1,72.23,3Z"/><path class="a" d="M76.16,6.75a5,5,0,0,1-.75.16,1.19,1.19,0,0,1-.28,0,1.2,1.2,0,0,1-.35,0,.94.94,0,0,1-.49-.33.43.43,0,0,1-.06-.22.41.41,0,0,1,0-.11,1.44,1.44,0,0,1,.05-.37,1.72,1.72,0,0,1,.28-.43,1.25,1.25,0,0,0,.17-.16c-.15.08-.49.21-.57.27l-.36.17L73.22,6a.26.26,0,0,1-.13.06A.13.13,0,0,1,73,5.94s0-.05.11-.08a.16.16,0,0,1,.09-.05c.09,0,.2-.06.2-.09a1.85,1.85,0,0,1,.32-.16,3.08,3.08,0,0,0,.51-.23.69.69,0,0,0,.23-.09c.08-.06.7-.38.86-.46l.27-.13a1.46,1.46,0,0,1,.3-.07c.06,0,.11-.07.16-.07a2.2,2.2,0,0,1,.29,0c.16,0,.48.12.51.32a.31.31,0,0,1,0,.09.25.25,0,0,1-.08.18c-.06.06-.1.16-.17.21a.16.16,0,0,1-.12,0,.28.28,0,0,1-.15,0s0,0,0,0,0-.07.09-.12.16-.07.2-.18a.5.5,0,0,0,0-.12c0-.1-.08-.17-.22-.17a.8.8,0,0,0-.44.18,2.21,2.21,0,0,0-.45.41,1.51,1.51,0,0,1-.25.26.61.61,0,0,0-.14.24,1.19,1.19,0,0,0-.06.47.49.49,0,0,0,.13.38.64.64,0,0,0,.4.09,3.42,3.42,0,0,0,.43,0,2.68,2.68,0,0,0,.53-.14,2.88,2.88,0,0,0,.31-.13,3.84,3.84,0,0,1,.36-.14,1.18,1.18,0,0,1,.2-.07l.15-.08.1-.06a.21.21,0,0,0,.12-.07.42.42,0,0,1,.12,0,.09.09,0,0,1,.07,0,.06.06,0,0,1,0,0s0,.06,0,.06-.17.09-.3.18-.24.07-.37.15a.43.43,0,0,1-.21.09l-.23.06c0,.08-.2.11-.3.16A2.51,2.51,0,0,0,76.16,6.75Z"/></svg>