<svg xmlns="http://www.w3.org/2000/svg" viewBox="0 0 103.9 19.49"><defs><style>.a{stroke:#000;stroke-miterlimit:10;stroke-width:0.5px;}.b{fill:#fff;}</style></defs><title>icons</title><path class="a" d="M8.22,2.89c0,.46.24.86.24,1.41,0,.24,0,.4,0,.57s-.13.56-.13.88,0,1.14,0,1.82c0,.43,0,.83,0,1a6.54,6.54,0,0,1,.13,1.11,3.67,3.67,0,0,1-.06.53,4.89,4.89,0,0,0,.06.73s-.06,1.13-.06,1.75c0,.43,0,1.07,0,1.58a4.29,4.29,0,0,1,0,.57,1.77,1.77,0,0,0-.05.5c0,.28.05.57.05,1.39a.92.92,0,0,1,0,.29,2.81,2.81,0,0,1-.12.64,2.91,2.91,0,0,1-.64.53,1,1,0,0,1-.43.12.56.56,0,0,1-.22-.08.62.62,0,0,1-.18-.4c0-.17.1-.31.1-.51s-.1-.28-.12-.46,0-.45,0-.85,0-.85,0-1.09a4.47,4.47,0,0,1-.06-.67.6.6,0,0,1,.06-.32.87.87,0,0,0,.06-.39c0-.2,0-.4-.16-.4A1.22,1.22,0,0,0,6.2,13l-.83.06c-.1,0-.14.08-.32.08a4.49,4.49,0,0,0-1,.06c-.18,0-.61,0-.61.32a2.35,2.35,0,0,0-.12.67c0,.2,0,.32,0,.42s-.12.37-.12.59,0,.3,0,.59a6.66,6.66,0,0,1-.06.9c0,.13-.12.45-.26.51s-.08.22-.18.4-.2.33-.37.33-.32-.23-.42-.37a1.49,1.49,0,0,1-.22-.76c0-.25,0-.57,0-.79s.06-.29.06-.49,0-.3,0-.4,0-.55,0-1a2.85,2.85,0,0,0,.06-.39.23.23,0,0,0-.08-.2.59.59,0,0,1-.16-.46,1.82,1.82,0,0,1,.12-.59c0-.12,0-.66,0-.95,0-.81.06-1.59.06-2.44,0-.18,0-.59,0-.93a22,22,0,0,1,.54-3,2.53,2.53,0,0,1,.69-1c.12-.12.3-.24.32-.43s.61-.56.87-.7a3.73,3.73,0,0,1,.69-.39c.16,0,.48-.16.75-.2s.78,0,1-.06,1-.18,1.11-.18C8.08,2.3,8.22,2.58,8.22,2.89ZM6,3.23a4,4,0,0,0-.93.12,1.26,1.26,0,0,0-.67.57,2.59,2.59,0,0,0-.34.66c0,.14-.24.61-.34.93a3.47,3.47,0,0,0-.1.89c0,.38,0,.55,0,.73s-.21.75-.21,1.19V9c0,.78,0,1.94,0,2.22s0,1,.06,1.19.08.14.24.14h.36c.55,0,1.07-.06,1.76-.06a3.54,3.54,0,0,1,.48,0c.23,0,.29-.2.31-.38s0-.37,0-.63,0-.5,0-.6,0-.21,0-.37a4.73,4.73,0,0,1,0-.6,6.74,6.74,0,0,0-.1-1c0-.29,0-1-.08-1.58s.14-1,.14-1.54c0-.24-.08-.46-.08-.76s0-.35,0-.71,0-.93-.31-1.07A1.08,1.08,0,0,0,6,3.23Z"/><path class="a" d="M12.83,2.56a.83.83,0,0,1,.38-.2c.16,0,.36.12.53.44a9.24,9.24,0,0,1,.72,1.74c.08.39.41,1.29.51,1.62s.12.32.12.36a4.48,4.48,0,0,0,.1,1c.12.35.16.2.3.63a1.63,1.63,0,0,1,.12.54.24.24,0,0,1,0,.1s.29.31.33.51.2.69.24.95.2.85.34,1.41.59,1.36.61,1.6a5.06,5.06,0,0,0,.22.91,2.26,2.26,0,0,0,.59-1.09c.14-.55.28-1,.32-1.28s.3-.58.32-.92a5.43,5.43,0,0,1,.19-1.14,6.56,6.56,0,0,1,.34-1.09c.08,0,.16-.74.26-.74s0-.13,0-.25a.3.3,0,0,0,0-.14,3.83,3.83,0,0,1,.22-.87A4.1,4.1,0,0,1,19.94,6a2.52,2.52,0,0,0,.16-.77,2.69,2.69,0,0,1,.18-.61,1.83,1.83,0,0,0,.26-.7c0-.07,0-.13,0-.17a3.56,3.56,0,0,0-.06-.4.32.32,0,0,1,.06-.16,2.55,2.55,0,0,1,.73-.71l.06,0c.22,0,.47.38.59.83a4.27,4.27,0,0,1,.18,1.29,3.72,3.72,0,0,0,.14,1.15,5.75,5.75,0,0,1,.12.91,6.77,6.77,0,0,1,.12,1.21c0,.67.1,1.4.1,2a2.84,2.84,0,0,1,0,.47,2.31,2.31,0,0,0,0,.32,2.71,2.71,0,0,0,.15.65c0,.26.16.24.16.73,0,.08,0,.2,0,.32a4.35,4.35,0,0,0,0,.5c0,.43,0,.73,0,1.32,0,.38.1.5.1.91s0,.7,0,.89v.46c0,.24.16.55.16.75s-.57.91-.87.91a.69.69,0,0,1-.34-.18c-.35-.27-.31-.49-.39-.85a3.64,3.64,0,0,1-.06-.83c-.06-1.64-.22-2.12-.22-2.47v-.76a8,8,0,0,0-.08-1.46,5.3,5.3,0,0,1-.08-1c0-.34,0-.65,0-.77S20.87,8,20.87,7.61c0-.14,0-.28,0-.42s0-.28,0-.45,0-.82,0-1-.35.93-.53,1.28-.38.42-.4.74a1.88,1.88,0,0,1-.12.83,12.78,12.78,0,0,0-.43,1.28,13.84,13.84,0,0,1-.3,1.43c-.22.57-.42,1.11-.55,1.56s-.2,1-.36,1.43-.28.95-.4,1.25a.25.25,0,0,0,0,.12c0,.19.18.31.18.55v.48a.45.45,0,0,1-.24.45c-.35.26-.49.52-.77.52s-.57,0-.69-.8a22.16,22.16,0,0,0-.75-2.71c-.06-.12-.3-.75-.38-.95s-.1-.59-.18-.83-.12-.52-.22-.83a4.85,4.85,0,0,1-.29-1.15,3.6,3.6,0,0,1,0-.42.24.24,0,0,0-.1-.19c-.2-.18-.06-.42-.22-.72s-.22-1-.34-1.32a5.74,5.74,0,0,1-.21-1.09,5.81,5.81,0,0,0-.36-.89s0-.06-.06-.06-.22.71-.3,1.16a7.39,7.39,0,0,0-.12,1.43v.51a1.64,1.64,0,0,1,0,.42,4,4,0,0,0-.17,1c0,.38.06.65.06.85a5.73,5.73,0,0,1-.14,1.35,3.26,3.26,0,0,0-.14.79,1.42,1.42,0,0,0,0,.28v.22a1.82,1.82,0,0,1-.06.53c-.12.48-.22,1.15-.28,1.6s-.12.95-.16,1.45,0,.46-.21.69a.52.52,0,0,1-.34.18c-.1,0-.18-.06-.2-.22a2.63,2.63,0,0,1,0-.43,4.67,4.67,0,0,1,.12-1,6,6,0,0,0,.1-1.13v-.26c0-.24.12-.67.12-1.05a1,1,0,0,0,0-.24,1.37,1.37,0,0,1,0-.27,7.25,7.25,0,0,1,.14-.78,7.78,7.78,0,0,0,.24-1.1.55.55,0,0,0,0-.18.56.56,0,0,1,0-.2c0-.75.35-3.09.37-3.62s.12-1,.12-1.31.14-.91.16-1.33a15.47,15.47,0,0,1,.2-1.84A1.12,1.12,0,0,1,12.83,2.56Z"/><path class="a" d="M26.7,2.85c.25-.15.29-.39.51-.45l.08,0c.2,0,.4.18.48.61a3.29,3.29,0,0,1,.15,1v.72a3.74,3.74,0,0,1-.09,1,6.38,6.38,0,0,0-.2,1.36c0,.56,0,1.17.06,1.35s.06,1.09.06,2.35c0,.7,0,1.63,0,2.16s0,.8,0,1a1.11,1.11,0,0,1,0,.36,2.43,2.43,0,0,0-.06.51c0,.18,0,.36,0,.54s-.14.63-.14.81.06.34.06.46a.75.75,0,0,1,0,.29c-.08.28-.42.52-.73.76s-.3.31-.4.31c-.3,0-.3-.57-.3-.73v-.4c0-.53,0-1.18,0-1.52s.06-2.22.08-2.54,0-.35,0-.53c0-.59,0-.69,0-.81s.06-.4.06-.6-.06-.53-.08-.91V9.69a22.66,22.66,0,0,1,.06-2.28,2.68,2.68,0,0,0,0-.48c0-.21,0-.45,0-.69s.16-.67.16-1-.12-.51-.12-.77.08-.69.1-1S26.46,3,26.7,2.85Z"/><path class="a" d="M31,3.57c0-.32,0-.5.23-.5.36,0,.52,0,.54-.08a.79.79,0,0,1,.57-.27,6.09,6.09,0,0,0,1.23-.14,2.6,2.6,0,0,1,.95-.08l.89,0a1.84,1.84,0,0,1,.36,0c.24,0,.49.22.49.45s-.14.34-.35.52a.87.87,0,0,1-.36.16c-.12,0-.18,0-.2-.1s-.16-.12-.41-.18a1.39,1.39,0,0,0-.32,0l-1,0a.47.47,0,0,0-.32.1c-.21.16-.37.2-.37.53s.2,1.35.2,2.38a3.39,3.39,0,0,1,0,.46c-.06.87-.08,1.2-.08,1.4s.06.4.06.56-.06.29-.06.43.06.24.06.52c0,.08,0,.17,0,.27s0,.48,0,.68,0,.59.17.69a.69.69,0,0,0,.46.12c.65,0,.83,0,1,0a3.68,3.68,0,0,1,.61-.1c.42,0,.5.12.58.38a.27.27,0,0,1,0,.13c0,.16-.14.22-.5.24h-.61a5.67,5.67,0,0,0-1,0,1.54,1.54,0,0,1-.4,0,.31.31,0,0,0-.26.1,1.51,1.51,0,0,0-.29,1c0,.54.06.95.06,1.33v.22c0,.39-.1.91-.1,1.24,0,.08,0,.14,0,.32s0,.28,0,.38a.27.27,0,0,0,0,.17,3.27,3.27,0,0,0,.93.12c.22,0,.49.06.73.06a1,1,0,0,0,.26,0c.26-.08.53,0,.79-.25s.38-.24.55-.38a.36.36,0,0,1,.18-.08c.1,0,.18.1.2.3s.1.47.1.63a.23.23,0,0,1,0,.14,3.42,3.42,0,0,1-.79.28,2.21,2.21,0,0,1-.56,0,6.42,6.42,0,0,0-.93,0,2.33,2.33,0,0,1-.37,0c-.28,0-.56,0-.83,0a5.67,5.67,0,0,0-1.13,0,2.52,2.52,0,0,1-.48.09.33.33,0,0,1-.2,0c-.17-.09-.12-.37-.25-.69a.25.25,0,0,1,0-.12c0-.2.27-.18.27-.35a5.72,5.72,0,0,0-.1-.72A9.13,9.13,0,0,1,31,14.56c0-.16,0-.3,0-.46,0-.31,0-.57,0-.77a1.32,1.32,0,0,0,0-.48,1.84,1.84,0,0,1-.26-.65s0-.06,0-.08.3-.33.3-.43c0-.36-.08-.74-.08-1.13a2.14,2.14,0,0,1,.06-.5,5.63,5.63,0,0,0,.11-1.52,4.53,4.53,0,0,0,0-.75A5.25,5.25,0,0,1,31,6.7V6.28c0-.3,0-.79,0-1S31,4.46,31,4Z"/><path class="a" d="M49,5.73a.39.39,0,0,1,0-.16c0-.22.08-.5.08-.87a3.59,3.59,0,0,0-.2-.87c-.08-.28-.18-.34-.48-.5a.87.87,0,0,0-.43-.1,2,2,0,0,0-1,.38,3.17,3.17,0,0,0-1.17,1.62c-.1.24-.3.38-.3.79a2.12,2.12,0,0,1-.1.62,10.84,10.84,0,0,0-.06,1.19,6.24,6.24,0,0,1-.07.91c-.08.81-.14,1.64-.14,1.9a4.09,4.09,0,0,1,0,.69,1.48,1.48,0,0,0,.08.57A4.49,4.49,0,0,1,45.45,13a12.42,12.42,0,0,0,.66,2.52c.2.26.41.77.69,1a2,2,0,0,0,.75.37,1.07,1.07,0,0,0,1-.47,7.64,7.64,0,0,0,.44-.63,7.86,7.86,0,0,0,.37-1c.06-.18.14-.5.34-.5s.4.08.4.3,0,.16,0,.25a.89.89,0,0,1-.06.3c-.08.2-.12.5-.18.69s-.36.32-.5.54a3.32,3.32,0,0,1-.53.75,2.94,2.94,0,0,1-.61.34,2.2,2.2,0,0,1-1.11.39,3.31,3.31,0,0,1-.46-.05,3,3,0,0,1-1.11-.34c-.2-.14-.49-.26-.79-.48a4.32,4.32,0,0,1-.91-1.4,7.55,7.55,0,0,1-.18-.81,10.45,10.45,0,0,1-.49-3.11,23.13,23.13,0,0,1,.15-2.4,2.47,2.47,0,0,1,.08-.81,2.6,2.6,0,0,0,.14-.89A.65.65,0,0,1,43.75,7c.12-.1.08-.43.2-.81a3.68,3.68,0,0,1,.41-1c.12-.16.3-.65.46-.83a9.71,9.71,0,0,1,.75-.81,5.4,5.4,0,0,1,.68-.5c.21-.1.35,0,.59-.22a1.36,1.36,0,0,1,1-.41,1.44,1.44,0,0,1,.77.22,2.84,2.84,0,0,1,.93.55,2.35,2.35,0,0,1,.34.85.87.87,0,0,1,0,.1c0,.16-.06.44-.06.58,0,.33,0,.55,0,.83s-.06.49-.34.49S49.08,6,49,5.73Z"/><path class="a" d="M57.28,2.46a1.63,1.63,0,0,1,1,.26,8.23,8.23,0,0,1,1,1c.16.31.29.67.43.91A2.7,2.7,0,0,1,60,5.77c.08,1.16.12,2,.12,2.73a12.1,12.1,0,0,1-.14,2,16.06,16.06,0,0,1-.18,2.16A7.8,7.8,0,0,0,59.45,14a5.76,5.76,0,0,1-1.14,2.4c-.6.69-.76.47-1,.71s-.2.3-.48.44a2,2,0,0,1-1.13.39,3.61,3.61,0,0,1-1.21-.37,3.68,3.68,0,0,1-1.14-.85,2,2,0,0,1-.54-.88c-.2-.57-.38-.79-.47-1.18a13.59,13.59,0,0,0-.2-1.43,5.26,5.26,0,0,1-.18-1c0-.32-.06-.85-.06-1.29a1.76,1.76,0,0,1,.06-.61l.12-.4a5.74,5.74,0,0,1-.06-.75c0-.1,0-.18,0-.26a4.73,4.73,0,0,1,.24-1,14.37,14.37,0,0,1,.47-1.8,3.79,3.79,0,0,1,.89-1.56,5.31,5.31,0,0,1,1.07-1,2.17,2.17,0,0,0,.73-.5A3.19,3.19,0,0,1,57,2.48,1.51,1.51,0,0,1,57.28,2.46Zm-.76,1.11c-.15,0-.27-.06-.49-.06a.53.53,0,0,0-.42.16,6.45,6.45,0,0,0-.85,1.22,6.43,6.43,0,0,0-.45,1.45,12.73,12.73,0,0,1-.24,1.52,3.73,3.73,0,0,0-.16,1.43A8.28,8.28,0,0,0,54,10.62a9.52,9.52,0,0,0,.26,1.7,9.88,9.88,0,0,0,.25,1.45c.12.39.18,1,.24,1.22a3.73,3.73,0,0,0,.77,1.09c.38.3.5.77,1.09.77a1,1,0,0,0,.32-.06,1.71,1.71,0,0,0,.59-.55c.16-.22.26-.24.34-.24s.22-.47.28-.67.49-.75.53-1,0-.32,0-.51a.66.66,0,0,1,.12-.46c.18-.18.28-.2.36-.83a6.7,6.7,0,0,0,0-.89,6.56,6.56,0,0,1,0-.87,4.9,4.9,0,0,0,0-.54c0-.24,0-.47,0-.69a3,3,0,0,1,0-.42c0-.45.12-.55.12-.81a.9.9,0,0,0,0-.22c-.06-.47-.14-1.74-.22-2a6.8,6.8,0,0,1-.32-1,1,1,0,0,0-.49-.73c-.2-.18-.44-.63-.68-.81a1,1,0,0,0-.61-.18C56.86,3.41,56.72,3.57,56.52,3.57Z"/><path class="a" d="M63.52,2.74a1.41,1.41,0,0,1,.63-.26c.24,0,.48.63.51.81a8.69,8.69,0,0,1,.18,1.21c0,1,0,1.29,0,1.54,0,.44-.14.89-.14,1.21,0,.58-.07.83-.07,1.11s.07.73.07,1.33c0,.19,0,.39,0,.59-.09,1.09-.17,1.94-.23,2.44s-.12,1.54-.12,1.84,0,.93,0,1.26c0,.16,0,.32,0,.46s0,.28.12.34a3.71,3.71,0,0,0,.79.19c.47.1,1,0,1.23.1a1.87,1.87,0,0,0,.35,0,.8.8,0,0,0,.44-.1,1.94,1.94,0,0,1,.87-.23c.28,0,.38.1.44.37,0,0,0,.06,0,.1,0,.2-.16.3-.44.4a10.46,10.46,0,0,1-1.11.16,2,2,0,0,1-.32,0c-.27,0-.51-.06-.81-.06s-.39,0-.49,0c-.32,0-.62,0-1.15,0-.2,0-.38,0-.54,0a.71.71,0,0,1-.31,0c-.24-.1-.74-.06-.74-.46s0-.73,0-1.11a3.86,3.86,0,0,0,0-.51c0-.08,0-.2,0-.32,0-.4,0-1,.09-1.37,0-.07,0-.11,0-.17,0-.46.18-.68.18-1s0-.26,0-.34,0-.48,0-.71,0-.14,0-.44c0-.53.06-1.58.06-2.2,0-.16,0-.29,0-.37s0-.2,0-.3a2.34,2.34,0,0,1,.16-1,0,0,0,0,0,0,0c0-.08-.12-.26-.12-.4s.08-.51.08-.75a.68.68,0,0,0,0-.2A3.89,3.89,0,0,1,63,5.05a3.54,3.54,0,0,1,0-.45c0-.58.08-1.19.08-1.43S63.32,2.91,63.52,2.74Z"/><path class="a" d="M72,2.74a1.33,1.33,0,0,1,.62-.26c.24,0,.49.63.51.81A8.69,8.69,0,0,1,73.3,4.5c0,1,0,1.29,0,1.54,0,.44-.14.89-.14,1.21,0,.58-.06.83-.06,1.11s.06.73.06,1.33c0,.19,0,.39,0,.59-.08,1.09-.16,1.94-.22,2.44s-.13,1.54-.13,1.84,0,.93,0,1.26c0,.16,0,.32,0,.46s0,.28.13.34a3.56,3.56,0,0,0,.78.19c.47.1,1,0,1.24.1a1.76,1.76,0,0,0,.34,0,.8.8,0,0,0,.44-.1,2,2,0,0,1,.87-.23c.28,0,.39.1.45.37,0,0,0,.06,0,.1,0,.2-.16.3-.45.4a10.09,10.09,0,0,1-1.11.16,2,2,0,0,1-.32,0c-.26,0-.51-.06-.81-.06s-.38,0-.48,0c-.33,0-.63,0-1.16,0-.2,0-.38,0-.54,0a.75.75,0,0,1-.31,0c-.24-.1-.74-.06-.74-.46s0-.73,0-1.11a3.86,3.86,0,0,0,0-.51c0-.08,0-.2,0-.32,0-.4,0-1,.08-1.37,0-.07,0-.11,0-.17,0-.46.18-.68.18-1s0-.26,0-.34,0-.48,0-.71,0-.14,0-.44c0-.53.06-1.58.06-2.2,0-.16,0-.29,0-.37s0-.2,0-.3a2.34,2.34,0,0,1,.16-1,0,0,0,0,0,0,0c0-.08-.12-.26-.12-.4s.08-.51.08-.75a.68.68,0,0,0,0-.2,3.89,3.89,0,0,1-.08-.85,3.54,3.54,0,0,1,0-.45c0-.58.08-1.19.08-1.43S71.78,2.91,72,2.74Z"/><path class="a" d="M80.17,2.85c.24-.15.28-.39.5-.45l.08,0c.2,0,.41.18.49.61a3.29,3.29,0,0,1,.14,1v.72a4.19,4.19,0,0,1-.08,1,6.38,6.38,0,0,0-.2,1.36c0,.56,0,1.17.06,1.35s.06,1.09.06,2.35c0,.7,0,1.63,0,2.16s0,.8,0,1a1.11,1.11,0,0,1,0,.36,2.43,2.43,0,0,0-.06.51c0,.18,0,.36,0,.54s-.14.63-.14.81.06.34.06.46A.75.75,0,0,1,81,17c-.09.28-.43.52-.73.76s-.31.31-.41.31c-.3,0-.3-.57-.3-.73v-.4c0-.53,0-1.18,0-1.52s.06-2.22.08-2.54,0-.35,0-.53c0-.59,0-.69,0-.81s.06-.4.06-.6-.06-.53-.08-.91V9.69a22.66,22.66,0,0,1,.06-2.28,2.68,2.68,0,0,0,0-.48c0-.21,0-.45,0-.69s.16-.67.16-1-.12-.51-.12-.77.08-.69.1-1S79.92,3,80.17,2.85Z"/><path class="a" d="M85.2,2.42a2.07,2.07,0,0,1,1.15.69,13.08,13.08,0,0,1,.7,1.25,4.79,4.79,0,0,1,.69,1.15,4,4,0,0,0,.28.75c.33,1,2,3.9,2.06,4.5s.19.49.27.71a3.69,3.69,0,0,1,.18.71A11.49,11.49,0,0,0,91,13.25a5.7,5.7,0,0,0,.51,1.05,2.56,2.56,0,0,1,.3.79c0,.16.16.38.22.38s0,0,0-.08A9.55,9.55,0,0,0,92.17,14c0-.51,0-1.11,0-1.44s.14-.58.14-.85a.44.44,0,0,0,0-.16,2.46,2.46,0,0,1-.06-.68v-.37c0-.28.12-.48.12-.85a1.23,1.23,0,0,0,0-.26,4.26,4.26,0,0,1,0-.54c0-.55.06-1.18.08-1.54s-.12-1.62-.14-2c0-.2,0-.48,0-.75a5.09,5.09,0,0,1,0-.62,3.6,3.6,0,0,1,.2-1.13c.16-.35,0-.59.34-.71a.18.18,0,0,1,.1,0c.25,0,.43.38.47.73s-.1.78-.1,1.25,0,.75,0,1.09a4.42,4.42,0,0,1,0,.69,3.66,3.66,0,0,0,0,.64c0,.43,0,.79.06,1.07v.33c0,.24,0,.42,0,.7s0,2.79-.1,3.46,0,2.12-.11,2.62A4.7,4.7,0,0,0,93,15.79c0,.19.08.47.08.75a5,5,0,0,1-.24,1.23c-.08.23-.2.37-.42.37l-.29,0a1.3,1.3,0,0,1-.76-.14,3,3,0,0,1-.73-.85c-.18-.32-.69-1.56-.87-1.94A15.47,15.47,0,0,1,89,13.07c0-.26,0-.39-.14-.55a.89.89,0,0,1-.32-.52,13.76,13.76,0,0,0-.89-1.62c-.2-.38-.22-1-.44-1.17a1.71,1.71,0,0,1-.39-.79,3.36,3.36,0,0,1-.18-.83c0-.2-.14-.3-.28-.6A2.32,2.32,0,0,0,86,6.3c-.12-.16-.12-.57-.34-.57s-.3.21-.3.79c0,1,0,1.31,0,1.78s.06.81.08,1.17a3.94,3.94,0,0,1-.1,1,.55.55,0,0,0,0,.18c0,.18.06.33.06.57,0,.5-.22,1-.22,1.39a1.17,1.17,0,0,0,0,.27,6.17,6.17,0,0,1,.18,1.41v.32c0,.33.1.77.1,1a4.56,4.56,0,0,1-.1,1.2c-.06.18,0,.44-.29.72s-.26.67-.42.67-.3-.16-.32-.89a9.85,9.85,0,0,1,.1-1.05c0-.18,0-.3,0-.42s0-.33,0-.47a.55.55,0,0,0,0-.26,3.44,3.44,0,0,1,0-.95,3.17,3.17,0,0,1,0-.43,7.76,7.76,0,0,1,.06-.8c0-.33.08-.49.1-.73,0-.08,0-.2,0-.39a11.23,11.23,0,0,0-.1-1.39,5,5,0,0,1-.06-.81c0-.4,0-.81.06-1.07a2.52,2.52,0,0,1,.16-.87c0-.08.12-.14.12-.24a.47.47,0,0,0-.1-.26A1.91,1.91,0,0,1,84.35,6c0-.45.06-1.11.06-1.62,0-.73-.1-.89-.1-1.09a1.38,1.38,0,0,1,0-.26C84.43,2.66,85,2.44,85.2,2.42Z"/><path class="a" d="M101.11,6c0-.08,0-.43,0-.79,0-.2.06-.4.06-.67s-.18-.42-.24-.72a1.21,1.21,0,0,0-.5-.79.87.87,0,0,0-.25,0,2.55,2.55,0,0,0-.87.18,2.81,2.81,0,0,0-.88,1,.55.55,0,0,0-.11.38c0,.27.09.57.09.91a1.17,1.17,0,0,0,.2.83c.12.18.08.63.18.91s.18.24.65.54a11.84,11.84,0,0,1,1.43,1.32,5,5,0,0,1,1.47,1.71,6,6,0,0,1,.41,2,7.26,7.26,0,0,1-.18,1.41c-.1.4-.25.73-.31,1a2.84,2.84,0,0,1-.48.93,2.11,2.11,0,0,1-.63.6c-.28.25-1.13.69-1.49.93a1,1,0,0,1-.59.14,6.06,6.06,0,0,1-.62,0,4.11,4.11,0,0,1-1.16-.28,2.36,2.36,0,0,1-.84-.91,4.79,4.79,0,0,1-.29-1.39c0-.34-.14-1.07-.14-1.54a.82.82,0,0,1,0-.24.76.76,0,0,1,.73-.63c.24,0,.62.21.62.51s-.2.44-.28.71a2,2,0,0,0-.12.6A2.15,2.15,0,0,0,97,15a2.42,2.42,0,0,0,.41,1.17,3.14,3.14,0,0,0,1,.77,1.14,1.14,0,0,0,.44.08,1.2,1.2,0,0,0,.75-.24,1.87,1.87,0,0,0,.66-.83.72.72,0,0,1,.23-.49,3.7,3.7,0,0,0,.32-.79,1.87,1.87,0,0,0,.08-.62,6.62,6.62,0,0,0-.06-.91,1.54,1.54,0,0,1,0-.2,3.69,3.69,0,0,0-.46-1.24c-.21-.46-.55-.62-.77-.93l-.73-.88A9.8,9.8,0,0,0,97.82,9a3.67,3.67,0,0,1-.75-.81C97,8,97,7.69,96.81,7.51a1.45,1.45,0,0,1-.36-1,1.23,1.23,0,0,1,0-.26A4.17,4.17,0,0,1,97,4.5c.34-.4.3-.58.55-.91a1.64,1.64,0,0,1,.72-.72,3,3,0,0,1,1.32-.57,4.48,4.48,0,0,1,1.31.26,2.43,2.43,0,0,1,1,.85,2,2,0,0,1,.2.87c0,.5.1.83.1,1s-.18,1-.44,1S101.11,6.16,101.11,6Z"/><polygon class="b" points="60.19 7.01 60.19 6.97 60.18 7.08 60.19 7.01"/><path class="b" d="M60.14,7.24a.17.17,0,0,1,0,.07l0-.29C60.16,6.85,60.15,7.36,60.14,7.24Z"/><path class="b" d="M60.14,7.21c0-.07,0,.07,0,.12C60.12,7.22,60.14,7.36,60.14,7.21Z"/><path class="b" d="M59.21,7.28h0Z"/><path class="b" d="M59,7.76v.11c0-.2.09,0,.14-.09v0c.12,0,.23-.14.35-.22v.05a.77.77,0,0,1,0-.1.16.16,0,0,1,0,.07c0,.18.07-.12.09,0a.58.58,0,0,0,0-.15.63.63,0,0,0,.29-.23V7.4c.08-.3.17-.18.25-.13s0-.08,0-.17,0,.2-.07.05V7.08s0,.19,0,.09a.29.29,0,0,1,0-.1s-.08,0-.11.15c0-.17,0,0-.06-.17a.57.57,0,0,0,0,.16c-.13-.09-.27.07-.4.06-.07.32-.14-.06-.22.05v0c0,.08-.06.12-.09.08l0,.13c-.18-.27-.36-.08-.54-.19S58.18,7,58,7.41c0,0,0,0,0-.06s-.11,0-.17,0v0c-.13.26-.27,0-.4.25a.82.82,0,0,0-.5.08V7.6c-.13.13-.26-.2-.39-.1-.14-.15-.28.36-.42.17s-.2.35-.28,0c-.16-.48-.32-.17-.48.12-.15-.18-.3.27-.45-.09-.07.23-.15-.27-.22-.21V7.6c0-.24-.06.33-.08,0v0c0-.18,0,.42,0,.21v.09s0-.1,0-.14,0,.16,0,.11c0-.36,0,.08-.05-.32,0,0,0-.16,0-.25s0,0,0,.16a3.83,3.83,0,0,0,0,.48v0s0,.21.05.29h0c0-.16,0-.07,0,0v.07c0,.15,0-.3,0,0a.16.16,0,0,1,.15-.06c0-.1,0,0,0-.19,0,.22.06.28.07.27v0c0,.28,0-.27.06.08,0-.25,0,.08.06-.21a.76.76,0,0,1,0,.15s.1.09.14.1c0-.21.08.1.11-.2,0,.07.07.19.1.07v0s.09,0,.12-.22a.85.85,0,0,0,0,.32c0-.14.08-.1.12-.22,0,.14,0-.05,0,.14.11-.37.25-.24.37,0h0c0-.1,0-.34,0-.47s0,0,0,0,.05.16.07.12a.13.13,0,0,1,0,.06c0-.08,0,.16.07,0v.05l0-.07c0,.06,0,.16,0,.14.19.06.38-.27.57-.22v.06l0-.11V8c0,.11.1-.07.14,0v.12c0-.17.06.23.08-.13a.62.62,0,0,1,0,.13.21.21,0,0,1,.3-.06c.08-.33.17,0,.25-.29v.07c.11-.23.22,0,.33,0s.08,0,.13-.06v.08c.08-.31.16.28.25-.06v.11c0-.17,0,.06,0-.23v.09c.06-.39.1.18.17-.08v.07s0-.09.05,0a.11.11,0,0,1,0,0c.06.27.12,0,.18,0v.13c0-.15.08,0,.12-.08v.06l0-.08v.12S58.92,7.77,59,7.76Z"/><path class="b" d="M59.47,7.62h0Z"/><path class="b" d="M54.52,8.25v0Z"/><polygon class="b" points="56.67 2.5 56.63 2.5 56.73 2.53 56.67 2.5"/><path class="b" d="M56.88,2.63H57l-.28-.1C56.5,2.54,57,2.63,56.88,2.63Z"/><path class="b" d="M56.85,2.65c-.07,0,.06,0,.11.05C56.85,2.68,57,2.66,56.85,2.65Z"/><path class="b" d="M56.61,4.66h0Z"/><path class="b" d="M57,5.26l.11,0c-.18-.13,0-.21,0-.33l0,0a1.73,1.73,0,0,0-.11-.8l.06,0s-.11,0-.09-.06l.06,0c.19,0-.09-.18,0-.19a.27.27,0,0,0-.15,0,1.8,1.8,0,0,0-.13-.66.36.36,0,0,1,.14,0c-.27-.22-.12-.39,0-.56s-.08,0-.16,0,.17.14,0,.17l-.08,0s.19,0,.09.06a.15.15,0,0,1-.1,0c0,.09-.07.16.1.27-.16,0,0,.09-.17.09.06,0,0,0,.14.08-.13.27,0,.58-.07.88.29.18-.11.29,0,.47h0c.07.07.1.15,0,.21l.12.07c-.33.34-.2.76-.37,1.13s-.43.78-.08,1.27l-.06,0c0,.13-.08.23,0,.36h0c.22.33-.12.6.11.92a3.55,3.55,0,0,0-.08,1.09h-.06c.08.31-.29.53-.23.84-.19.27.26.65,0,.92s.28.48-.06.61c-.53.28-.28.67,0,1.07-.22.3.16.69-.23,1,.2.19-.32.28-.29.46h.08c-.24,0,.31.18,0,.17h0c-.18,0,.4.14.19.12l.09,0s-.1,0-.14,0,.16,0,.1,0c-.35-.05.07.11-.33,0,0,0-.16,0-.24,0s0,.07.14.09a1.74,1.74,0,0,0,.48.07l-.13,0h.16s.22,0,.3,0h0c-.15-.05-.06-.07,0-.09H56c.16,0-.29-.1,0,0a.83.83,0,0,1,0-.35c-.1,0,0-.09-.17-.1.22,0,.29-.07.29-.1h0c.29,0-.25-.11.11-.12-.25,0,.09-.09-.19-.17l.14,0c0-.11.13-.21.16-.3-.21-.11.12-.17-.16-.28.07,0,.2-.11.1-.2h0a.27.27,0,0,0-.18-.29c.29,0,.24,0,.33-.05-.12-.07-.06-.18-.17-.29.13,0,0-.08.15-.05-.34-.3-.16-.58.16-.8h0l-.45-.17h0c0-.06.17-.07.14-.12h.06c-.08,0,.17-.06,0-.14h.05l-.07,0c.07,0,.16,0,.14,0,.12-.4-.14-.87,0-1.28l.06,0-.1-.1a.08.08,0,0,1,.06,0c.12-.09,0-.22,0-.32s.09,0,.13,0c-.16-.1.24-.09-.11-.18l.13,0a.77.77,0,0,1,0-.63c-.3-.23,0-.38-.21-.6h.07c-.19-.26.09-.48.08-.73,0-.09,0-.17,0-.27h.08c-.28-.22.33-.32,0-.55l.1,0c-.16,0,.08-.1-.21-.13l.09,0c-.36-.18.21-.19,0-.38l.07,0s-.08-.1,0-.12l0,0c.29-.08,0-.26,0-.39l.13,0c-.14-.08,0-.18,0-.27H57l-.08,0,.12,0C57.09,5.48,57,5.36,57,5.26Z"/><path class="b" d="M57,4.15h0Z"/><path class="b" d="M56,15h0Z"/><polygon class="b" points="56.66 2.7 56.63 2.71 56.73 2.71 56.66 2.7"/><path class="b" d="M56.91,2.76l.06,0h-.3C56.51,2.78,57,2.73,56.91,2.76Z"/><path class="b" d="M56.88,2.78c-.07,0,.07,0,.12,0C56.89,2.81,57,2.75,56.88,2.78Z"/><path class="b" d="M57.25,4.75h0S57.24,4.75,57.25,4.75Z"/><path class="b" d="M57.79,5.19h.12c-.22-.06,0-.2-.13-.29h0c0-.27-.22-.48-.34-.72h.06s-.12,0-.11,0h.06c.18-.08-.14-.14,0-.19a.31.31,0,0,0-.16,0A1.6,1.6,0,0,0,57,3.37l.13,0c-.32-.13-.23-.33-.21-.51-.08,0-.08,0-.16,0s.2.08.07.15h-.07c-.05,0,.19,0,.1,0s-.1,0-.1,0,0,.17.18.22c-.16,0,0,.08-.15.14a.39.39,0,0,0,.17,0c0,.3.15.56.19.85.33.09,0,.31.11.45h0c.08,0,.13.11.1.18l.14,0c-.21.42,0,.77,0,1.17s-.18.86.3,1.22t-.06,0c.08.11,0,.24.07.35h0c.3.25,0,.6.37.83a4.15,4.15,0,0,0,.24,1.06H58.3c.18.27-.11.59,0,.86-.1.31.45.54.3.86s.42.37.13.59c-.43.42-.07.71.27,1-.12.35.36.6.06,1,.25.11-.22.35-.13.51l.07,0c-.22.09.35.08,0,.17h0c-.17.06.43,0,.22.06h.09s-.1,0-.13.05.16,0,.11,0c-.35.05.09.08-.31.14,0,0-.15.06-.24,0s0,.08.16.05a1.72,1.72,0,0,0,.48-.08h-.13l.16,0s.2-.09.27-.13h0c-.16,0-.08-.05-.06-.07l.08,0c.15,0-.31,0-.05,0a.62.62,0,0,1-.11-.32c-.11,0,0-.09-.2,0,.22-.06.26-.16.25-.19s0,0,0,0c.28-.11-.27,0,.07-.15-.25,0,.06-.11-.23-.1l.14,0c0-.11.07-.23.06-.32-.22,0,.07-.2-.23-.22.05-.06.16-.17,0-.22h0a.28.28,0,0,0-.26-.22.49.49,0,0,0,.31-.14c-.15,0-.12-.16-.26-.22.13,0-.06-.07.13-.1-.41-.18-.32-.5-.08-.8h0l-.49,0h.05c0-.05.14-.12.1-.16h.06c-.09,0,.14-.11,0-.14h0l-.07,0c.06,0,.15,0,.14,0,0-.41-.39-.77-.41-1.19h.06l-.12-.06h.07c.09-.12-.11-.2-.09-.3s.09,0,.12,0c-.18,0,.21-.15-.15-.14a.41.41,0,0,1,.12,0,.81.81,0,0,1-.15-.61c-.35-.13-.08-.36-.37-.5h.07c-.26-.2-.06-.48-.14-.71s-.08-.16-.09-.26h.08c-.34-.13.22-.4-.15-.52h.11c-.17,0,0-.11-.24-.06l.08,0c-.4-.06.15-.25-.12-.36h.07c-.06,0-.11-.07,0-.1h0c.25-.16-.07-.25-.08-.38H58c-.16,0,0-.17-.12-.24h.06l-.09,0,.12,0C57.94,5.38,57.82,5.29,57.79,5.19Z"/><path class="b" d="M57.49,4.14h0S57.5,4.15,57.49,4.14Z"/><path class="b" d="M59.72,14.62l0,0S59.72,14.62,59.72,14.62Z"/><polygon class="b" points="59.74 14.47 59.77 14.45 59.68 14.5 59.74 14.47"/><path class="b" d="M59.51,14.54l0,0,.27-.13C59.86,14.34,59.43,14.61,59.51,14.54Z"/><path class="b" d="M59.53,14.51s-.07,0-.11.05S59.41,14.6,59.53,14.51Z"/><path class="b" d="M58.71,13.4h0Z"/><path class="b" d="M58.12,13.36l-.1.05c.2-.05.08.13.19.14h0c.07.18.31.22.48.32l0,0,.1,0-.05,0c-.14.14.15,0,.05.13a.32.32,0,0,0,.13-.08.9.9,0,0,0,.43.24l-.11.08c.32-.06.29.11.32.24.06,0,.06,0,.13-.09s-.2.05-.1-.06l.07,0c0-.05-.17.1-.1,0l.08-.05s0-.12-.21-.06c.13-.1,0-.06.09-.16a.33.33,0,0,0-.15.06c0-.22-.28-.3-.38-.47-.32.09-.07-.21-.22-.25h0c-.09,0-.15,0-.14-.07l-.13,0c.09-.37-.22-.49-.28-.78s0-.64-.57-.66l.06,0c-.1,0,0-.16-.15-.19l0,0c-.33,0-.2-.36-.54-.37a2,2,0,0,0-.48-.58l.05,0c-.22-.09-.05-.44-.24-.55,0-.25-.53-.15-.49-.42.19-.28-.45-.05-.25-.33.27-.47-.12-.5-.5-.54,0-.29-.47-.23-.3-.61-.25,0,.11-.33,0-.39l-.06,0c.17-.16-.33.11-.05-.11h0c.13-.12-.38.19-.21.06l-.08,0s.08-.05.1-.09-.13.09-.1,0c.3-.2-.1,0,.24-.23,0,0,.11-.11.2-.13s0,0-.15,0a2.77,2.77,0,0,0-.4.28l.11-.07-.13.1s-.15.15-.2.21h0c.14-.07.07,0,.06,0l-.06,0c-.12.09.28-.13,0,0,.1,0,.14.09.19.16s0,.05.17-.07c-.17.14-.18.22-.16.23l0,0c-.21.19.25-.1,0,.12.21-.13,0,.11.23,0l-.12.08c0,.07,0,.18,0,.24.21-.08,0,.16.26,0,0,.07-.1.19,0,.16l0,0s.1.09.28,0a.9.9,0,0,0-.24.24c.14,0,.15,0,.28,0-.1.08.08,0-.08.12.4-.07.41.18.27.48h0l.44-.2,0,0s-.1.14-.05.15l-.06,0c.09,0-.09.13.06.08l0,0,.08,0c-.06,0-.14.09-.13.07.11.27.54.33.66.59l0,0,.12,0s0,0-.06,0,.14.09.16.16-.09,0-.11.07c.17-.05-.14.19.17,0a.36.36,0,0,1-.1.07.41.41,0,0,1,.28.34c.34-.08.17.19.45.15l0,0c.28,0,.17.29.3.4s.11.07.15.13l-.07,0c.32-.07-.09.36.26.28l-.1,0c.15-.08,0,.09.23-.07l-.06.06c.37-.14-.07.23.2.18l-.06,0c.06,0,.11,0,.07,0l0,0c-.18.22.13.13.17.21l-.12.06c.16,0,.08.1.17.11l0,0,.09,0-.11.07C57.94,13.3,58.06,13.3,58.12,13.36Z"/><path class="b" d="M58.65,13.9Z"/><path class="b" d="M54,8.07l0,0Z"/><polygon class="b" points="56.01 15.36 56.05 15.38 55.96 15.31 56.01 15.36"/><path class="b" d="M55.85,15.18a.11.11,0,0,0-.06,0l.23.19C56.18,15.41,55.75,15.13,55.85,15.18Z"/><path class="b" d="M55.88,15.18c.07,0,0,0-.08-.08S55.75,15.11,55.88,15.18Z"/><path class="b" d="M56.59,13.89h0Z"/><path class="b" d="M56.39,13.32l-.09-.06c.13.16-.09.13,0,.24l0,0c-.14.14-.07.39-.1.6l0,0s.09.08.07.08l0,0c-.17-.06,0,.16-.09.11a.46.46,0,0,0,.12.09,1.05,1.05,0,0,0,0,.51.4.4,0,0,1-.12-.07c.18.27,0,.32-.1.41.06.05.08,0,.14.09s-.12-.17,0-.13l.06.05c.06,0-.16-.11-.06-.08a.44.44,0,0,1,.09,0c0-.07.09-.09,0-.23.14.07,0,0,.18,0a.44.44,0,0,0-.12-.11c.19-.14.16-.4.29-.58-.22-.25.16-.15.14-.31h0c0-.07-.05-.14,0-.16l-.09-.1c.38-.09.36-.44.61-.62s.58-.35.38-.84c0,0,0,0,0,0s.14-.13.12-.23h0c-.11-.31.26-.35.13-.67a2.17,2.17,0,0,0,.34-.72l0,0c0-.25.39-.25.42-.48.23-.11-.08-.56.2-.65s-.14-.45.2-.39c.54,0,.41-.35.3-.72.27-.12,0-.55.44-.56-.13-.22.36-.06.37-.2l-.07,0c.22.08-.23-.26.08-.1h0c.17.08-.33-.26-.14-.16L60,7.3s.08,0,.13,0S60,7.26,60,7.27c.31.19,0-.1.32.11,0,0,.14.06.2.14s0,0-.1-.13A3.14,3.14,0,0,0,60,7.15l.11.07L60,7.14s-.21-.07-.29-.09h0c.13.1,0,.07,0,.07l-.07,0c-.13-.08.24.19,0,0a.35.35,0,0,1-.07.25c.08.06,0,.05.13.14-.2-.1-.28-.08-.29,0s0,0,0,0c-.27-.11.19.19-.13,0,.21.14-.11,0,.13.2l-.13-.07c0,.06-.17.09-.21.13.16.17-.15.07.08.27-.08,0-.22,0-.14.1l0,0c0,.06,0,.14.09.27-.25-.13-.22-.08-.31-.1.09.1,0,.15.08.27-.11-.06,0,.08-.14,0,.22.35,0,.47-.34.48h0c.07.08.26.22.36.32l0,0c0,.05-.16,0-.15,0l0,0c0,.07-.17,0-.06.08l0,0,0,.06s-.13-.09-.11-.09c-.21.22-.09.66-.29.9l0,0,.06.1-.05,0c-.13,0,0,.16-.08.21s-.08-.06-.11-.06-.24,0,0,.16l-.1-.06a.45.45,0,0,1-.2.42c.21.28-.11.24,0,.49l0,0c.1.26-.2.29-.26.47s0,.13,0,.19l-.07,0c.2.27-.38.08-.15.37l-.09-.06c.13.1-.1,0,.16.18l-.09,0c.28.28-.24.05-.08.27l0,0c0,.05,0,.1,0,.09s0,0,0,0c-.28-.06-.07.18-.13.26l-.11-.08c.11.12-.06.12,0,.2l0,0,.06.07-.11-.06C56.37,13.13,56.42,13.25,56.39,13.32Z"/><path class="b" d="M56.09,14.07h0Z"/><path class="b" d="M59.66,7.05h0Z"/><path class="b" d="M9,2.5c0,.46.24.87.24,1.41,0,.25,0,.41,0,.57s-.13.56-.13.89,0,1.13,0,1.82c0,.42,0,.82,0,1A6.31,6.31,0,0,1,9.3,9.31a3.67,3.67,0,0,1-.06.52,4.72,4.72,0,0,0,.06.73s-.06,1.13-.06,1.76c0,.42,0,1.07,0,1.57a4.13,4.13,0,0,1,0,.57,1.77,1.77,0,0,0-.05.5c0,.29.05.57.05,1.4a.89.89,0,0,1,0,.28,2.9,2.9,0,0,1-.12.65,3.17,3.17,0,0,1-.64.52,1,1,0,0,1-.43.12.56.56,0,0,1-.22-.08.62.62,0,0,1-.18-.4c0-.16.1-.3.1-.51s-.1-.28-.12-.46,0-.45,0-.85,0-.85,0-1.09a4.36,4.36,0,0,1-.06-.67.6.6,0,0,1,.06-.32.82.82,0,0,0,.06-.38c0-.21,0-.41-.16-.41A1.22,1.22,0,0,0,7,12.64l-.83.06c-.1,0-.14.08-.32.08a4.49,4.49,0,0,0-1,.06c-.18,0-.61,0-.61.33a2.28,2.28,0,0,0-.12.66c0,.2,0,.33,0,.43s-.12.36-.12.58,0,.31,0,.59a6.85,6.85,0,0,1-.06.91c0,.12-.12.44-.26.5s-.08.22-.18.41-.2.32-.37.32-.32-.22-.42-.36a1.57,1.57,0,0,1-.22-.77c0-.24,0-.57,0-.79s.06-.28.06-.48,0-.31,0-.41,0-.54,0-1a3,3,0,0,0,.06-.38.23.23,0,0,0-.08-.2.63.63,0,0,1-.16-.47,1.76,1.76,0,0,1,.12-.58c0-.13,0-.67,0-.95,0-.81.06-1.6.06-2.45,0-.18,0-.58,0-.93a22,22,0,0,1,.54-2.95,2.61,2.61,0,0,1,.69-1c.12-.12.3-.24.32-.42s.61-.57.87-.71a3.58,3.58,0,0,1,.69-.38c.16,0,.48-.16.75-.2s.78-.05,1-.07,1-.18,1.11-.18C8.83,1.91,9,2.2,9,2.5Zm-2.18.34A4,4,0,0,0,5.86,3a1.3,1.3,0,0,0-.67.57,2.48,2.48,0,0,0-.34.67c0,.14-.24.6-.34.93a3.4,3.4,0,0,0-.1.88c0,.39,0,.55,0,.73s-.21.75-.21,1.19v.65c0,.79,0,1.94,0,2.22s0,1,.06,1.19.08.15.24.15h.36c.55,0,1.07-.07,1.76-.07a2.37,2.37,0,0,1,.48,0c.23,0,.29-.21.31-.39s0-.36,0-.63,0-.5,0-.6,0-.2,0-.36a4.77,4.77,0,0,1,0-.61,6.9,6.9,0,0,0-.1-1c0-.28,0-1-.08-1.58s.14-1,.14-1.53c0-.24-.08-.47-.08-.77s0-.34,0-.71,0-.93-.31-1.07A1.08,1.08,0,0,0,6.79,2.84Z"/><path class="b" d="M13.58,2.18A.82.82,0,0,1,14,2c.16,0,.36.12.53.45a8.73,8.73,0,0,1,.72,1.74c.08.38.41,1.29.51,1.61a3,3,0,0,1,.12.37,4.52,4.52,0,0,0,.1,1c.12.34.16.2.3.62a1.67,1.67,0,0,1,.12.55.24.24,0,0,1,0,.1s.29.3.33.5.2.69.24.95.2.85.34,1.42.59,1.35.61,1.59a4.85,4.85,0,0,0,.22.91,2.2,2.2,0,0,0,.59-1.09c.14-.54.28-1,.32-1.27s.3-.59.32-.93a5.34,5.34,0,0,1,.19-1.13,6.25,6.25,0,0,1,.34-1.09c.08,0,.16-.75.26-.75s0-.12,0-.24a.3.3,0,0,0,0-.14,3.59,3.59,0,0,1,.22-.87,3.89,3.89,0,0,1,.35-.69,2.52,2.52,0,0,0,.16-.77,2.51,2.51,0,0,1,.18-.6,2,2,0,0,0,.26-.71c0-.06,0-.12,0-.16a3.83,3.83,0,0,0-.06-.41.32.32,0,0,1,.06-.16A2.69,2.69,0,0,1,22,2.07l.06,0c.22,0,.47.39.59.83a4.33,4.33,0,0,1,.18,1.3A3.8,3.8,0,0,0,23,5.33a5.45,5.45,0,0,1,.12.91,6.58,6.58,0,0,1,.12,1.21c0,.67.1,1.39.1,2a2.81,2.81,0,0,1,0,.46,2.43,2.43,0,0,0,0,.33,2.74,2.74,0,0,0,.15.64c0,.26.16.24.16.73,0,.08,0,.2,0,.32a4.52,4.52,0,0,0,0,.51c0,.42,0,.73,0,1.31,0,.39.1.51.1.91s0,.71,0,.89V16c0,.25.16.55.16.75s-.57.91-.87.91a.69.69,0,0,1-.34-.18c-.35-.26-.31-.49-.39-.85a3.56,3.56,0,0,1-.06-.83c-.06-1.63-.22-2.12-.22-2.46v-.77a8,8,0,0,0-.08-1.46,5.24,5.24,0,0,1-.08-1c0-.34,0-.64,0-.76s-.18-1.74-.18-2.08c0-.15,0-.29,0-.43s0-.28,0-.44c0-.31,0-.83,0-1s-.35.93-.53,1.27-.38.42-.4.75a1.93,1.93,0,0,1-.12.83,12.57,12.57,0,0,0-.43,1.27A13.32,13.32,0,0,1,19.8,11c-.22.57-.42,1.11-.55,1.56s-.2,1-.36,1.43-.28,1-.4,1.26a.25.25,0,0,0,0,.12c0,.18.18.3.18.54v.49a.45.45,0,0,1-.24.44c-.35.26-.49.53-.77.53s-.57,0-.69-.81a22.16,22.16,0,0,0-.75-2.71c-.06-.12-.3-.75-.38-1s-.1-.58-.18-.83-.12-.52-.22-.82a4.93,4.93,0,0,1-.29-1.16,3.6,3.6,0,0,1,0-.42.21.21,0,0,0-.1-.18c-.2-.18-.06-.43-.22-.73s-.22-1-.34-1.31a5.89,5.89,0,0,1-.21-1.09,5.42,5.42,0,0,0-.36-.89s0-.06-.06-.06-.22.7-.3,1.15A7.39,7.39,0,0,0,13.46,8v.51a1.64,1.64,0,0,1,0,.42,4,4,0,0,0-.17,1c0,.39.06.65.06.85a5.73,5.73,0,0,1-.14,1.35,3.35,3.35,0,0,0-.14.79,1.46,1.46,0,0,0,0,.29v.22a1.79,1.79,0,0,1-.06.52c-.12.49-.22,1.15-.28,1.6s-.12,1-.16,1.45,0,.47-.21.69a.52.52,0,0,1-.34.18c-.1,0-.18-.06-.2-.22a2.5,2.5,0,0,1,0-.42,4.52,4.52,0,0,1,.12-1,6.14,6.14,0,0,0,.1-1.14v-.26c0-.24.12-.66.12-1a1,1,0,0,0,0-.24,1.23,1.23,0,0,1,0-.26,7,7,0,0,1,.14-.79,8,8,0,0,0,.24-1.09.55.55,0,0,0,0-.18.65.65,0,0,1,0-.21c0-.74.35-3.09.37-3.61s.12-1,.12-1.32S13,5.1,13,4.68a16,16,0,0,1,.2-1.84A1.12,1.12,0,0,1,13.58,2.18Z"/><path class="b" d="M27.45,2.46c.25-.14.29-.39.51-.45L28,2c.2,0,.4.19.48.61a3.29,3.29,0,0,1,.15,1v.73a3.81,3.81,0,0,1-.09,1,6.29,6.29,0,0,0-.2,1.35c0,.57,0,1.17.06,1.35s.06,1.1.06,2.35c0,.71,0,1.63,0,2.16s0,.81,0,1a1.11,1.11,0,0,1,0,.36,2.58,2.58,0,0,0-.06.51c0,.18,0,.36,0,.54s-.14.63-.14.81.06.35.06.47a.73.73,0,0,1,0,.28c-.08.28-.42.53-.73.77s-.3.3-.4.3c-.3,0-.3-.56-.3-.73v-.4c0-.53,0-1.17,0-1.52s.06-2.22.08-2.54,0-.34,0-.53c0-.58,0-.68,0-.8s.06-.41.06-.61-.06-.53-.08-.91V9.31A22.88,22.88,0,0,1,27,7a2.68,2.68,0,0,0,0-.48c0-.2,0-.45,0-.69s.16-.66.16-1S27,4.38,27,4.12s.08-.69.1-1S27.21,2.6,27.45,2.46Z"/><path class="b" d="M31.71,3.19c0-.33,0-.51.23-.51.36,0,.52,0,.54-.08a.8.8,0,0,1,.57-.26,6.09,6.09,0,0,0,1.23-.14,2.33,2.33,0,0,1,.95-.09l.89,0a1.84,1.84,0,0,1,.36,0c.24.05.49.23.49.45s-.14.34-.35.52a.86.86,0,0,1-.36.17c-.12,0-.18,0-.2-.1S35.9,3,35.65,3a1.39,1.39,0,0,0-.32,0l-1,0A.47.47,0,0,0,34,3c-.21.17-.37.21-.37.53s.2,1.35.2,2.38a3.47,3.47,0,0,1,0,.47c-.06.87-.08,1.19-.08,1.39s.06.41.06.57-.06.28-.06.42.06.24.06.53c0,.08,0,.16,0,.26s0,.48,0,.69,0,.58.17.68a.69.69,0,0,0,.46.12c.65,0,.83,0,1,0A3.68,3.68,0,0,1,36,11c.42,0,.5.12.58.39a.25.25,0,0,1,0,.12c0,.16-.14.22-.5.24h-.61a5.67,5.67,0,0,0-1,0,1.54,1.54,0,0,1-.4,0,.31.31,0,0,0-.26.1,1.53,1.53,0,0,0-.29,1c0,.55.06.95.06,1.34v.22c0,.38-.1.91-.1,1.23,0,.08,0,.14,0,.32s0,.29,0,.39a.26.26,0,0,0,0,.16,3.27,3.27,0,0,0,.93.12c.22,0,.49.06.73.06a1,1,0,0,0,.26,0c.26-.08.53,0,.79-.24s.38-.24.55-.39a.36.36,0,0,1,.18-.08c.1,0,.18.1.2.31s.1.46.1.62a.23.23,0,0,1,0,.14,3.34,3.34,0,0,1-.79.29,2.21,2.21,0,0,1-.56,0,6.42,6.42,0,0,0-.93,0,2.33,2.33,0,0,1-.37,0c-.28,0-.56,0-.83,0a5.67,5.67,0,0,0-1.13,0,3.34,3.34,0,0,1-.48.08.33.33,0,0,1-.2,0c-.17-.08-.12-.37-.25-.69a.25.25,0,0,1,0-.12c0-.2.27-.18.27-.34a5.8,5.8,0,0,0-.1-.73,9,9,0,0,1-.11-1.37c0-.17,0-.31,0-.47s0-.56,0-.77a1.32,1.32,0,0,0,0-.48,1.77,1.77,0,0,1-.26-.65s0-.06,0-.08.3-.32.3-.42c0-.37-.08-.75-.08-1.13a2.16,2.16,0,0,1,.06-.51,5.54,5.54,0,0,0,.11-1.51,4.41,4.41,0,0,0,0-.75,5.3,5.3,0,0,1-.07-1.09V5.89c0-.3,0-.79,0-1s0-.79,0-1.23Z"/><path class="b" d="M49.77,5.35a.39.39,0,0,1,0-.16c0-.23.08-.51.08-.87a3.38,3.38,0,0,0-.2-.87c-.08-.28-.18-.35-.48-.51a.87.87,0,0,0-.43-.1,2,2,0,0,0-1,.39,3.14,3.14,0,0,0-1.17,1.61c-.1.24-.3.39-.3.79a2.24,2.24,0,0,1-.1.63,10.61,10.61,0,0,0-.06,1.19,6.41,6.41,0,0,1-.07.91c-.08.81-.14,1.63-.14,1.9a3.93,3.93,0,0,1,0,.68,1.43,1.43,0,0,0,.08.57,4.49,4.49,0,0,1,.21,1.09,12.52,12.52,0,0,0,.66,2.53c.2.26.41.76.69.95a1.92,1.92,0,0,0,.75.36,1,1,0,0,0,1-.47c.16-.18.36-.52.44-.62a8.57,8.57,0,0,0,.37-.95c.06-.18.14-.51.34-.51s.4.08.4.31,0,.16,0,.24a.89.89,0,0,1-.06.3c-.08.2-.12.51-.18.69s-.36.32-.5.54a3.11,3.11,0,0,1-.53.75,2.94,2.94,0,0,1-.61.34,2.11,2.11,0,0,1-1.11.39c-.14,0-.24,0-.46,0a2.84,2.84,0,0,1-1.11-.35c-.2-.14-.49-.26-.79-.48a4.28,4.28,0,0,1-.91-1.39c-.08-.29-.12-.49-.18-.81A10.59,10.59,0,0,1,44,11.27a23.41,23.41,0,0,1,.15-2.41,2.5,2.5,0,0,1,.08-.81,2.54,2.54,0,0,0,.14-.88.66.66,0,0,1,.18-.55c.12-.1.08-.42.2-.81a3.84,3.84,0,0,1,.41-1c.12-.16.3-.64.46-.83a9.56,9.56,0,0,1,.75-.8A4.64,4.64,0,0,1,47,2.7c.21-.1.35,0,.59-.22a1.4,1.4,0,0,1,1-.41,1.42,1.42,0,0,1,.77.23,2.8,2.8,0,0,1,.93.54,2.35,2.35,0,0,1,.34.85.87.87,0,0,1,0,.1c0,.16-.06.45-.06.59,0,.32,0,.54,0,.83s-.06.48-.34.48S49.83,5.61,49.77,5.35Z"/><path class="b" d="M58,2.07a1.63,1.63,0,0,1,1,.27,7.06,7.06,0,0,1,1,1.05c.16.3.29.66.43.91a2.59,2.59,0,0,1,.36,1.09c.08,1.15.12,2,.12,2.73a12.05,12.05,0,0,1-.14,2,16.4,16.4,0,0,1-.18,2.17,7.48,7.48,0,0,0-.34,1.41,5.65,5.65,0,0,1-1.14,2.4c-.6.69-.76.47-1,.71s-.2.3-.48.45a2,2,0,0,1-1.13.38,3.78,3.78,0,0,1-1.21-.36,4,4,0,0,1-1.14-.85,2.06,2.06,0,0,1-.54-.89c-.2-.57-.38-.79-.47-1.17a13.76,13.76,0,0,0-.2-1.44,5.13,5.13,0,0,1-.18-1c0-.32-.06-.85-.06-1.29a1.79,1.79,0,0,1,.06-.61l.12-.4a5.54,5.54,0,0,1-.06-.75c0-.1,0-.18,0-.26a4.9,4.9,0,0,1,.24-1,14.83,14.83,0,0,1,.47-1.8,3.69,3.69,0,0,1,.89-1.55,5,5,0,0,1,1.07-1,2.21,2.21,0,0,0,.73-.51,3.3,3.3,0,0,1,1.49-.65A1.51,1.51,0,0,1,58,2.07Zm-.76,1.12c-.15,0-.27-.06-.49-.06a.53.53,0,0,0-.42.16,6.37,6.37,0,0,0-.85,1.21A6.6,6.6,0,0,0,55.06,6a12.42,12.42,0,0,1-.24,1.52,3.73,3.73,0,0,0-.16,1.43,8.56,8.56,0,0,0,.12,1.34A9.42,9.42,0,0,0,55,11.93a10.31,10.31,0,0,0,.25,1.46c.12.38.18,1,.24,1.21a3.73,3.73,0,0,0,.77,1.09c.38.3.5.77,1.09.77a1,1,0,0,0,.32-.06,1.54,1.54,0,0,0,.59-.55c.16-.22.26-.24.34-.24s.22-.46.28-.67.49-.74.53-1c0-.12,0-.32,0-.5a.69.69,0,0,1,.12-.47c.18-.18.28-.2.36-.82a6.85,6.85,0,0,0,0-.89,6.41,6.41,0,0,1,0-.87,5.09,5.09,0,0,0,0-.55c0-.24,0-.46,0-.68a3,3,0,0,1,0-.43c0-.44.12-.54.12-.81a.9.9,0,0,0,0-.22c-.06-.46-.14-1.74-.22-2a6.39,6.39,0,0,1-.32-1A1,1,0,0,0,59.1,4c-.2-.18-.44-.62-.68-.8A1,1,0,0,0,57.81,3C57.61,3,57.47,3.19,57.27,3.19Z"/><path class="b" d="M64.27,2.36a1.44,1.44,0,0,1,.63-.27c.24,0,.48.63.51.81a8.85,8.85,0,0,1,.18,1.22c0,1,0,1.29,0,1.53,0,.44-.14.89-.14,1.21,0,.59-.07.83-.07,1.11s.07.73.07,1.34c0,.18,0,.38,0,.58-.09,1.09-.17,1.94-.23,2.45s-.12,1.53-.12,1.84,0,.93,0,1.25c0,.16,0,.32,0,.46s0,.29.12.35a3.31,3.31,0,0,0,.79.18c.47.1,1,0,1.23.1a1.87,1.87,0,0,0,.35,0,.8.8,0,0,0,.44-.1,2.07,2.07,0,0,1,.87-.22c.28,0,.38.1.44.36,0,0,0,.06,0,.1,0,.2-.16.3-.44.41a10.46,10.46,0,0,1-1.11.16,2,2,0,0,1-.32,0c-.27,0-.51-.06-.81-.06s-.39,0-.49,0c-.32,0-.62,0-1.15,0-.2,0-.38,0-.54,0a.71.71,0,0,1-.31,0c-.24-.1-.74-.06-.74-.47s0-.73,0-1.11a3.7,3.7,0,0,0,0-.5c0-.09,0-.21,0-.33,0-.4,0-1,.09-1.37,0-.06,0-.1,0-.16,0-.47.18-.69.18-1s0-.27,0-.35,0-.48,0-.7,0-.15,0-.45c0-.52.06-1.57.06-2.2,0-.16,0-.28,0-.36s0-.21,0-.31a2.34,2.34,0,0,1,.16-1,0,0,0,0,0,0,0c0-.08-.12-.26-.12-.4s.08-.51.08-.75a.68.68,0,0,0,0-.2,3.84,3.84,0,0,1-.08-.85,3.39,3.39,0,0,1,0-.44c0-.59.08-1.2.08-1.44S64.07,2.52,64.27,2.36Z"/><path class="b" d="M72.74,2.36a1.36,1.36,0,0,1,.62-.27c.24,0,.49.63.51.81a8.85,8.85,0,0,1,.18,1.22c0,1,0,1.29,0,1.53,0,.44-.14.89-.14,1.21,0,.59-.06.83-.06,1.11s.06.73.06,1.34c0,.18,0,.38,0,.58-.08,1.09-.16,1.94-.22,2.45s-.13,1.53-.13,1.84,0,.93,0,1.25c0,.16,0,.32,0,.46s0,.29.13.35a3.18,3.18,0,0,0,.78.18c.47.1,1,0,1.24.1a1.76,1.76,0,0,0,.34,0,.8.8,0,0,0,.44-.1,2.11,2.11,0,0,1,.87-.22.39.39,0,0,1,.45.36s0,.06,0,.1c0,.2-.16.3-.45.41a10.09,10.09,0,0,1-1.11.16,2,2,0,0,1-.32,0c-.26,0-.51-.06-.81-.06s-.38,0-.48,0c-.33,0-.63,0-1.16,0-.2,0-.38,0-.54,0a.75.75,0,0,1-.31,0c-.24-.1-.74-.06-.74-.47s0-.73,0-1.11a3.7,3.7,0,0,0,0-.5c0-.09,0-.21,0-.33,0-.4,0-1,.08-1.37,0-.06,0-.1,0-.16,0-.47.18-.69.18-1s0-.27,0-.35,0-.48,0-.7,0-.15,0-.45c0-.52.06-1.57.06-2.2,0-.16,0-.28,0-.36s0-.21,0-.31a2.34,2.34,0,0,1,.16-1,0,0,0,0,0,0,0c0-.08-.12-.26-.12-.4s.08-.51.08-.75a.68.68,0,0,0,0-.2,3.84,3.84,0,0,1-.08-.85,3.39,3.39,0,0,1,0-.44c0-.59.08-1.2.08-1.44S72.53,2.52,72.74,2.36Z"/><path class="b" d="M80.92,2.46c.24-.14.28-.39.5-.45l.08,0c.2,0,.41.19.49.61a3.29,3.29,0,0,1,.14,1v.73a4.27,4.27,0,0,1-.08,1,6.29,6.29,0,0,0-.2,1.35c0,.57,0,1.17.06,1.35s.06,1.1.06,2.35c0,.71,0,1.63,0,2.16s0,.81,0,1A1.11,1.11,0,0,1,82,14a2.58,2.58,0,0,0-.06.51c0,.18,0,.36,0,.54s-.14.63-.14.81.06.35.06.47a.73.73,0,0,1,0,.28c-.09.28-.43.53-.73.77s-.31.3-.41.3c-.3,0-.3-.56-.3-.73v-.4c0-.53,0-1.17,0-1.52s.06-2.22.08-2.54,0-.34,0-.53c0-.58,0-.68,0-.8s.06-.41.06-.61-.06-.53-.08-.91V9.31A22.88,22.88,0,0,1,80.41,7a2.68,2.68,0,0,0,0-.48c0-.2,0-.45,0-.69s.16-.66.16-1-.12-.5-.12-.76.08-.69.1-1S80.67,2.6,80.92,2.46Z"/><path class="b" d="M86,2a2.13,2.13,0,0,1,1.15.69A13.08,13.08,0,0,1,87.8,4a4.83,4.83,0,0,1,.69,1.16,3.84,3.84,0,0,0,.28.74c.33,1,2,3.9,2.06,4.51s.19.48.27.7a3.88,3.88,0,0,1,.18.71,11.49,11.49,0,0,0,.46,1.07,5.41,5.41,0,0,0,.51,1.05,2.66,2.66,0,0,1,.3.79c0,.16.16.38.22.38s0,0,0-.08a9.41,9.41,0,0,0,.11-1.35c0-.5,0-1.11,0-1.43s.14-.59.14-.85a.44.44,0,0,0,0-.16,2.57,2.57,0,0,1-.06-.69v-.36c0-.29.12-.49.12-.85a1.37,1.37,0,0,0,0-.27,4.26,4.26,0,0,1,0-.54c0-.55.06-1.17.08-1.54S93,5.35,93,5c0-.2,0-.48,0-.74a5.19,5.19,0,0,1,0-.63,3.64,3.64,0,0,1,.2-1.13c.16-.35,0-.59.34-.71a.18.18,0,0,1,.1,0c.25,0,.43.38.47.73s-.1.79-.1,1.25,0,.75,0,1.09a4.35,4.35,0,0,1,0,.69,3.71,3.71,0,0,0,0,.65c0,.42,0,.78.06,1.07v.32c0,.24,0,.42,0,.71s0,2.78-.1,3.45,0,2.12-.11,2.63a4.61,4.61,0,0,0-.08,1.09c0,.18.08.46.08.75a5.12,5.12,0,0,1-.24,1.23c-.08.22-.2.36-.42.36l-.29,0a1.3,1.3,0,0,1-.76-.14,2.84,2.84,0,0,1-.73-.85c-.18-.32-.69-1.55-.87-1.94a15.47,15.47,0,0,1-.77-2.12c0-.26,0-.38-.14-.54a1,1,0,0,1-.32-.53A15.56,15.56,0,0,0,88.37,10c-.2-.38-.22-1-.44-1.17A1.66,1.66,0,0,1,87.54,8a3.37,3.37,0,0,1-.18-.82c0-.21-.14-.31-.28-.61a2.58,2.58,0,0,0-.31-.69c-.12-.16-.12-.56-.34-.56s-.3.2-.3.79c0,.94,0,1.31,0,1.77s.06.81.08,1.17a3.94,3.94,0,0,1-.1,1,.65.65,0,0,0,0,.19c0,.18.06.32.06.56,0,.51-.22,1-.22,1.4a1,1,0,0,0,0,.26,6.17,6.17,0,0,1,.18,1.41v.33c0,.32.1.76.1,1a4.48,4.48,0,0,1-.1,1.19c-.06.18,0,.44-.29.73s-.26.66-.42.66-.3-.16-.32-.89a10.5,10.5,0,0,1,.1-1c0-.18,0-.3,0-.42s0-.32,0-.47a.55.55,0,0,0,0-.26,3.44,3.44,0,0,1,0-.95,3.1,3.1,0,0,1,0-.42,7.76,7.76,0,0,1,.06-.81c0-.32.08-.49.1-.73,0-.08,0-.2,0-.38a11.25,11.25,0,0,0-.1-1.4,5,5,0,0,1-.06-.8c0-.41,0-.81.06-1.07a2.46,2.46,0,0,1,.16-.87c0-.08.12-.14.12-.25a.47.47,0,0,0-.1-.26,1.89,1.89,0,0,1-.28-1.15c0-.44.06-1.11.06-1.62,0-.72-.1-.89-.1-1.09a1.38,1.38,0,0,1,0-.26C85.18,2.28,85.7,2.05,86,2Z"/><path class="b" d="M101.86,5.65c0-.08,0-.42,0-.79,0-.2.06-.4.06-.66s-.18-.43-.24-.73a1.21,1.21,0,0,0-.5-.79.87.87,0,0,0-.25,0,2.55,2.55,0,0,0-.87.18,2.81,2.81,0,0,0-.88,1A.56.56,0,0,0,99,4.2c0,.26.09.56.09.9a1.17,1.17,0,0,0,.2.83c.12.19.08.63.18.91s.18.24.65.55a10.86,10.86,0,0,1,1.43,1.31,5,5,0,0,1,1.47,1.72,5.86,5.86,0,0,1,.41,2,7.17,7.17,0,0,1-.18,1.41c-.1.41-.25.73-.31,1a2.75,2.75,0,0,1-.48.93,2,2,0,0,1-.63.61c-.28.24-1.13.68-1.49.93a1,1,0,0,1-.59.14,6.06,6.06,0,0,1-.62,0A3.8,3.8,0,0,1,98,17.08a2.41,2.41,0,0,1-.84-.9,4.86,4.86,0,0,1-.29-1.4c0-.34-.14-1.07-.14-1.53a.9.9,0,0,1,0-.25.76.76,0,0,1,.73-.62c.24,0,.62.2.62.5s-.2.45-.28.71a2,2,0,0,0-.12.61,2.07,2.07,0,0,0,.06.44,2.38,2.38,0,0,0,.41,1.17,3.14,3.14,0,0,0,1,.77,1.14,1.14,0,0,0,.44.08,1.2,1.2,0,0,0,.75-.24,1.82,1.82,0,0,0,.66-.83.72.72,0,0,1,.23-.48,4.26,4.26,0,0,0,.32-.79,1.93,1.93,0,0,0,.08-.63,6.73,6.73,0,0,0-.06-.91,1.54,1.54,0,0,1,0-.2,3.56,3.56,0,0,0-.46-1.23c-.21-.47-.55-.63-.77-.93l-.73-.89a11,11,0,0,0-1.05-.95,3.46,3.46,0,0,1-.75-.81c-.08-.2-.08-.46-.26-.64a1.49,1.49,0,0,1-.36-1,1.27,1.27,0,0,1,0-.27,4.12,4.12,0,0,1,.52-1.77c.34-.41.3-.59.55-.91A1.61,1.61,0,0,1,99,2.48a3.12,3.12,0,0,1,1.32-.57,4.2,4.2,0,0,1,1.31.27,2.42,2.42,0,0,1,1,.84,2,2,0,0,1,.2.87,10,10,0,0,0,.1,1c0,.2-.18,1-.44,1S101.86,5.77,101.86,5.65Z"/></svg>