<svg xmlns="http://www.w3.org/2000/svg" viewBox="0 0 103.9 19.49"><defs><style>.cls-1,.cls-9{font-size:34.65px;font-family:AdornCondensedSans, Adorn Condensed Sans;}.cls-1{stroke:#000;stroke-miterlimit:10;stroke-width:0.5px;}.cls-2{letter-spacing:-0.02em;}.cls-3{letter-spacing:-0.02em;}.cls-4{letter-spacing:0em;}.cls-5{letter-spacing:-0.03em;}.cls-6{letter-spacing:0em;}.cls-7{letter-spacing:0em;}.cls-8,.cls-9{fill:#fff;}</style></defs><title>logo-mid</title><g id="logo-mid"><text class="cls-1" transform="translate(0 17.67) scale(0.58)"><tspan class="cls-2">A</tspan><tspan x="16.56" y="0">m</tspan><tspan class="cls-3" x="41.82" y="0">i</tspan><tspan class="cls-4" x="50.3" y="0">e </tspan><tspan class="cls-5" x="71.85" y="0">C</tspan><tspan class="cls-3" x="86.86" y="0">o</tspan><tspan class="cls-6" x="104.84" y="0">l</tspan><tspan class="cls-7" x="119.35" y="0">l</tspan><tspan class="cls-3" x="133.52" y="0">i</tspan><tspan x="142.01" y="0">ns</tspan></text><g id="pentagram"><polygon class="cls-8" points="60.19 7.01 60.19 6.97 60.18 7.08 60.19 7.01"/><path class="cls-8" d="M60.14,7.24a.17.17,0,0,1,0,.07l0-.29C60.16,6.85,60.15,7.36,60.14,7.24Z"/><path class="cls-8" d="M60.14,7.21c0-.07,0,.07,0,.12C60.12,7.22,60.14,7.36,60.14,7.21Z"/><path class="cls-8" d="M59.21,7.28h0Z"/><path class="cls-8" d="M59,7.76v.11c0-.2.09,0,.14-.09v0c.12,0,.23-.14.35-.22v.05a.77.77,0,0,1,0-.1.16.16,0,0,1,0,.07c0,.18.07-.12.09,0a.58.58,0,0,0,0-.15.63.63,0,0,0,.29-.23V7.4c.08-.3.17-.18.25-.13s0-.08,0-.17,0,.2-.07.05V7.08s0,.19,0,.09a.29.29,0,0,1,0-.1s-.08,0-.11.15c0-.17,0,0-.06-.17a.57.57,0,0,0,0,.16c-.13-.09-.27.07-.4.06-.07.32-.14-.06-.22.05v0c0,.08-.06.12-.09.08l0,.13c-.18-.27-.36-.08-.54-.19S58.18,7,58,7.41c0,0,0,0,0-.06s-.11,0-.17,0v0c-.13.26-.27,0-.4.25a.82.82,0,0,0-.5.08V7.6c-.13.13-.26-.2-.39-.1-.14-.15-.28.36-.42.17s-.2.35-.28,0c-.16-.48-.32-.17-.48.12-.15-.18-.3.27-.45-.09-.07.23-.15-.27-.22-.21V7.6c0-.24-.06.33-.08,0v0c0-.18,0,.42,0,.21v.09s0-.1,0-.14,0,.16,0,.11c0-.36,0,.08-.05-.32,0,0,0-.16,0-.25s0,0,0,.16a3.83,3.83,0,0,0,0,.48v0s0,.21.05.29h0c0-.16,0-.07,0,0v.07c0,.15,0-.3,0,0a.16.16,0,0,1,.15-.06c0-.1,0,0,0-.19,0,.22.06.28.07.27v0c0,.28,0-.27.06.08,0-.25,0,.08.06-.21a.76.76,0,0,1,0,.15s.1.09.14.1c0-.21.08.1.11-.2,0,.07.07.19.1.07v0s.09,0,.12-.22a.85.85,0,0,0,0,.32c0-.14.08-.1.12-.22,0,.14,0-.05,0,.14.11-.37.25-.24.37,0h0c0-.1,0-.34,0-.47s0,0,0,0,.05.16.07.12a.13.13,0,0,1,0,.06c0-.08,0,.16.07,0v.05l0-.07c0,.06,0,.16,0,.14.19.06.38-.27.57-.22v.06l0-.11V8c0,.11.1-.07.14,0v.12c0-.17.06.23.08-.13a.62.62,0,0,1,0,.13.21.21,0,0,1,.3-.06c.08-.33.17,0,.25-.29v.07c.11-.23.22,0,.33,0s.08,0,.13-.06v.08c.08-.31.16.28.25-.06v.11c0-.17,0,.06,0-.23v.09c.06-.39.1.18.17-.08v.07s0-.09.05,0a.11.11,0,0,1,0,0c.06.27.12,0,.18,0v.13c0-.15.08,0,.12-.08v.06l0-.08v.12S58.92,7.77,59,7.76Z"/><path class="cls-8" d="M59.47,7.62h0Z"/><path class="cls-8" d="M54.52,8.25v0Z"/><polygon class="cls-8" points="56.67 2.5 56.63 2.5 56.73 2.53 56.67 2.5"/><path class="cls-8" d="M56.88,2.63H57l-.28-.1C56.5,2.54,57,2.63,56.88,2.63Z"/><path class="cls-8" d="M56.85,2.65c-.07,0,.06,0,.11.05C56.85,2.68,57,2.66,56.85,2.65Z"/><path class="cls-8" d="M56.61,4.66h0Z"/><path class="cls-8" d="M57,5.26l.11,0c-.18-.13,0-.21,0-.33l0,0a1.73,1.73,0,0,0-.11-.8l.06,0s-.11,0-.09-.06l.06,0c.19,0-.09-.18,0-.19a.27.27,0,0,0-.15,0,1.8,1.8,0,0,0-.13-.66.36.36,0,0,1,.14,0c-.27-.22-.12-.39,0-.56s-.08,0-.16,0,.17.14,0,.17l-.08,0s.19,0,.09.06a.15.15,0,0,1-.1,0c0,.09-.07.16.1.27-.16,0,0,.09-.17.09.06,0,0,0,.14.08-.13.27,0,.58-.07.88.29.18-.11.29,0,.47h0c.07.07.1.15,0,.21l.12.07c-.33.34-.2.76-.37,1.13s-.43.78-.08,1.27l-.06,0c0,.13-.08.23,0,.36h0c.22.33-.12.6.11.92a3.55,3.55,0,0,0-.08,1.09h-.06c.08.31-.29.53-.23.84-.19.27.26.65,0,.92s.28.48-.06.61c-.53.28-.28.67,0,1.07-.22.3.16.69-.23,1,.2.19-.32.28-.29.46h.08c-.24,0,.31.18,0,.17h0c-.18,0,.4.14.19.12l.09,0s-.1,0-.14,0,.16,0,.1,0c-.35-.05.07.11-.33,0,0,0-.16,0-.24,0s0,.07.14.09a1.74,1.74,0,0,0,.48.07l-.13,0h.16s.22,0,.3,0h0c-.15-.05-.06-.07,0-.09H56c.16,0-.29-.1,0,0a.83.83,0,0,1,0-.35c-.1,0,0-.09-.17-.1.22,0,.29-.07.29-.1h0c.29,0-.25-.11.11-.12-.25,0,.09-.09-.19-.17l.14,0c0-.11.13-.21.16-.3-.21-.11.12-.17-.16-.28.07,0,.2-.11.1-.2h0a.27.27,0,0,0-.18-.29c.29,0,.24,0,.33-.05-.12-.07-.06-.18-.17-.29.13,0,0-.08.15-.05-.34-.3-.16-.58.16-.8h0l-.45-.17h0c0-.06.17-.07.14-.12h.06c-.08,0,.17-.06,0-.14h.05l-.07,0c.07,0,.16,0,.14,0,.12-.4-.14-.87,0-1.28l.06,0-.1-.1a.08.08,0,0,1,.06,0c.12-.09,0-.22,0-.32s.09,0,.13,0c-.16-.1.24-.09-.11-.18l.13,0a.77.77,0,0,1,0-.63c-.3-.23,0-.38-.21-.6h.07c-.19-.26.09-.48.08-.73,0-.09,0-.17,0-.27h.08c-.28-.22.33-.32,0-.55l.1,0c-.16,0,.08-.1-.21-.13l.09,0c-.36-.18.21-.19,0-.38l.07,0s-.08-.1,0-.12l0,0c.29-.08,0-.26,0-.39l.13,0c-.14-.08,0-.18,0-.27H57l-.08,0,.12,0C57.09,5.48,57,5.36,57,5.26Z"/><path class="cls-8" d="M57,4.15h0Z"/><path class="cls-8" d="M56,15h0Z"/><polygon class="cls-8" points="56.66 2.7 56.63 2.71 56.73 2.71 56.66 2.7"/><path class="cls-8" d="M56.91,2.76l.06,0h-.3C56.51,2.78,57,2.73,56.91,2.76Z"/><path class="cls-8" d="M56.88,2.78c-.07,0,.07,0,.12,0C56.89,2.81,57,2.75,56.88,2.78Z"/><path class="cls-8" d="M57.25,4.75h0S57.24,4.75,57.25,4.75Z"/><path class="cls-8" d="M57.79,5.19h.12c-.22-.06,0-.2-.13-.29h0c0-.27-.22-.48-.34-.72h.06s-.12,0-.11,0h.06c.18-.08-.14-.14,0-.19a.31.31,0,0,0-.16,0A1.6,1.6,0,0,0,57,3.37l.13,0c-.32-.13-.23-.33-.21-.51-.08,0-.08,0-.16,0s.2.08.07.15h-.07c-.05,0,.19,0,.1,0s-.1,0-.1,0,0,.17.18.22c-.16,0,0,.08-.15.14a.39.39,0,0,0,.17,0c0,.3.15.56.19.85.33.09,0,.31.11.45h0c.08,0,.13.11.1.18l.14,0c-.21.42,0,.77,0,1.17s-.18.86.3,1.22t-.06,0c.08.11,0,.24.07.35h0c.3.25,0,.6.37.83a4.15,4.15,0,0,0,.24,1.06H58.3c.18.27-.11.59,0,.86-.1.31.45.54.3.86s.42.37.13.59c-.43.42-.07.71.27,1-.12.35.36.6.06,1,.25.11-.22.35-.13.51l.07,0c-.22.09.35.08,0,.17h0c-.17.06.43,0,.22.06h.09s-.1,0-.13.05.16,0,.11,0c-.35.05.09.08-.31.14,0,0-.15.06-.24,0s0,.08.16.05a1.72,1.72,0,0,0,.48-.08h-.13l.16,0s.2-.09.27-.13h0c-.16,0-.08-.05-.06-.07l.08,0c.15,0-.31,0-.05,0a.62.62,0,0,1-.11-.32c-.11,0,0-.09-.2,0,.22-.06.26-.16.25-.19s0,0,0,0c.28-.11-.27,0,.07-.15-.25,0,.06-.11-.23-.1l.14,0c0-.11.07-.23.06-.32-.22,0,.07-.2-.23-.22.05-.06.16-.17,0-.22h0a.28.28,0,0,0-.26-.22.49.49,0,0,0,.31-.14c-.15,0-.12-.16-.26-.22.13,0-.06-.07.13-.1-.41-.18-.32-.5-.08-.8h0l-.49,0h.05c0-.05.14-.12.1-.16h.06c-.09,0,.14-.11,0-.14h0l-.07,0c.06,0,.15,0,.14,0,0-.41-.39-.77-.41-1.19h.06l-.12-.06h.07c.09-.12-.11-.2-.09-.3s.09,0,.12,0c-.18,0,.21-.15-.15-.14a.41.41,0,0,1,.12,0,.81.81,0,0,1-.15-.61c-.35-.13-.08-.36-.37-.5h.07c-.26-.2-.06-.48-.14-.71s-.08-.16-.09-.26h.08c-.34-.13.22-.4-.15-.52h.11c-.17,0,0-.11-.24-.06l.08,0c-.4-.06.15-.25-.12-.36h.07c-.06,0-.11-.07,0-.1h0c.25-.16-.07-.25-.08-.38H58c-.16,0,0-.17-.12-.24h.06l-.09,0,.12,0C57.94,5.38,57.82,5.29,57.79,5.19Z"/><path class="cls-8" d="M57.49,4.14h0S57.5,4.15,57.49,4.14Z"/><path class="cls-8" d="M59.72,14.62l0,0S59.72,14.62,59.72,14.62Z"/><polygon class="cls-8" points="59.74 14.47 59.77 14.45 59.68 14.5 59.74 14.47"/><path class="cls-8" d="M59.51,14.54l0,0,.27-.13C59.86,14.34,59.43,14.61,59.51,14.54Z"/><path class="cls-8" d="M59.53,14.51s-.07,0-.11.05S59.41,14.6,59.53,14.51Z"/><path class="cls-8" d="M58.71,13.4h0Z"/><path class="cls-8" d="M58.12,13.36l-.1.05c.2-.05.08.13.19.14h0c.07.18.31.22.48.32l0,0,.1,0-.05,0c-.14.14.15,0,.05.13a.32.32,0,0,0,.13-.08.9.9,0,0,0,.43.24l-.11.08c.32-.06.29.11.32.24.06,0,.06,0,.13-.09s-.2.05-.1-.06l.07,0c0-.05-.17.1-.1,0l.08-.05s0-.12-.21-.06c.13-.1,0-.06.09-.16a.33.33,0,0,0-.15.06c0-.22-.28-.3-.38-.47-.32.09-.07-.21-.22-.25h0c-.09,0-.15,0-.14-.07l-.13,0c.09-.37-.22-.49-.28-.78s0-.64-.57-.66l.06,0c-.1,0,0-.16-.15-.19l0,0c-.33,0-.2-.36-.54-.37a2,2,0,0,0-.48-.58l.05,0c-.22-.09-.05-.44-.24-.55,0-.25-.53-.15-.49-.42.19-.28-.45-.05-.25-.33.27-.47-.12-.5-.5-.54,0-.29-.47-.23-.3-.61-.25,0,.11-.33,0-.39l-.06,0c.17-.16-.33.11-.05-.11h0c.13-.12-.38.19-.21.06l-.08,0s.08-.05.1-.09-.13.09-.1,0c.3-.2-.1,0,.24-.23,0,0,.11-.11.2-.13s0,0-.15,0a2.77,2.77,0,0,0-.4.28l.11-.07-.13.1s-.15.15-.2.21h0c.14-.07.07,0,.06,0l-.06,0c-.12.09.28-.13,0,0,.1,0,.14.09.19.16s0,.05.17-.07c-.17.14-.18.22-.16.23l0,0c-.21.19.25-.1,0,.12.21-.13,0,.11.23,0l-.12.08c0,.07,0,.18,0,.24.21-.08,0,.16.26,0,0,.07-.1.19,0,.16l0,0s.1.09.28,0a.9.9,0,0,0-.24.24c.14,0,.15,0,.28,0-.1.08.08,0-.08.12.4-.07.41.18.27.48h0l.44-.2,0,0s-.1.14-.05.15l-.06,0c.09,0-.09.13.06.08l0,0,.08,0c-.06,0-.14.09-.13.07.11.27.54.33.66.59l0,0,.12,0s0,0-.06,0,.14.09.16.16-.09,0-.11.07c.17-.05-.14.19.17,0a.36.36,0,0,1-.1.07.41.41,0,0,1,.28.34c.34-.08.17.19.45.15l0,0c.28,0,.17.29.3.4s.11.07.15.13l-.07,0c.32-.07-.09.36.26.28l-.1,0c.15-.08,0,.09.23-.07l-.06.06c.37-.14-.07.23.2.18l-.06,0c.06,0,.11,0,.07,0l0,0c-.18.22.13.13.17.21l-.12.06c.16,0,.08.1.17.11l0,0,.09,0-.11.07C57.94,13.3,58.06,13.3,58.12,13.36Z"/><path class="cls-8" d="M58.65,13.9Z"/><path class="cls-8" d="M54,8.07l0,0Z"/><polygon class="cls-8" points="56.01 15.36 56.05 15.38 55.96 15.31 56.01 15.36"/><path class="cls-8" d="M55.85,15.18a.11.11,0,0,0-.06,0l.23.19C56.18,15.41,55.75,15.13,55.85,15.18Z"/><path class="cls-8" d="M55.88,15.18c.07,0,0,0-.08-.08S55.75,15.11,55.88,15.18Z"/><path class="cls-8" d="M56.59,13.89h0Z"/><path class="cls-8" d="M56.39,13.32l-.09-.06c.13.16-.09.13,0,.24l0,0c-.14.14-.07.39-.1.6l0,0s.09.08.07.08l0,0c-.17-.06,0,.16-.09.11a.46.46,0,0,0,.12.09,1.05,1.05,0,0,0,0,.51.4.4,0,0,1-.12-.07c.18.27,0,.32-.1.41.06.05.08,0,.14.09s-.12-.17,0-.13l.06.05c.06,0-.16-.11-.06-.08a.44.44,0,0,1,.09,0c0-.07.09-.09,0-.23.14.07,0,0,.18,0a.44.44,0,0,0-.12-.11c.19-.14.16-.4.29-.58-.22-.25.16-.15.14-.31h0c0-.07-.05-.14,0-.16l-.09-.1c.38-.09.36-.44.61-.62s.58-.35.38-.84c0,0,0,0,0,0s.14-.13.12-.23h0c-.11-.31.26-.35.13-.67a2.17,2.17,0,0,0,.34-.72l0,0c0-.25.39-.25.42-.48.23-.11-.08-.56.2-.65s-.14-.45.2-.39c.54,0,.41-.35.3-.72.27-.12,0-.55.44-.56-.13-.22.36-.06.37-.2l-.07,0c.22.08-.23-.26.08-.1h0c.17.08-.33-.26-.14-.16L60,7.3s.08,0,.13,0S60,7.26,60,7.27c.31.19,0-.1.32.11,0,0,.14.06.2.14s0,0-.1-.13A3.14,3.14,0,0,0,60,7.15l.11.07L60,7.14s-.21-.07-.29-.09h0c.13.1,0,.07,0,.07l-.07,0c-.13-.08.24.19,0,0a.35.35,0,0,1-.07.25c.08.06,0,.05.13.14-.2-.1-.28-.08-.29,0s0,0,0,0c-.27-.11.19.19-.13,0,.21.14-.11,0,.13.2l-.13-.07c0,.06-.17.09-.21.13.16.17-.15.07.08.27-.08,0-.22,0-.14.1l0,0c0,.06,0,.14.09.27-.25-.13-.22-.08-.31-.1.09.1,0,.15.08.27-.11-.06,0,.08-.14,0,.22.35,0,.47-.34.48h0c.07.08.26.22.36.32l0,0c0,.05-.16,0-.15,0l0,0c0,.07-.17,0-.06.08l0,0,0,.06s-.13-.09-.11-.09c-.21.22-.09.66-.29.9l0,0,.06.1-.05,0c-.13,0,0,.16-.08.21s-.08-.06-.11-.06-.24,0,0,.16l-.1-.06a.45.45,0,0,1-.2.42c.21.28-.11.24,0,.49l0,0c.1.26-.2.29-.26.47s0,.13,0,.19l-.07,0c.2.27-.38.08-.15.37l-.09-.06c.13.1-.1,0,.16.18l-.09,0c.28.28-.24.05-.08.27l0,0c0,.05,0,.1,0,.09s0,0,0,0c-.28-.06-.07.18-.13.26l-.11-.08c.11.12-.06.12,0,.2l0,0,.06.07-.11-.06C56.37,13.13,56.42,13.25,56.39,13.32Z"/><path class="cls-8" d="M56.09,14.07h0Z"/><path class="cls-8" d="M59.66,7.05h0Z"/></g><text class="cls-9" transform="translate(0.75 17.29) scale(0.58)"><tspan class="cls-2">A</tspan><tspan x="16.56" y="0">m</tspan><tspan class="cls-3" x="41.82" y="0">i</tspan><tspan class="cls-4" x="50.3" y="0">e </tspan><tspan class="cls-5" x="71.85" y="0">C</tspan><tspan class="cls-3" x="86.86" y="0">o</tspan><tspan class="cls-6" x="104.84" y="0">l</tspan><tspan class="cls-7" x="119.35" y="0">l</tspan><tspan class="cls-3" x="133.52" y="0">i</tspan><tspan x="142.01" y="0">ns</tspan></text></g></svg>