<svg id="pentacle" xmlns="http://www.w3.org/2000/svg" viewBox="0 0 90 168"><defs><style>.cls-1{fill:#7f7f7f;}</style></defs><title>pentacle</title><g id="pentacle-2" data-name="pentacle"><path class="cls-1" d="M58.47,1.19c4.73,0,8.39,1.29,10.34,2.8,1.94,1.94,8.17,8,10.11,11.2,1.72,3.23,3,7.1,4.52,9.68,1.29,2.59,3.45,6,3.88,11.64.86,12.27,1.29,21.51,1.29,29.06A128.39,128.39,0,0,1,87.1,86.45c-1.5,9.9.22,17.65-1.94,23S83,117.66,81.5,124.56s-5.38,18.3-12,25.62c-6.46,7.32-8.18,4.95-10.12,7.54-2.37,2.58-2.16,3.23-5.17,4.73s-5.38,4.09-12.06,4.09c-2.58,0-7.54-1.51-12.91-3.88-5.39-2.15-9.26-6.45-12.06-9a21.65,21.65,0,0,1-5.81-9.47c-2.16-6-4.1-8.4-5-12.49-.65-4.08-.85-10.54-2.15-15.29-1.08-4.73-1.51-5.59-1.93-11-.22-3.43-.65-9-.65-13.77,0-2.59,0-5,.65-6.46l1.29-4.31a58.72,58.72,0,0,1-.65-8c0-1.08.21-1.94.21-2.8C3.35,65.57,5.07,63,5.71,59.75a151,151,0,0,1,5-19.16A41,41,0,0,1,20.15,24c3.87-4.3,9-9.25,11.4-10.33A22,22,0,0,0,39.3,8.29c2-2.58,11.42-6.45,15.94-6.88A15.91,15.91,0,0,1,58.47,1.19ZM50.29,13c-1.51,0-2.8-.64-5.17-.64a5.67,5.67,0,0,0-4.52,1.73,71.73,71.73,0,0,0-9,12.91c-1.07,3.23-4.09,9.48-4.74,15.5a128.77,128.77,0,0,1-2.58,16.14c-1.72,6.25-1.72,6.69-1.72,15.29s.87,9,1.29,14.21a99.79,99.79,0,0,0,2.81,18.09c1.29,6.67,1.07,11.4,2.58,15.5,1.29,4.09,1.94,11,2.58,12.92.86,1.94,4.73,8.82,8.19,11.62,4.08,3.23,5.37,8.19,11.62,8.19a10.73,10.73,0,0,0,3.44-.65c2.8-1.08,4.31-3.45,6.25-5.81,1.72-2.37,2.79-2.59,3.65-2.59.65,0,2.37-4.95,3-7.1.44-2.16,5.17-8,5.61-10.76,0-1.29-.21-3.46-.21-5.4s.21-3.87,1.29-5c1.94-1.93,3-2.15,3.87-8.82a71.37,71.37,0,0,0,.43-9.47,68.29,68.29,0,0,1,.43-9.26,51.8,51.8,0,0,0,.44-5.82c0-2.58-.22-4.94-.22-7.32A31.17,31.17,0,0,1,79.79,72c.42-4.73,1.29-5.81,1.29-8.61a9.33,9.33,0,0,0-.22-2.36c-.65-5-1.51-18.52-2.37-21.11a70.18,70.18,0,0,1-3.44-10.33C74,25.09,72.68,24,69.87,21.86c-2.15-1.93-4.73-6.67-7.31-8.62A10.8,10.8,0,0,0,56.1,11.3C54,11.3,52.44,13,50.29,13Z"/><g id="pentagram"><polygon class="cls-1" points="83.28 55.07 83.25 54.7 83.18 55.73 83.28 55.07"/><path class="cls-1" d="M82.79,57.38c0,.19,0,.5,0,.69l.29-3C83,53.43,82.87,58.51,82.79,57.38Z"/><path class="cls-1" d="M82.7,57.08c-.11-.69-.15.7-.18,1.17C82.56,57.18,82.73,58.59,82.7,57.08Z"/><path class="cls-1" d="M72.83,57.77s0,0,0-.09S72.84,57.68,72.83,57.77Z"/><path class="cls-1" d="M70.26,62.5l0,1.11c.48-2,1,0,1.53-.83l0,.39c1.29.44,2.48-1.42,3.76-2.26,0,.11,0,.44,0,.57.06-.39.13-1.1.2-1a2.7,2.7,0,0,1,0,.63c.27,1.83.79-1.17,1,.25a6.1,6.1,0,0,0,.07-1.55,6.33,6.33,0,0,0,3.09-2.26,7.7,7.7,0,0,1,0,1.39c.88-3,1.79-1.79,2.68-1.31,0-.78-.09-.83,0-1.64-.29-1-.53,1.91-.79.49l0-.75c-.19-.49,0,1.9-.24.93a9.91,9.91,0,0,1,0-1c-.4.31-.82-.37-1.2,1.46-.09-1.64-.43-.05-.58-1.62a6,6,0,0,0-.24,1.57c-1.41-.87-2.85.72-4.29.6-.68,3.17-1.49-.62-2.29.45v-.33c-.26.79-.64,1.16-1,.77l-.26,1.34c-1.88-2.76-3.8-.82-5.7-2-2.17-.79-4.06-3.08-6.17,1.1a1.9,1.9,0,0,1,0-.6c-.61.63-1.16-.51-1.74.16v-.32c-1.43,2.62-3-.35-4.33,2.48a9.25,9.25,0,0,0-5.32.8v-.62c-1.41,1.32-2.78-2-4.19-1-1.45-1.43-3,3.61-4.44,1.69-.91-3.08-2.1,3.54-3,.34-1.74-4.83-3.44-1.72-5.18,1.17-1.61-1.72-3.22,2.69-4.78-.81-.74,2.24-1.55-2.79-2.38-2.14l0,.78c-.29-2.36-.65,3.31-.84-.2l0-.16c-.15-1.79-.36,4.2-.45,2.08l0,.87c-.19.26,0-1-.17-1.34,0,.11,0,1.6-.13,1.09,0-3.6-.47.79-.48-3.26a17.27,17.27,0,0,1,.07-2.42c-.07-.41-.38-.21-.35,1.5a33.21,33.21,0,0,0,0,4.83l0-1.33c.06,1.33,0,.66.07,1.66.25.18.28,2.11.46,2.91V67c.13-1.59.3-.64.4-.42l0,.74c.06,1.55.29-3,.21-.37a1.9,1.9,0,0,1,1.67-.65c.08-1,.44.09.32-1.86.14,2.22.57,2.78.72,2.7,0,.2,0,.44,0,.36.3,2.87.36-2.66.65.85,0-2.48.52.8.68-2.13,0,.56.05,1.06,0,1.5.51,0,1.09,1,1.52,1.06.38-2.18.91,1,1.23-2,.27.64.7,1.89,1.07.68l0,.37c.42-.17,1-.33,1.24-2.22A8.37,8.37,0,0,0,33,68.83c.28-1.34.85-1,1.28-2.16.06,1.33.35-.56.37,1.37,1.2-3.73,2.68-2.42,4,.39l0,.14c.17-1.06.36-3.4.53-4.77a1.51,1.51,0,0,1,0,.48c.23-.36.45,1.53.68,1.18a3.28,3.28,0,0,1,0,.63c.22-.86.45,1.54.71,0l0,.51.16-.72c0,.64,0,1.6-.1,1.39,2,.62,4.08-2.69,6.14-2.21l-.08.6.4-1.08a3.9,3.9,0,0,1,0,.62c.51,1.09,1-.72,1.54-.44a6.8,6.8,0,0,0,0,1.28c.36-1.74.59,2.26.77-1.36a9.22,9.22,0,0,1,0,1.28,2.21,2.21,0,0,1,3.1-.55c.86-3.27,1.81-.31,2.7-2.91v.66c1.15-2.29,2.37.15,3.57-.31.49.27.83-.5,1.33-.55v.82c.84-3.1,1.76,2.78,2.64-.63l-.06,1.11c.13-1.72.53.6.47-2.33l.16.89c.59-3.88,1.08,1.78,1.81-.73l0,.7c.19-.54.42-1,.56-.33,0,.1,0,.3,0,.48.6,2.76,1.28-.28,1.92-.18l-.08,1.3c.31-1.52.88-.11,1.29-.8l0,.6.21-.85v1.22C69.24,63.71,69.74,62.65,70.26,62.5Z"/><path class="cls-1" d="M75.6,61.11a.06.06,0,0,1,0,0C75.57,61.17,75.58,61.16,75.6,61.11Z"/><path class="cls-1" d="M22.85,67.41a1.49,1.49,0,0,1-.07-.25C22.79,67.41,22.83,67.35,22.85,67.41Z"/><polygon class="cls-1" points="46.15 6.57 45.77 6.58 46.77 6.9 46.15 6.57"/><path class="cls-1" d="M48.28,8c.19,0,.49.06.68,0L46.13,7C44.43,7,49.41,8,48.28,8Z"/><path class="cls-1" d="M48,8.13c-.72.13.64.44,1.1.57C48,8.45,49.44,8.3,48,8.13Z"/><path class="cls-1" d="M45.38,29.6a.17.17,0,0,0-.07-.09C45.26,29.55,45.3,29.58,45.38,29.6Z"/><path class="cls-1" d="M49.21,35.89l1.09.23c-1.8-1.34.37-2.21-.32-3.44l.38.13c.85-2.73-.59-5.58-1-8.48.11.06.43.13.55.19-.36-.19-1-.45-.92-.58a1.38,1.38,0,0,1,.61.18c1.9-.31-.89-1.89.56-2a2.56,2.56,0,0,0-1.5-.38,18.78,18.78,0,0,0-1.22-7,3.88,3.88,0,0,1,1.39.11c-2.66-2.33-1.19-4.13-.42-6-.76-.19-.85.07-1.62-.24C45.72,9,48.5,10,47,10.31l-.74-.18c-.54.33,1.87.37.84.65-.65.07-.94-.19-1-.12.18.92-.63,1.72,1.06,2.82-1.66-.05-.2.93-1.8,1,.6.32.41.53,1.47.77-1.32,2.92-.23,6.28-.82,9.38,2.91,1.94-1.09,3.12-.31,5a1.07,1.07,0,0,1-.32,0c.69.69.93,1.57.44,2.18l1.24.77c-3.34,3.65-2.06,8.09-3.82,12-1.49,4.57-4.37,8.34-.94,13.53-.3,0-.47,0-.59-.18.44,1.41-.87,2.44-.41,3.78l-.31,0c2.12,3.47-1.32,6.36,1,9.75a42.38,42.38,0,0,0-.95,11.64l-.62-.1c.85,3.25-2.9,5.71-2.37,8.91-1.89,2.93,2.58,7,.21,9.88-3.35,1.49,2.8,5.06-.64,6.42-5.34,3.06-2.83,7.19-.55,11.41-2.23,3.22,1.61,7.37-2.37,10.22,2,1.93-3.27,2.95-2.9,4.82l.78.06c-2.43.28,3.06,1.92-.48,1.79l-.14-.09c-1.82.07,4,1.41,1.9,1.3l.86.19c.19.45-1-.1-1.39.16.09.14,1.58.29,1,.46-3.57-.49.62,1.12-3.38.54,0-.22-1.61.12-2.37-.52-.43.09-.34.8,1.37,1s3.33.84,4.78.63l-1.3-.28a15.49,15.49,0,0,1,1.67.09c.26-.52,2.18-.3,3-.57a.47.47,0,0,1-.15,0c-1.53-.51-.54-.73-.28-.91l.74,0c1.55.1-2.89-1.08-.29-.51a7.22,7.22,0,0,1-.1-3.72c-1-.33.23-.94-1.73-1,2.24,0,2.93-.81,2.9-1.17.2,0,.43.1.34.14,3-.23-2.51-1.19,1.06-1.28-2.44-.47,1-1-1.88-1.8a6.64,6.64,0,0,1,1.49.15c.23-1.12,1.3-2.22,1.56-3.15-2-1.14,1.27-1.81-1.6-3,.72-.48,2.1-1.23,1-2.21l.35.13a2.91,2.91,0,0,0-1.79-3c2.89.16,2.38-.32,3.35-.57-1.23-.81-.65-2-1.71-3.08,1.33.06-.44-.85,1.47-.61-3.29-3.15-1.51-6.16,1.69-8.51l.13.06c-1-.52-3.24-1.28-4.54-1.85.17,0,.49,0,.47.11-.28-.56,1.67-.74,1.39-1.3a1.6,1.6,0,0,1,.61.18c-.78-.61,1.67-.75.28-1.54l.51,0-.65-.46c.63.1,1.57.26,1.34.42,1.28-4.25-1.32-9.23-.17-13.62l.58.25-.94-1a2.06,2.06,0,0,1,.6.18c1.24-.94-.37-2.35.06-3.39a3.31,3.31,0,0,0,1.26.21C44,82.6,48,82.72,44.49,81.78a4.19,4.19,0,0,1,1.26.21,9,9,0,0,1,.48-6.79c-2.95-2.35.29-4-2-6.3l.65.11c-1.89-2.84.93-5.11.87-7.77.43-1-.23-1.87-.1-3l.8.1c-2.78-2.28,3.33-3.4.25-5.81l1.08.3c-1.65-.55.77-1.06-2.15-1.39l.93-.2c-3.64-1.87,2.13-2.07-.12-4l.67.21c-.47-.5-.82-1.05-.14-1.27.09.07.3.08.46.2,2.93-.9.14-2.81.46-4.18l1.25.35c-1.4-.9.19-1.92-.37-2.9l.6.14-.78-.57,1.21.17C50.07,38.27,49.18,37,49.21,35.89Z"/><path class="cls-1" d="M49.59,24.12h0C49.65,24.18,49.64,24.16,49.59,24.12Z"/><path class="cls-1" d="M38.45,139.28l-.26.1C38.43,139.41,38.39,139.31,38.45,139.28Z"/><polygon class="cls-1" points="46.11 8.54 45.75 8.66 46.8 8.66 46.11 8.54"/><path class="cls-1" d="M48.56,9.25c.18-.06.49-.09.67-.15l-3-.18C44.59,9.45,49.64,8.9,48.56,9.25Z"/><path class="cls-1" d="M48.29,9.47c-.65.35.74.24,1.21.22C48.43,9.77,49.77,9.2,48.29,9.47Z"/><path class="cls-1" d="M52.17,30.45a.21.21,0,0,0-.1-.06C52,30.44,52.08,30.45,52.17,30.45Z"/><path class="cls-1" d="M57.69,35.24l1.1-.11c-2.11-.73-.3-2.19-1.31-3.14h.39c0-2.82-2.21-5.08-3.46-7.68.12,0,.45,0,.58,0-.4-.07-1.12-.11-1.05-.27a1.22,1.22,0,0,1,.63,0c1.73-.85-1.41-1.52-.06-2.09a2.66,2.66,0,0,0-1.55.09c-.79-2.07-1.48-4.31-3.24-6.27a3.81,3.81,0,0,1,1.36-.3c-3.23-1.42-2.36-3.55-2.17-5.53-.78.05-.79.32-1.62.26-.88.76,2.06.83.74,1.6l-.75,0c-.42.48,1.89-.2,1,.36-.6.27-1,.11-1,.19.44.82-.1,1.81,1.84,2.35-1.59.44.08.93-1.42,1.48.67.13.54.38,1.63.3-.4,3.13,1.64,6,2,9.07,3.35,1-.13,3.25,1.19,4.81a2,2,0,0,1-.33,0c.86.44,1.35,1.2,1.07,1.93l1.41.36c-2.12,4.42.42,8.22-.1,12.46-.07,4.74-1.72,9.14,3.1,13-.31,0-.47.1-.62,0,.83,1.2-.11,2.55.73,3.68l-.31,0c3,2.64.61,6.37,3.85,8.88a41.44,41.44,0,0,0,2.52,11.24l-.62.09c1.77,2.81-1.08,6.23.37,9.09-1,3.31,4.53,5.83,3.12,9.24-2.76,2.4,4.17,3.94,1.28,6.23-4.2,4.46-.58,7.61,2.84,10.9-1.18,3.7,3.71,6.47.75,10.33,2.46,1.24-2.25,3.74-1.34,5.4l.76-.18c-2.24,1,3.49.9.07,1.83l-.17-.05c-1.71.61,4.27.15,2.21.67l.88-.08c.31.37-1,.2-1.28.56.12.1,1.59-.19,1.13.13-3.56.59.92.87-3.08,1.51,0-.22-1.5.58-2.41.21-.39.2-.09.85,1.6.53s3.43-.19,4.76-.81l-1.33.11c1.29-.33.64-.2,1.62-.4.09-.56,2-.93,2.72-1.43l-.14,0c-1.61,0-.73-.53-.54-.77l.72-.2c1.51-.36-3.08-.16-.43-.39a7.15,7.15,0,0,1-1.2-3.47c-1,0,0-.95-1.93-.39,2.14-.64,2.56-1.63,2.42-2,.21,0,.45,0,.37,0,2.75-1.09-2.75-.38.64-1.52-2.47.28.61-1.23-2.33-1.14a7.53,7.53,0,0,1,1.47-.3c-.12-1.11.58-2.47.55-3.42-2.27-.47.68-2.08-2.39-2.32.54-.66,1.64-1.77.32-2.38l.38,0a2.87,2.87,0,0,0-2.6-2.3c2.81-.7,2.18-1,3-1.52-1.41-.4-1.2-1.67-2.54-2.4,1.29-.34-.67-.67,1.23-1-4.07-2-3.27-5.35-.9-8.51l.14,0c-1.1-.2-3.47-.25-4.88-.41.16-.06.48-.1.48,0-.43-.44,1.37-1.19,1-1.64a1.9,1.9,0,0,1,.63,0c-.92-.34,1.38-1.19-.19-1.52l.5-.11-.76-.24c.64-.09,1.59-.22,1.41,0,0-4.38-4-8.31-4.18-12.78l.63.07-1.21-.69a2.13,2.13,0,0,1,.63,0c.91-1.25-1-2.11-.94-3.21a3.51,3.51,0,0,0,1.27-.17c-1.84-.53,2-1.6-1.59-1.45A4.57,4.57,0,0,1,68,79.67a8.79,8.79,0,0,1-1.54-6.54c-3.51-1.34-.9-3.83-3.75-5.34l.64-.08c-2.63-2.12-.61-5.1-1.45-7.58.09-1.1-.78-1.7-1-2.76l.8-.14c-3.33-1.33,2.18-4.19-1.47-5.54l1.11,0c-1.74,0,.42-1.22-2.46-.67l.83-.46c-4-.69,1.41-2.58-1.31-3.76h.71c-.6-.34-1.1-.75-.51-1.16.1,0,.3,0,.5,0,2.53-1.71-.7-2.69-.81-4.07l1.31,0c-1.61-.44-.39-1.86-1.21-2.62l.61,0-.92-.31,1.22-.2C59.21,37.23,58,36.32,57.69,35.24Z"/><path class="cls-1" d="M54.57,24.05l0,0C54.65,24.09,54.63,24.07,54.57,24.05Z"/><path class="cls-1" d="M77.93,135.76a1.54,1.54,0,0,1-.23.18C78,135.89,77.88,135.81,77.93,135.76Z"/><polygon class="cls-1" points="78.15 134.38 78.44 134.14 77.51 134.62 78.15 134.38"/><path class="cls-1" d="M75.81,135c-.14.13-.41.29-.55.41L78,134.18C79.26,133.09,75,135.77,75.81,135Z"/><path class="cls-1" d="M76,134.77c.48-.52-.72.19-1.14.42C75.8,134.64,74.76,135.63,76,134.77Z"/><path class="cls-1" d="M67.28,122.83s.06,0,.1,0S67.36,122.78,67.28,122.83Z"/><path class="cls-1" d="M61.21,122.22l-1,.58c2.05-.49.81,1.29,2,1.45l-.35.17c.7,1.85,3.23,2.31,5,3.45-.11,0-.39.21-.52.25.38-.13,1-.44,1-.3a1.63,1.63,0,0,1-.55.29c-1.31,1.35,1.62.35.58,1.34a3.78,3.78,0,0,0,1.34-.76,10.46,10.46,0,0,0,4.44,2.61,5.44,5.44,0,0,1-1.12.82c3.21-.55,3,1.24,3.3,2.62.68-.39.62-.57,1.37-.91.58-.89-2,.41-1.06-.7l.66-.38c.25-.5-1.62,1-1,.22.46-.44.82-.5.83-.58-.59-.33-.36-1.23-2.21-.69,1.29-1-.31-.57.88-1.62a4.14,4.14,0,0,0-1.52.55c-.43-2.23-2.94-3.15-4-5-3.21.9-.71-2.19-2.26-2.61a2,2,0,0,1,.27-.17c-.87.1-1.49-.17-1.42-.77l-1.34.41c.75-3.87-2.44-5.19-3.06-8.2-1.12-3.14-.78-6.77-6-7.1.26-.16.39-.28.54-.28-1-.41-.54-1.73-1.56-2.08l.26-.17c-3.35-.33-2.15-3.89-5.63-4A20.13,20.13,0,0,0,44,94.4l.52-.34c-2.27-1-.62-4.58-2.61-5.78,0-2.6-5.47-1.74-5.08-4.62,1.83-2.83-4.68-.67-2.71-3.49,2.59-4.84-1.4-5.24-5.25-5.83.11-3-4.9-2.53-3.26-6.41-2.49.31,1-3.48-.18-4.15l-.63.47c1.73-1.67-3.3,1-.52-1.17l.16,0c1.36-1.19-3.8,1.86-2.12.57l-.75.45c-.37-.09.81-.58,1-1-.14,0-1.36.86-1,.43,3-2-1-.14,2.33-2.39.09.13,1.18-1.07,2.08-1.25.29-.31-.14-.59-1.55.39a23.22,23.22,0,0,0-4,2.71l1.14-.68c-1.06.81-.51.43-1.33,1,.06.41-1.52,1.52-2,2.19a.41.41,0,0,1,.12-.08c1.43-.73.78,0,.67.26l-.58.45c-1.24.93,2.76-1.31.48.06a3.71,3.71,0,0,1,1.93,1.72c.91-.45.28.6,1.8-.63-1.73,1.4-1.85,2.24-1.65,2.4-.17.1-.38.22-.33.15-2.14,2,2.52-1-.17,1.28,2.1-1.31-.24,1.09,2.34-.32a11.88,11.88,0,0,1-1.22.87c.38.68.1,1.88.37,2.49,2.13-.73-.08,1.68,2.7.42-.31.68-1,1.91.31,1.71l-.34.16c.5.43,1.06,1,2.87.31-2.3,1.74-1.67,1.65-2.29,2.39,1.35-.39,1.49.54,2.85.4-1.05.81.76.13-.83,1.22,4.1-.56,4.23,2,2.94,5.16L30,86c1-.37,3.13-1.42,4.41-2-.13.12-.4.29-.42.24.5.09-.91,1.41-.42,1.51a2.64,2.64,0,0,1-.55.29c.89-.2-.92,1.42.54.92l-.41.3.73-.19c-.53.34-1.34.87-1.24.64,1.13,2.85,5.61,3.61,6.9,6.45L39,94.4l1.23-.09a3.85,3.85,0,0,1-.55.29c-.49,1.23,1.45.9,1.63,1.67a4.85,4.85,0,0,0-1.07.69c1.76-.5-1.4,2,1.77.22a7.1,7.1,0,0,1-1.07.69,4.42,4.42,0,0,1,3,3.57c3.43-.73,1.75,2.09,4.65,1.77l-.54.36c2.85.17,1.82,3.05,3.19,4.28.19.77,1.11.76,1.56,1.36l-.67.46c3.27-.65-.87,3.74,2.69,3l-1,.54c1.54-.78-.07,1,2.34-.69l-.62.68c3.73-1.39-.6,2.34,2.1,1.86l-.62.33c.61-.06,1.16,0,.74.52a4.71,4.71,0,0,1-.45.19c-1.8,2.28,1.3,1.45,1.74,2.3l-1.15.63c1.53-.46.81,1,1.73,1.16l-.53.3.89-.22-1,.69C59.37,121.61,60.66,121.65,61.21,122.22Z"/><path class="cls-1" d="M66.78,128.11s0,0,0,0S66.72,128.13,66.78,128.11Z"/><path class="cls-1" d="M18,65.73a1.23,1.23,0,0,1,.15-.22C18,65.65,18.05,65.67,18,65.73Z"/><polygon class="cls-1" points="38.35 143.4 38.7 143.56 37.87 142.92 38.35 143.4"/><path class="cls-1" d="M36.79,141.53c-.17-.08-.44-.25-.61-.33l2.29,1.94C40,143.84,35.76,141.06,36.79,141.53Z"/><path class="cls-1" d="M37.11,141.57c.69.21-.46-.58-.84-.86C37.16,141.33,35.81,140.82,37.11,141.57Z"/><path class="cls-1" d="M44.7,127.85a.23.23,0,0,0,0,.1S44.78,127.91,44.7,127.85Z"/><path class="cls-1" d="M42.8,121.9l-.92-.62c1.29,1.69-.88,1.37-.56,2.51l-.31-.25c-1.43,1.52-.84,4.09-1.18,6.27-.08-.09-.35-.27-.45-.37.28.29.83.75.69.8a1.88,1.88,0,0,1-.5-.39c-1.79-.59.34,1.68-1,1.17a3.6,3.6,0,0,0,1.26.9,11.23,11.23,0,0,0-.63,5.37,5.39,5.39,0,0,1-1.22-.67c1.82,2.74.05,3.35-1.1,4.31.64.45.78.31,1.4.85,1.07.13-1.2-1.71.23-1.32l.62.44c.57,0-1.6-1-.6-.8a5.36,5.36,0,0,1,.88.51c.07-.71,1-.92-.26-2.39,1.48.73.41-.56,1.87.06-.46-.48-.24-.53-1.13-1.15,1.9-1.46,1.74-4.23,3-6.12-2.15-2.57,1.75-1.69,1.51-3.33a2.12,2.12,0,0,1,.27.17c-.45-.76-.45-1.47.14-1.68l-.92-1.06c3.9-1.1,3.84-4.7,6.4-6.68,2.46-2.52,6-3.89,4.17-8.93.26.17.42.23.48.37,0-1.15,1.39-1.31,1.3-2.43l.27.17c-1.06-3.29,2.75-3.82,1.48-7.15a22.76,22.76,0,0,0,3.72-7.62l.53.33c0-2.6,4-2.71,4.32-5.14,2.43-1.22-.6-5.92,2.24-6.9,3.38.39-1.28-4.68,2.16-4.15,5.56.15,4.31-3.76,3.29-7.63,2.8-1.28.37-5.76,4.65-6-1.3-2.18,3.67-.65,3.79-2.1L82,60.84c2.26.83-2.28-2.62.87-1l.11.12c1.65.72-3.28-2.68-1.4-1.7l-.73-.5c-.06-.39.87.49,1.3.48,0-.13-1.36-.87-.83-.76,3.09,1.85-.28-1,3.18,1.06-.08.14,1.47.6,2,1.36.41.13.51-.41-1-1.27a22.9,22.9,0,0,0-4.15-2.46l1.1.75c-1.19-.61-.61-.28-1.48-.77-.36.25-2-.71-2.86-.89l.12.08c1.25,1,.31.73,0,.75l-.66-.34c-1.37-.73,2.34,2,.14.48A4.06,4.06,0,0,1,77,58.8c.79.64-.44.55,1.32,1.39-2-1-2.84-.68-2.9-.42-.17-.11-.37-.25-.28-.24-2.7-1.08,2,1.88-1.27.44,2.08,1.35-1.1.29,1.25,2a10.22,10.22,0,0,1-1.3-.73c-.48.67-1.71,1-2.17,1.51,1.55,1.64-1.59.71.71,2.72-.77,0-2.2,0-1.47,1.09l-.29-.24c-.2.66-.5,1.45.88,2.82-2.56-1.33-2.22-.79-3.16-1,.91,1.07.1,1.63.79,2.85-1.19-.61.18.77-1.48-.21,2.18,3.57-.16,4.89-3.62,5.15l-.1-.1c.77.78,2.61,2.26,3.63,3.2-.15-.06-.43-.23-.39-.27.12.5-1.68-.19-1.58.31a2.36,2.36,0,0,1-.5-.38c.56.74-1.69-.2-.63.93L64,79.39l.47.59c-.54-.34-1.35-.85-1.1-.86-2.2,2.39-1.09,6.92-3.2,9.46l-.46-.42.6,1.11a3.08,3.08,0,0,1-.5-.38c-1.35.12-.24,1.78-.89,2.3a5.05,5.05,0,0,0-1.08-.67c1.18,1.4-2.42-.39.51,1.75a6.94,6.94,0,0,1-1.08-.68,4.92,4.92,0,0,1-2.1,4.48c2.08,2.87-1.24,2.62.24,5.18l-.55-.35c1,2.75-2.1,3.13-2.7,5-.64.54-.26,1.39-.63,2.09l-.71-.41c2,2.75-3.83.94-1.65,3.9l-.89-.66c1.35,1.08-.95.4,1.59,1.86l-.89-.25c2.82,2.82-2.42.53-.88,2.83l-.55-.43c.3.54.48,1.07-.18.93a3.16,3.16,0,0,1-.37-.33c-2.86-.62-.82,1.88-1.44,2.69l-1-.77c1,1.21-.64,1.24-.39,2.15l-.49-.35.56.73-1-.63C42.62,119.9,43.11,121.13,42.8,121.9Z"/><path class="cls-1" d="M39.57,129.85h0C39.53,129.79,39.54,129.8,39.57,129.85Z"/><path class="cls-1" d="M77.9,55.19a1.6,1.6,0,0,1,.27,0C78,55.11,78,55.19,77.9,55.19Z"/></g></g></svg>