<svg xmlns="http://www.w3.org/2000/svg" viewBox="0 0 57.71 77.92"><defs><style>.cls-1{fill:#202020;}</style></defs><title>right-arrow</title><g id="right-arrow"><path class="cls-1" d="M5.31,2l.19.24S5.46,2.11,5.31,2Z"/><path class="cls-1" d="M5.53,1.48a0,0,0,0,1,0,0S5.51,1.48,5.53,1.48Z"/><path class="cls-1" d="M25.19,64a.42.42,0,0,0-.06.28A.29.29,0,0,0,25.19,64Z"/><path class="cls-1" d="M34.67,46.56s0,.09,0,.13A.12.12,0,0,0,34.67,46.56Z"/><path class="cls-1" d="M7.58,4.78a1.12,1.12,0,0,1,0-.13C7.42,4.69,7.5,4.79,7.58,4.78Z"/><path class="cls-1" d="M21.87,66.63a.28.28,0,0,0,.07.11Z"/><path class="cls-1" d="M12.88,14.9,13,15A.15.15,0,0,0,12.88,14.9Z"/><path class="cls-1" d="M41.65,54.05a.36.36,0,0,0,.05-.19A.18.18,0,0,0,41.65,54.05Z"/><path class="cls-1" d="M41.24,52.81c-.64.65.43.64.46,1,.16-.17.62-.28.31-.48.66.58,1.09-.85,1.74-.39,0-.08-.35-.24-.1-.53.44-.22.52.15.75.24a.59.59,0,0,1,.14-.21,1,1,0,0,1,.38-.23c.4-.19.74-.3.68-.22.55-.34-1-.57-.23-1.1.3-.64,1.27-.37,1.86-.64,1.06.17-.64.39-.9.63l2.18-.69c.91.1.09.52-.68.61C49,51,50.11,50.43,50,50a13.57,13.57,0,0,1,1.63-.14c-.29.32.54,1-.33,1.25-1.63.26,0-.61-1.38-.45l.27.41c-.78-.11-1,.27-1.57.42-.42,0,0-.16.15-.26-1.08.26-2.09.17-2.64.86a12.4,12.4,0,0,0,2.64-.39,5,5,0,0,1,2.15-.19c.87-.38,1.68-.75,2.41-1.12-.26-.17-1.61-.26-1.18-.66a7.35,7.35,0,0,0,3.36.31c-1.2-.39,1-.71-.26-1-.05.31-1,0-1.13,0,.9-.19-.66-.43-.2-.54,1.66-.17.75.19,2,.17a.49.49,0,0,0,.09-.18l.46.43a1.14,1.14,0,0,1-.72,1c.46.18,1-.21,2-.07-1.13-.12-.44-.49-1.17-.5a3.79,3.79,0,0,0,.42-.18l-.49-.76L56.2,48l-.12-.2-.19-.24c-.49-.65-1-1.31-1.3-1.89,1.18.45,2,2.62,3.12,2.67-.54-.83-1.09-1-1.28-1.56.42-.33-.73-1.68-1.2-2.61l-.11.37a3.19,3.19,0,0,1-.7-1.4l.19.11-.39-.41c0-.06,0-.07.06-.07-.59-.44-.82-1.56-1.61-2.38-.47.08.56.81.69,1.23,0,.12.17.87-.37.51-.54-1-1.58-1.57-2.31-2.57a2.47,2.47,0,0,1,.11.36c-.54-.24-.74-.69-1.14-1.16-.43-1,1.09.4.89-.23.67.23.76,1,1.39,1a6.81,6.81,0,0,0,.1-.82c-.78-.4-.71-1.23-1.17-1.57l.13.52c-.49.14-.5-.37-.62-.59-.11.2-.23.4-.35.59.39.56,1.21.73,1.17,1.28-1-.9-1.29-.44-2.28-1.47.17-.2.27.15.54.15-.21-.47-1-.55-1.39-1.24.45.2,1.2.63,1-.05H48.4c-.21-.33,0-.35-.07-.48s-.24-.11-.33,0-.25.11-.4-.13-.06-.35.08-.37c-.48-.47-.35-.1-1-.33.41.37-.09.95-.57.63-.54-.59-1.22-.6-1.23-1.44l-.48,0c.48-.22-.28-.44-.42-.65.27-.46.9.74,1.44.1-.35-.4,0-.45.27-.52-.49-.3-.54.33-.95.44.13-.17-.7-.65-.16-.8-.35-.33-.75,0-1-.24a2.07,2.07,0,0,0,.52-.54c-.14.12-.36-.33-.42-.4,0,.13-.4.25,0,.39-.33.25-.77-.58-1-.29.26-.4-.63-.62-.85-1-.64.9.88.14.44.95-.68,0-1.52-1.11-2.53-1.26-.49-.63.26-.33.38-.76.68.29.62.65,1.23.87a3.33,3.33,0,0,0-2-1.16c-.61-.39,0-1.36-.82-1.67-.12.35-.19.41-.06.68-.26,0-.39-.31-.59-.46-.26.08.14.45-.26.39-.07-.13-.26-.35-.07-.51h.07c-.86-.25,0-1-.92-1-.07.18.19.1.25.3s-.65.33-1,.21c.2-.15-.19-.22-.32-.43.13-.42.52.28.78.13l-.45-.45.06.14-.79-.14c.46.21-.13.54-.33.45-.33-.37-.65-.74-.32-1.06-.34.32-.79-.08-1.18-.28.26.43-.2.34-.4.36l-.24-.8c.65.38.14-.41.47-.53s.65.24.91.54c0-1.13-1.11-.33-1.35-1.07.14-.16.34-.31.53-.08,0-.19-.73-.07-.9-.55,0,.18-.1.67-.55.51L32,23.22c-.44-.54-.54.26-1.13.07l0,.52c-.34.3-.57-.51-.92-.14.26.24.66.08.85.43-.22.46-.53-.11-.86-.05a2.28,2.28,0,0,1-.47-1.25c.49-.57,1.33-.08,1.9-.9-.64-.38-1.58-.93-1.74-1.46-.64-.28-1,.2-1.23.59a.58.58,0,0,1-.37-.47l.4,0a6.1,6.1,0,0,1-1.89-1.12c-.44-.24-.62.22-.78.56l-.44-.3v.12c-.43.27-.65-.18-.89-.44.15-.15.34,0,.41-.14a1,1,0,0,0-.79-.67c.14-.15.63-.34.79,0,0,.06-.08.1-.08.17l.64.24a.79.79,0,0,1-.26-1.35c-.7-.32.05.78-.7.31-.11-1.48-1.7-1.33-1.13-2.76a4.1,4.1,0,0,1-1.94-.86c-.31.29-.49-.29-.82.12.14,1,1.59.52,1.46,1.51.39.11.57-.22.84-.27.24.2.41.44.25.66-.69-.34-.87.57-1.53-.08-.17.33.44.78.6,1.09a.47.47,0,0,0-.26.56,11,11,0,0,1-1.4-.1c.21-.07.17-.27.3-.3l-1.11-.28c0-.4.16-.67.43-.71-.27-.48-1.31-.76-.85-1.19-.54-.44-.12.41-.21.58L19,16l.54.5c-.48.56-.44-.73-1-.34-1.06.82-.4-1-.9-1.29l1.11-.2-.5-.24c.48,0,.94-.46,1.54-.39-.46-.54-.91-1.49-1.34-1.7a1.31,1.31,0,0,1,.6-.77c-.93-.12-.49-1-.87-1.49-.69-.25.05.81-.61.76.06-.3-.32-.44-.51-.51.26,0,.46.76.65,1.23-.22-.28-.55.06-.76.11l.31.51c-.46.36-.51-.52-.91-.53.51-.21.46-.29,1-.5a1.93,1.93,0,0,1-1-1.37c0-.33.34,0,.55,0,.19-.32-.5-.24-.22-.6.29-.15.22.21.41.28-.28-.4-.55-.82-.82-1.24.16-.13.44.11.53.34-.1-.5-.4-.68-1.28-.62-.16-.53-.3-1.17,0-1.24-.24-.1-.3.15-.46.28-.34-.6-1-.19-1.24-.5l-.11.49c-.09-.78-.6.28-.73-.37a3,3,0,0,0,1-.85c-.38.17-.33-.34-.49-.54-.22.38-.63-.19-.7.38-.62-.27-.34-.82-1-.85.06.3-.65-.15-.74.22a.73.73,0,0,1,.23-1.19c.09.18.14.54.4.32l-.69-.78c0-.33-.11-.66.25-1-.63.05-.27-1-.94-.84.54,0,.26.59.28.74l-.17-.08a.12.12,0,0,1,0,.09l-.92.11c0,.55.48-.25.83.25-.3.88-1.64-.29-1.7.44.07.51.62,0,1.06.15l0-.09.76.49a.59.59,0,0,1-.51.11c.62.82.4,1.19,1,2.13,0-.12.53-.78.93-.47.37.16,0,.49.16.75-.18-.08-.62.06-.54-.3L11,6.13c-1-.25-1.2.42-2.05-.37-.35.21-1-.32-1.3-.9l-.11.46c-1-.1.39-.44-.58-.75.39-.72.72-1.72,1.48-1.71-.19-.57-.63-.49-.93-.92.31-.61.62-.25,1.08-.65C8.28,1,7.8.79,7.68,1.21L7.46.49c.1-.09.25.12.29.21,0-.3-.6-.57-.88-.57.06,0,.25.12.21.24C6.78.22,6.23,0,6.07,0c.51.18,0,.6.55.75C6.47.82,6.15,1,6.08.7c-.07.52.2.79,0,1.16.06-.44-.42-.36-.51-.38a1.27,1.27,0,0,0,.75.77c-.54.43.74.86,0,1,.23-.09.49.24.49.51-.25.16-.71-.2-1.13-.2C4.67,2.77,6,3.24,6,2.9L5.5,2.22c0,.13-.59,0-.24.43-.49,0-1-.25-1-.8-.22,0,0,.28,0,.37-.22,0-1.12,0-.81.64-.09-.19.47.09.45-.34.23.19.43,1,0,1,.29.22.9.59,1.13.77-.21.25-.25-.12-.45-.15l.73.7.11-.43c.23.74,1.17.63,1.71,1-.48.25-.81-.11-1.26-.26-.31.69.42,0,.7.55a.42.42,0,0,1-.27.28L6.91,6c0,.15-.11.16-.17.13,1,.31.6-.48,1.47.26-.18-.7-.65-.22-.94-.71.12-.49.94.1,1.22.09.23.51-.38,1,.39,1.33-.5-.23-.42.29-.85-.24-.45-.14-.07.3-.26.56.18.08.37-.45.62,0l-.08,0,1,.3c.24.79,1.59,1,1.42,1.76l.37-.46a7.61,7.61,0,0,0,1.08,1.06c-.3.15-.53-.08-.84-.27a3,3,0,0,0,1.95,1.25A4.17,4.17,0,0,0,13.2,10c1-.08.05.82.81,1.12-.42.37-.51.14-.8.62.47,0,.74.42,1.21.47-.29.49-.84.54-1.37,0,0-.74-1-.69-1-1.34l-.08.44c-.49-.33-.63-.66-1.14-.87l.07,0-.58.16.17.2a2.32,2.32,0,0,1-1.21-.18c.57.59,1.29.08,1.92.07.44.58-.13,1.42.54,1.5-.17.2-.12.69-.52.59s-.29-.66-.61-.45c.29.32,0,.34.48.8a3.22,3.22,0,0,1,1.73-.05,2,2,0,0,1,1.05,1.08c-.35-.34-1-.4-1.22-.07.57-.12.32,1,.75.42.33.46,1,1.17.58,1.61-.54-.25-.6-.89-1-1.15a.22.22,0,0,1-.12.33l-.39-.55c.11.58-.1.63.38,1.08,0-.06,0-.19.09-.16s.23.29.35.4l-.4.38c.53.19.64,1.37,1.55,1.77h-.14c.4.62,1.25-.08,1.87.39-.34,0-.44.25-.6.46.46.09.27.55.43.94-.07-.55.64-.18.54-.54.4-.4.93.19,1.18.52-.36.68-1.16-.65-1.27.3.23.35.6.14.5-.16a2.82,2.82,0,0,1,.72,1.62c.82.06.78.44,1.55.23-.25-.21-.63.13-.72-.36l.69-.05c.44.4.45,1.05.7,1.39l-.47-.14.07,0c-.28,0-.58-.43-.81-.11.62-.07.51.48,1.11.6l-.07,0c.93.34.56,1.67,1.68,1.34-.13-.1-.1-.61.11-.68,0,.32.44.64.22.83l-.2-.05c.31.41.5.66.7.71.35-.16.44-.46.84-.35.5.79-.84.35-.6,1l.87.3-.09.37c.71,1.08,2.14.94,3.14,1.81-.35.43-1.23,0-1.5-.23,0,.64.88.53,1.07,1.15a.7.7,0,0,0,1.09,0c.6.27.13.55.12.67.55-.32,1,.35,1.5.58l-.2.28.88.19c-.13-.16.2-.28.34-.44l.13.15c0-1.21-1.76-.63-1.68-2,.27.06.14-.28.41-.23s.13.22.06.34c.28-.14.68-.11.35-.37.48-.54,1,.14,1.61.33.06.65-.81.22-1.21.32.2.11.54,0,.67.33l-.41.36c.81.3.47-.22.95-.5s.53.49.74.59l-.27-.05c.34.57.81.22,1.22.61l-.07.49c-.21-.86-1.14,0-1.28-.43.48,1-.88.72-1.42.86a1.08,1.08,0,0,1,.69.9c.95-.13.91,1.07,1.92.81.21.29-.48.11-.2.35a4.34,4.34,0,0,0,1.88,1c.28.24.08.39,0,.64,1.21,1.33,2.52.69,3.8,2.06l-.39.07c.27.28.47.56.86.36-.19,1,1.63.54,1.46,1.69.49.63,1,0,1.57.32-.13.16-.53.34-.35.61.42.25.8.52,1.19.79a1.43,1.43,0,0,0,.56.34,4.81,4.81,0,0,1,.72.47H43c0,.13.41.23.77.44s.72.46.58.57a5.28,5.28,0,0,0,1.24.6,4,4,0,0,1,1.28.31c.45.39.29.42-.16.27s-.81-.28-.88-.21c-1.23-.46-.56-.34-1.64-.76a2.46,2.46,0,0,1,.33.3l0,.07c-.52-.12-.21.2-.81,0,.18,0-.62-.4-.17-.22,0,0,.09.06.12.09.35,0-.3-.27-.36-.41.13.14.06.32-.26.24.56.36.08.2.32.45l-.06,0a.45.45,0,0,1,.2.38L43,43.66c0,.09.28.25.25.34s-.58.36-.89-.23a.46.46,0,0,0-.07.25.37.37,0,0,1,0,.11s0,0,0,0l-.18,0c0-.17.1-.27.09-.35a27.75,27.75,0,0,1-3.49.86,5,5,0,0,0-1.76,1.42c.2-.13.88-.24.62.25-.11.32-.48.36-.77.59,0-.34-.94.09-.38-.42-.45-.57-1.34.78-1.62.13-.07.27-1,.59-1.22,1.09-.22-.24.4-.43.31-.62l-.38.29-.09-.19c-.9.21-.64,1.08-1,1.44l0-.08-.26.27.1-.7c-.46.34-.48.93-1,1.33L31,49.39l-.24.35a.1.1,0,0,0,0-.16c-.05.64-.87.84-.9,1.42-.25.06-.78-.4-.82.17l-.3-.6c.67-.52.51.23,1.13-.44-1-.4-2.51.67-3.5,1.38-.55.94-2.29,1.31-2,2.35l-.16-.39c-.52.23-1,.48-1.52.75-1,1-2.34,1.69-2.74,2.86l-.44,0a4.46,4.46,0,0,1-1.18,2.24c-.51.75-1,1.48-.7,2.21-.65.24-.26-.49-.39-.7-.4.26-.26,1.41-1,1.31-.16-.14.3-.6,0-.47-.52,0,0,.6-.6.6.41.15.27,1,0,1.52.07-.07.07-.07.14-.07.29.14,0,.41-.13.61a.22.22,0,0,1,0-.14,60.72,60.72,0,0,1-4.89,7.59c0-.21,0-.41,0-.62a2.51,2.51,0,0,1-.72,1.23v-.07c-.94.4.11,1.09-.82,1.28v-.14a3.87,3.87,0,0,1-.85,1,1.73,1.73,0,0,0-.54,1.11c-.53.58-.79.37-1.28.72a.75.75,0,0,0,.17.8l.12-.17c.44-.06.09.53.12.88.63,0,1.42.48,2.32,0,.08-.64,1.11-.15,1.3-.81-.53-.68.91-.63.58-1.48.33.53.62-.52.88.22.49,0,.22-1.35.89-1.53.07.12.19.17.19.3.05-.74.54-.22.78-.65l-.49-.26c-.06-.26.29-.11.3-.31-.13.08-.48.21-.61,0a1.3,1.3,0,0,1,.09-.74.43.43,0,0,1,.16.44s.34-.43.58-.33c.05.26-.08.47.09.77.52-.51.19,0,.74,0-.6-.25.09-.65.17-1,.24.1-.08.26,0,.44,1.34,0,.4-1,1.1-1.65a.42.42,0,0,1,0,.26c.07-.47.77-.35.62-.79.34-.27.64.36,1-.16-.65-.24.54-.52,0-1l.62-.13c-.05-.58-1-.64-.57-1.36.7-.43.88.78,1.46.67l-.19-.39.45-.11v.07c0-.25.39-.49.55-.36s-.05.32.06.45c0-.52,1.65-.47,1.09-1.47.27,0,.59-.35.8-.08-.22-.47.77-.6.75-1a.32.32,0,0,0,.52-.12c-.33.09-.33-.17-.38-.5.42.06.7-.69,1.19-.35.08-.49-.31-.68-.53-1,.43.06,1-.54,1.32,0-.21.09-.66.33-.29.59.47-.11,0-.26.21-.54.07.11.45.14.53.32a1.14,1.14,0,0,1,.59-.49c-.52.09-.09-.53-.47-.54v.64c-.37.38-.33-.19-.58-.17.59-.73,0-1.1.45-1.94a2.6,2.6,0,0,0,.63-.12c-.21.21.23.63.43.62.05-.7.89-.31,1.26-.47-.35.1-.46-.31-.46-.51.43-.81.4,0,.85,0,1-.9,2.11-.67,2.69-1.62l-.72-.17.18.52c-.55-.11-.63-1-.65-1.4.15.11.62-.35.58,0l.38-.55c-.21-.14-.48.18-.38-.19.25,0,.86-.25.69.22.29-.16.55-.53.32-.75.43-.32.31.59.23.89.38-.2.58.21.55.4l.46-.36c0,.19.08.37.06.56.42,0,.33-.68.84-.48L33,57.65a6.05,6.05,0,0,0,1.87-.56l-.3-.21c.36-.86.73.2,1.47-.49.39-.44.64-.74.34-1.17.2-.33.41-.07.63,0,.1-.37.36-1.09.86-1a3.13,3.13,0,0,1-.51.65c.29.44.84-.26,1.31-.21.16-.35.75-1.34,1.09-1.94a1.16,1.16,0,0,1-.24-1.48c.05.33.74.07,1.13.16,0,.35,1,.44.35.82-.24-.08-.49-.46-.69-.2a3.37,3.37,0,0,0,1.35.54.58.58,0,0,1-.34.53C41.41,53,41.3,52.93,41.24,52.81Z"/><path class="cls-1" d="M7.58,4.78l0,.08,0-.16C7.64,4.76,7.61,4.78,7.58,4.78Z"/><path class="cls-1" d="M54.55,42.9a.84.84,0,0,0-.27-.16A.74.74,0,0,0,54.55,42.9Z"/><path class="cls-1" d="M44.24,31.81a.63.63,0,0,1-.07.12A.19.19,0,0,0,44.24,31.81Z"/><path class="cls-1" d="M10.14,2l.19.09C10.3,2.07,10.23,2.08,10.14,2Z"/><path class="cls-1" d="M50.85,41.79l-.12,0S50.77,41.85,50.85,41.79Z"/><path class="cls-1" d="M51,42.26h0S51,42.25,51,42.26Z"/><path class="cls-1" d="M9.17,41.68a.25.25,0,0,0-.13.15A.24.24,0,0,0,9.17,41.68Z"/><path class="cls-1" d="M17.83,33.13l0,.13A.18.18,0,0,0,17.83,33.13Z"/><path class="cls-1" d="M49.39,42l0,0C49.46,41.92,49.4,41.93,49.39,42Z"/><path class="cls-1" d="M7.2,41a.51.51,0,0,0,0,.13A.69.69,0,0,0,7.2,41Z"/><path class="cls-1" d="M45.13,39.48l-.06,0S45.11,39.52,45.13,39.48Z"/><path class="cls-1" d="M18.5,42.84a.47.47,0,0,0,.06-.15A.19.19,0,0,0,18.5,42.84Z"/><path class="cls-1" d="M18.65,41.54c-.44.34,0,.76-.09,1.15.12-.1.34,0,.26-.31.13.81.67-.38.84.27,0-.08-.09-.35.08-.53s.19.31.27.48c.09-.22.46-.35.41-.24.18-.18-.09-.79.16-1.11.2-.52.35,0,.54-.18.17.39-.23.24-.34.41l.61-.19c.15.29-.12.51-.29.43.2.36.53.08.64-.35.14.11.23,0,.34.21-.15.23-.22,1-.44,1.11-.35-.08.18-.58-.11-.72l-.07.46c-.1-.28-.24,0-.38.07s0-.16.09-.22c-.25,0-.43-.25-.67.25.3.46.86-.07,1,.47l.72-.57c0-.22-.17-.58,0-.87,0,.54.19.81.43.93,0-.59.44-.48.37-1-.15.28-.15-.22-.16-.27.24,0,.08-.53.22-.55.42.18-.06.37.34.63a3.52,3.52,0,0,1-.66,1c0,.26.23,0,.3.29-.1-.32.16-.54.06-.68.36-.21.82-.77,1.24-.84-.18.85-.76.56-.76,1.6.21-.11.26-.53.41-.45.06.54.43.13.68.15l-.07-.28c.13-.19.28,0,.38.06l-.05.11.14-.14a.11.11,0,0,1,0,.08c.17-.24.41.06.65-.05.09-.41-.21-.06-.3-.12s-.19-.32,0-.59c.28.05.58-.41.89-.32L26.22,41c.16-.26.27-.09.42-.07.19.35-.33.52-.23.8-.19.34-.27-.11-.41.41l0,.6c.21-.32.21.24.32.18l0-.27c.13-.44.13-.09.16,0l.11-.66c-.12-.15-.35.39-.37,0,.31-.15.38-.68.7-.61-.05.25-.08.07-.17.25s.32-.28.43,0a.84.84,0,0,0-.35.71l.23-.45c.05.1,0,.27,0,.3s.13-.51.26-.33a.76.76,0,0,1,0,.33c.18.08.14-.13.4-.3-.16-.05.08-.78.29-.79.22.16.56-.15.5.51l.24-.26c-.26.41.11.22.16.34-.19.48-.39-.19-.71.6.13.14-.05.35-.18.54.2,0,.29-.53.51-.81-.09.19.28.19,0,.56.14.1.39-.38.46-.23-.1.18-.23.41-.34.66.09-.15.15.11.17.14s.24-.38,0-.31c.21-.35.34.14.48-.17-.19.43.27.24.34.5.48-1-.47.23-.12-.61.36-.24.72.32,1.3.06.22.34-.19.38-.3.78-.37,0-.3-.31-.63-.26a.8.8,0,0,0,1,.22c.34.11-.11,1.17.41,1.1.09-.35.13-.42.07-.6.15-.07.22.11.34.16.16-.18-.06-.33.17-.44a.33.33,0,0,1,0,.4l0,0c.51-.13-.07.92.53.42,0-.17-.12,0-.15-.13a.93.93,0,0,1,.59-.6c-.12.21.11.1.19.21-.09.41-.31,0-.47.24l.27.18,0-.09.46-.23c-.26,0,.09-.51.2-.52a.52.52,0,0,1,.18.74c.19-.42.46-.3.68-.32-.15-.23.11-.38.22-.49l.16.54c-.38,0-.07.41-.26.67-.26.41-.38.1-.53,0,.05.92.64-.25.8.24-.07.2-.17.42-.29.33,0,.16.41-.29.54,0,0-.16,0-.6.27-.7l.1.58c.28.22.28-.49.61-.63l0-.4c.17-.42.34.12.5-.36-.15-.07-.36.27-.47.08.09-.49.28-.18.46-.4.27.31.19.3.33.75-.22.74-.71.78-1,1.74.38,0,1-.1,1.09.24.37-.12.51-.72.58-1.15.15,0,.19,0,.24.17l-.21.19c.45-.13.72-.33,1.11-.2.25-.08.27-.54.31-.9l.26,0,0-.11c.18-.46.34-.25.49-.2-.05.21-.15.23-.18.36s.32.21.48,0c0,.21-.25.65-.38.46s0-.12,0-.18l-.34.2c.38-.17.45.4.33.89.39-.18-.15-.57.29-.67.3,1.08,1-.06,1,1.39.3-.24.68-.67,1.06-.64.07-.41.28-.11.33-.63-.25-.61-.81.68-.95-.14-.19.16-.21.52-.33.73-.15,0-.27-.07-.24-.33.38-.19.3-1,.71-.92,0-.36-.33-.3-.46-.43a.86.86,0,0,0,0-.59,9.77,9.77,0,0,1,.64-.82c-.08.18,0,.31-.09.42l.53-.52a1.14,1.14,0,0,1-.06.8c.21.17.7-.32.59.31.31,0,0-.39,0-.57l0,0h-.32c.09-.72.32.24.49-.44.27-1.3.36.49.62.32l-.41.91.26-.18a9.43,9.43,0,0,1-.56,1.33c.31.08.72.44,1,.3a2.8,2.8,0,0,1-.05,1c.4-.55.46.37.74.43.34-.32-.24-.53,0-1,.06.26.25.08.34,0-.11.16-.39-.2-.58-.39.16,0,.2-.43.27-.62l-.25-.13c.1-.58.33,0,.49-.29-.14.51-.1.53-.25,1a.49.49,0,0,1,.76.21c.1.22-.12.25-.2.39,0,.36.25-.19.25.25s-.15,0-.24.11l.67.23c0,.21-.2.26-.3.17.18.26.35.16.66-.53.22.24.47.56.36.87.12-.12.06-.33.08-.54.31.14.4-.61.59-.61l-.11-.4c.27.43.11-.64.36-.31a5.64,5.64,0,0,0-.07,1.31c.07-.4.22,0,.34,0-.05-.41.27-.36.1-.78.29-.31.39.24.61-.27-.12-.13.24-.41.15-.71.25,0,.41.47.33.91-.09,0-.23-.22-.23.12l.48-.06a1.25,1.25,0,0,1,.27.78c.16-.53.44.39.57-.25-.17.41-.29-.15-.35-.22l.08-.08a.05.05,0,0,1,0,0l.21-.81c-.19-.33,0,.54-.31.52-.22-.77.55-1.15.31-1.63-.19-.25-.17.49-.34.76l0,0L49,45a1,1,0,0,1,.11-.47c-.46,0-.51-.43-1-.54,0,.1.09.9-.14,1s-.16-.28-.29-.34c.09-.09.18-.53.27-.23l0-.55c.39-.66.23-1.2.71-1.38,0-.4.38-.6.63-.48l-.11-.37c.27-.69,0,.58.38,0a5,5,0,0,1,.18,2.2c.25.18.34-.2.56-.21.14.6-.07.66,0,1.26a.52.52,0,0,0,.25-.67l.32.24a.1.1,0,0,1-.15.11c.12.13.35-.17.42-.39,0,0-.1.13-.14,0a1.66,1.66,0,0,0,.36-.62c-.18.31-.21-.38-.4,0,0-.17,0-.49.15-.41-.17-.36-.33-.29-.4-.7.14.31.22-.14.24-.2s-.35,0-.43.17c0-.68-.46.13-.31-.58,0,.25-.2.26-.29.1s.24-.45.34-.8c.45-.33,0,.51.1.72l.35-.06c0-.09.13-.48-.1-.43.1-.43.31-.73.49-.4,0-.2-.09-.17-.13-.18,0-.2.23-.92,0-1,.08,0-.13.33,0,.56-.11.08-.41-.21-.3-.59-.13.12-.38.4-.49.49,0-.31.1-.14.15-.28l-.38.18.11.34c-.28-.25-.48.56-.72.8,0-.53.24-.58.39-.85-.13-.66-.1.33-.33.23a.93.93,0,0,1,0-.39l-.2.47a.2.2,0,0,1,0-.21c-.35.58,0,.77-.47,1,.26.28.24-.36.46-.31.13.39-.27.69-.35.91-.22-.14-.21-.95-.5-.52.2-.25,0-.51.3-.51.17-.27-.07-.25-.09-.56-.07.1,0,.57-.17.48v-.08L48,41.5c-.29-.3-.74.61-.91,0V42a2.07,2.07,0,0,0-.64.14c.07-.33.2-.34.35-.45-.35-.12-.68.18-1,.61a2.87,2.87,0,0,0,.3.69c-.31.77-.23-.52-.57-.16a5.83,5.83,0,0,0,.13-1c-.17.36-.37.26-.55.57,0-.55.18-1,.48-1,.18.49.52-.31.66.16l-.08-.35c.24-.14.37,0,.59-.27l0,.08.14-.55h-.1a2.62,2.62,0,0,1,.41-.81c-.32.06-.41.94-.61,1.41-.29-.06-.3-1-.54-.59,0-.26-.12-.55,0-.78s.25.22.3-.16c-.16,0-.08-.22-.33-.18a4.1,4.1,0,0,1-.57,1.31.38.38,0,0,1-.6,0c.2,0,.45-.47.44-.83-.17.49-.32-.45-.35.25-.21-.08-.59-.1-.52-.71.23-.19.38.2.57.09,0,0-.07-.18,0-.31l.24.09c-.15-.31-.09-.5-.34-.47A.36.36,0,0,1,45,39c-.07,0-.14,0-.2,0l.07-.55c-.22.23-.47-.52-.86-.16l0-.11c-.24-.15-.45.92-.76,1a1.89,1.89,0,0,0,.16-.74c-.19.25-.19-.21-.3-.38.1.35-.22.55-.13.75-.1.55-.4.49-.54.4.05-.72.55-.3.45-1.06-.13-.09-.25.3-.17.45a.86.86,0,0,1-.49-.71c-.33.48-.36.17-.65.83.13,0,.24-.5.33-.2l-.27.48c-.23,0-.31-.5-.44-.6l.21-.19,0,.08c.11-.2.29,0,.35-.42-.25.45-.26,0-.52.25l0-.08c-.43.31-.37-.91-.83,0,.07,0,.09.41,0,.59,0-.26-.24-.23-.16-.51l.09-.08c-.16-.13-.26-.21-.35-.13-.15.33-.17.62-.36.77-.26-.31.36-.77.22-1.13l-.4.28,0-.33c-.34-.44-1,.49-1.48.33a.83.83,0,0,1,.7-.63c0-.51-.41.06-.49-.33-.15-.14-.44.28-.52.58-.28.12,0-.36,0-.46-.27.55-.47.25-.69.31l.11-.33-.43.3c.06.06-.11.32-.19.52l-.06-.06c0,1,.84-.37.78.71-.14.1-.08.31-.21.4-.06-.06-.06-.11,0-.23-.13.24-.34.43-.17.47-.25.68-.51.39-.81.54,0-.5.42-.58.62-.87-.1,0-.27.28-.33.07l.22-.49c-.4.16-.25.41-.5.87s-.26-.13-.36-.11l.14-.09c-.15-.3-.41.21-.6.08l.06-.44c.06.61.59-.56.64-.25-.19-.62.48-1,.76-1.38-.19,0-.31-.08-.28-.39-.49.56-.36-.43-.9.25-.08-.14.25-.3.14-.37a.78.78,0,0,0-.84,0c-.12-.07,0-.28.07-.5-.44-.56-1.25.46-1.89-.19l.24-.21c-.14-.14-.24-.3-.5,0,.19-.94-1,.16-.9-.88-.35-.34-.68.39-1.06.39.08-.2.33-.52.18-.68-1.27-.14-2.38-.37-3.61-.45a.32.32,0,0,1,.14-.16c-.79-.23-1.66.54-2.22.17-.14.12-.49.26-.44.64.14.07.1.54.05.83-.56.34-.17-.71-.53-.62,0-.73.27-.45.34-1.08l-.55.4c-.26-.26-.58.12-.79-.24.1.09.09-.53.24-.24,0,0,0,.08-.05.11.41.1.26-.32.66-.44-.36.14-.82.27-1.08.1,0,.49-.26.19-.36.49v-.05a.67.67,0,0,1-.27.4v-.62c-.13.07,0,.31-.13.38a.52.52,0,0,1-.78-.51c-.21,0-.31.38-.52.28,0-.16.09-.22.11-.3-.44-.17-1,0-1.42-.43a1.54,1.54,0,0,0-.95.6c.1,0,.37.13.16.47s-.26.14-.41.24c.06-.32-.35-.34,0-.54,0-.71-.65.08-.58-.62-.09.21-.49,0-.68.41,0-.31.24-.19.26-.4l-.2.08,0-.21c-.34-.22-.49.64-.72.75l0-.08-.16.1.23-.56c-.24.07-.41.56-.68.65v-.18l-.18.18a.22.22,0,0,0,0-.16c-.2.52-.52.28-.7.72-.09-.09-.12-.77-.3-.32l.09-.67c.35,0,.09.49.47.27-.19-.88-1-.85-1.45-.83-.45.4-1-.38-1.31.6l.08-.4L12,32.8c-.59.11-1.16-.25-1.65.26l-.09-.35c-.56,1.09-1.6.33-2,1.66-.23-.33.13-.51.18-.75-.18-.13-.58.73-.71.1,0-.21.29-.17.18-.31-.1-.41-.23.37-.35-.08a1,1,0,0,1-.57.91s0,0,0,.07c0,.31-.16.23-.26.27a.31.31,0,0,1,0-.11,5.66,5.66,0,0,1-3.87,0l.26-.27c-.2.21-.51,0-.6-.07l0,0c-.28-.66-.44.58-.63-.17L2,33.88c-.41,0-.59-.72-1-.4-.29-.27-.22-.59-.41-.9-.18,0-.3.38-.32.46l.08,0c.06.38-.22.29-.36.44a5.81,5.81,0,0,0,.21,2.13c.29-.17.17,1,.48.89.25-.76.38.63.72,0-.2.52.3.32,0,.88.08.43.63-.4.8.12,0,.11,0,.24-.11.3.34-.28.18.39.4.41l0-.55c.11-.17.1.22.18.13a.68.68,0,0,1-.07-.56c.12-.12.22-.29.34-.28a.52.52,0,0,1-.17.36.33.33,0,0,1,.23.33c-.1.17-.21.16-.32.47.3.19,0,.18.12.63,0-.65.31-.25.49-.38,0,.26-.13.07-.19.26.22,1.16.51-.15.91.13a.31.31,0,0,1-.1.17c.21-.16.3.45.46.09.18.13,0,.74.26.75,0-.68.33.16.41-.55l.18.44c.24-.37.06-1.21.46-1.24.33.3-.14,1.17,0,1.56l.12-.38.15.29,0,0c.11-.12.29,0,.27.22s-.14.15-.17.31c.2-.34.59,1,.87,0,.08.2.29.22.23.55.14-.46.45.2.61-.09,0,.16.08.43.19.31-.12-.19,0-.36.1-.61.09.35.46.09.46.66a2.66,2.66,0,0,0,.27-1.1c.09.35.48.32.36,1-.1-.09-.32-.24-.32.2.18.26.1-.17.27-.22,0,.12.08.41,0,.6a.28.28,0,0,1,.36.08c-.19-.32.18-.45.08-.72l-.25.46c-.26,0,0-.37-.1-.54.45-.09.43-.76.87-1a1.61,1.61,0,0,0,.23.33c-.14,0-.17.62-.1.74.28-.48.38.37.56.5-.15-.16,0-.54,0-.69.43-.32.13.24.28.54.61,0,.93.8,1.46.44l-.18-.57-.13.51a2.77,2.77,0,0,1,.28-1.49c0,.18.32.11.17.39l.32-.2c0-.23-.22-.15-.06-.38.08.17.37.31.15.6.15,0,.37-.13.36-.44.26,0-.08.66-.22.86.2,0,.13.5.06.64l.28,0c-.08.14-.09.35-.17.49.16.22.35-.35.46.1l.11-.44c.47.41.41.47.87.56l0-.33c.4-.55.21.54.7.34a.79.79,0,0,0,.49-.82c.17-.18.18.13.23.33.15-.28.46-.79.62-.45a1.88,1.88,0,0,1-.39.34c0,.52.4.15.58.41.16-.23.67-.82,1-1.25a2.22,2.22,0,0,1,.29-1.45c-.07.33.27.36.4.6-.1.3.28.79-.06.89-.08-.17-.08-.61-.23-.46a3.13,3.13,0,0,0,.41,1c0,.16-.16.36-.28.35A.73.73,0,0,0,18.65,41.54Z"/><path class="cls-1" d="M49.39,42a.05.05,0,0,1,0,0l0,.12A.17.17,0,0,1,49.39,42Z"/><path class="cls-1" d="M25,42.42a.37.37,0,0,0,.06-.15A.52.52,0,0,0,25,42.42Z"/><path class="cls-1" d="M28.53,43.13l0-.13A1.23,1.23,0,0,0,28.53,43.13Z"/><path class="cls-1" d="M49.63,45.69l-.09.11S49.58,45.74,49.63,45.69Z"/></g></svg>