<svg xmlns="http://www.w3.org/2000/svg" viewBox="0 0 50 50"><title>twitter</title><g id="twitter"><path id="twitter-2" data-name="twitter" d="M0,0V50H50V0ZM39.3,19.24c.43,9.62-6.74,20.35-19.44,20.35A19.32,19.32,0,0,1,9.37,36.51,13.73,13.73,0,0,0,19.5,33.68a6.84,6.84,0,0,1-6.39-4.75,6.81,6.81,0,0,0,3.09-.11A6.86,6.86,0,0,1,10.71,22a6.81,6.81,0,0,0,3.1.85,6.85,6.85,0,0,1-2.12-9.13,19.46,19.46,0,0,0,14.1,7.15,6.84,6.84,0,0,1,11.65-6.24A13.63,13.63,0,0,0,41.79,13a6.89,6.89,0,0,1-3,3.79,14,14,0,0,0,3.93-1.08A14,14,0,0,1,39.3,19.24Z"/></g></svg>